<svg width="145" height="145" viewBox="0 0 145 145" fill="none" xmlns="http://www.w3.org/2000/svg">
<g clip-path="url(#clip0_2432_3633)">
<path d="M26.7436 123.255L16.5664 9.0625H128.434L118.243 123.236L72.4322 135.938L26.7436 123.255Z" fill="#1572B6"/>
<path d="M72.5 126.232L109.52 115.968L118.229 18.4014H72.5V126.232Z" fill="#33A9DC"/>
<path d="M72.5 59.7713H91.0328L92.3106 45.4299H72.5V31.4238H107.617L107.282 35.1802L103.843 73.7774H72.5V59.7713Z" fill="white"/>
<path d="M72.5845 96.1438L72.5211 96.1619L56.9245 91.9479L55.9277 80.7783H41.8672L43.8292 102.768L72.5166 110.734L72.5845 110.716V96.1438Z" fill="#EBEBEB"/>
<path d="M89.84 73.1846L88.1544 91.9394L72.5352 96.1535V110.726L101.245 102.769L101.458 100.404L103.891 73.1846H89.84Z" fill="white"/>
<path d="M72.5503 31.4238V45.4299H38.72L38.4391 42.2807L37.8002 35.1802L37.4648 31.4238H72.5503ZM72.5005 59.7713V73.7774H57.0988L56.8178 70.6282L56.1834 63.5277L55.8481 59.7713H72.5005Z" fill="#EBEBEB"/>
</g>
<defs>
<clipPath id="clip0_2432_3633">
<rect width="145" height="145" rx="30" fill="white"/>
</clipPath>
</defs>
</svg>
