<svg width="145" height="145" viewBox="0 0 145 145" fill="none" xmlns="http://www.w3.org/2000/svg">
<g clip-path="url(#clip0_2432_3644)">
<path d="M111.016 0H33.9844C15.2153 0 0 15.2153 0 33.9844V111.016C0 129.785 15.2153 145 33.9844 145H111.016C129.785 145 145 129.785 145 111.016V33.9844C145 15.2153 129.785 0 111.016 0Z" fill="#242938"/>
<mask id="mask0_2432_3644" style="mask-type:luminance" maskUnits="userSpaceOnUse" x="34" y="15" width="77" height="115">
<path d="M34.5508 15.8594H110.087V129.141H34.5508V15.8594Z" fill="white"/>
</mask>
<g mask="url(#mask0_2432_3644)">
<path d="M53.4392 129.141C63.8611 129.141 72.3192 120.682 72.3192 110.26V91.3799H53.4392C43.0173 91.3799 34.5586 99.8386 34.5586 110.26C34.5586 120.682 43.0173 129.141 53.4392 129.141Z" fill="#0ACF83"/>
<path d="M34.5586 72.5001C34.5586 62.0783 43.0173 53.6201 53.4392 53.6201H72.3192V91.3802H53.4392C43.0173 91.3802 34.5586 82.922 34.5586 72.5001Z" fill="#A259FF"/>
<path d="M34.5586 34.7394C34.5586 24.3175 43.0173 15.8594 53.4392 15.8594H72.3192V53.62H53.4392C43.0173 53.62 34.5586 45.1613 34.5586 34.7394Z" fill="#F24E1E"/>
<path d="M72.3203 15.8594H91.2003C101.622 15.8594 110.081 24.3175 110.081 34.7394C110.081 45.1613 101.622 53.62 91.2003 53.62H72.3203V15.8594Z" fill="#FF7262"/>
<path d="M110.081 72.5001C110.081 82.922 101.622 91.3802 91.2003 91.3802C80.7785 91.3802 72.3203 82.922 72.3203 72.5001C72.3203 62.0783 80.7785 53.6201 91.2003 53.6201C101.622 53.6201 110.081 62.0783 110.081 72.5001Z" fill="#1ABCFE"/>
</g>
</g>
<rect x="0.5" y="0.5" width="144" height="144" rx="29.5" stroke="white"/>
<defs>
<clipPath id="clip0_2432_3644">
<rect width="145" height="145" rx="30" fill="white"/>
</clipPath>
</defs>
</svg>
