<svg width="72" height="72" viewBox="0 0 72 72" fill="none" xmlns="http://www.w3.org/2000/svg">
<g filter="url(#filter0_d_2414_11342)">
<rect x="4" width="64" height="64" rx="32" fill="white"/>
<g clip-path="url(#clip0_2414_11342)">
<path d="M29.1654 32.667H42.832V35.2337H44.1654V31.3337H36.6654V28.667H35.332V31.3337H27.832V35.2337H29.1654V32.667Z" fill="black"/>
<path d="M32.668 36.167H24.3346C23.8926 36.167 23.4687 36.3426 23.1561 36.6551C22.8436 36.9677 22.668 37.3916 22.668 37.8337V42.8337C22.668 43.2757 22.8436 43.6996 23.1561 44.0122C23.4687 44.3247 23.8926 44.5003 24.3346 44.5003H32.668C33.11 44.5003 33.5339 44.3247 33.8465 44.0122C34.159 43.6996 34.3346 43.2757 34.3346 42.8337V37.8337C34.3346 37.3916 34.159 36.9677 33.8465 36.6551C33.5339 36.3426 33.11 36.167 32.668 36.167ZM24.3346 42.8337V37.8337H32.668V42.8337H24.3346Z" fill="black"/>
<path d="M47.668 36.167H39.3346C38.8926 36.167 38.4687 36.3426 38.1561 36.6551C37.8436 36.9677 37.668 37.3916 37.668 37.8337V42.8337C37.668 43.2757 37.8436 43.6996 38.1561 44.0122C38.4687 44.3247 38.8926 44.5003 39.3346 44.5003H47.668C48.11 44.5003 48.5339 44.3247 48.8465 44.0122C49.159 43.6996 49.3346 43.2757 49.3346 42.8337V37.8337C49.3346 37.3916 49.159 36.9677 48.8465 36.6551C48.5339 36.3426 48.11 36.167 47.668 36.167ZM39.3346 42.8337V37.8337H47.668V42.8337H39.3346Z" fill="black"/>
<path d="M31.8346 27.8333H40.168C40.61 27.8333 41.0339 27.6577 41.3465 27.3452C41.659 27.0326 41.8346 26.6087 41.8346 26.1667V21.1667C41.8346 20.7246 41.659 20.3007 41.3465 19.9882C41.0339 19.6756 40.61 19.5 40.168 19.5H31.8346C31.3926 19.5 30.9687 19.6756 30.6561 19.9882C30.3436 20.3007 30.168 20.7246 30.168 21.1667V26.1667C30.168 26.6087 30.3436 27.0326 30.6561 27.3452C30.9687 27.6577 31.3926 27.8333 31.8346 27.8333ZM31.8346 21.1667H40.168V26.1667H31.8346V21.1667Z" fill="black"/>
</g>
</g>
<defs>
<filter id="filter0_d_2414_11342" x="0" y="0" width="72" height="72" filterUnits="userSpaceOnUse" color-interpolation-filters="sRGB">
<feFlood flood-opacity="0" result="BackgroundImageFix"/>
<feColorMatrix in="SourceAlpha" type="matrix" values="0 0 0 0 0 0 0 0 0 0 0 0 0 0 0 0 0 0 127 0" result="hardAlpha"/>
<feOffset dy="4"/>
<feGaussianBlur stdDeviation="2"/>
<feComposite in2="hardAlpha" operator="out"/>
<feColorMatrix type="matrix" values="0 0 0 0 0 0 0 0 0 0 0 0 0 0 0 0 0 0 0.25 0"/>
<feBlend mode="normal" in2="BackgroundImageFix" result="effect1_dropShadow_2414_11342"/>
<feBlend mode="normal" in="SourceGraphic" in2="effect1_dropShadow_2414_11342" result="shape"/>
</filter>
<clipPath id="clip0_2414_11342">
<rect width="30" height="30" fill="white" transform="translate(21 17)"/>
</clipPath>
</defs>
</svg>
