<svg width="145" height="145" viewBox="0 0 145 145" fill="none" xmlns="http://www.w3.org/2000/svg">
<g clip-path="url(#clip0_2432_3715)">
<path d="M26.7436 123.255L16.5664 9.0625H128.434L118.243 123.236L72.4322 135.938L26.7436 123.255Z" fill="#1572B6"/>
<path d="M72.5 126.232L109.52 115.968L118.229 18.4014H72.5V126.232Z" fill="#33A9DC"/>
<path d="M72.5 59.7713H91.0328L92.3106 45.4299H72.5V31.4238H107.617L107.282 35.1802L103.843 73.7774H72.5V59.7713Z" fill="white"/>
<path d="M72.5845 96.1438L72.5211 96.1619L56.9245 91.9479L55.9277 80.7783H41.8672L43.8292 102.768L72.5166 110.734L72.5845 110.716V96.1438Z" fill="#EBEBEB"/>
<path d="M89.84 73.1846L88.1544 91.9394L72.5352 96.1535V110.726L101.245 102.769L101.458 100.404L103.891 73.1846H89.84Z" fill="white"/>
<path d="M72.5503 31.4238V45.4299H38.72L38.4391 42.2807L37.8002 35.1802L37.4648 31.4238H72.5503ZM72.5005 59.7713V73.7774H57.0988L56.8178 70.6282L56.1834 63.5277L55.8481 59.7713H72.5005Z" fill="#EBEBEB"/>
<path d="M26.7442 123.255L16.5625 9.0625H128.439L118.244 123.236L72.4328 135.938L26.7442 123.255Z" fill="#E44F26"/>
<path d="M72.5 126.232L109.52 115.968L118.229 18.4014H72.5V126.232Z" fill="#F1662A"/>
<path d="M72.5 60.7508H53.9672L52.6894 46.4094H72.5V32.4033H37.3828L37.7181 36.1643L41.1573 74.7569H72.5V60.7508ZM72.5 97.1232L72.4366 97.1413L56.84 92.9318L55.8431 81.7622H41.7827L43.7447 103.748L72.4366 111.714L72.5 111.696V97.1232Z" fill="#EBEBEB"/>
<path d="M72.4492 60.7508V74.7569H89.6952L88.073 92.9227L72.4492 97.1368V111.709L101.164 103.748L101.372 101.383L104.662 64.5118L105.006 60.7508H72.4492ZM72.4492 32.4033V46.4094H106.28L106.56 43.2647L107.199 36.1643L107.535 32.4033H72.4492Z" fill="white"/>
<g clip-path="url(#clip1_2432_3715)">
<path d="M111.016 0H33.9844C15.2153 0 0 15.2153 0 33.9844V111.016C0 129.785 15.2153 145 33.9844 145H111.016C129.785 145 145 129.785 145 111.016V33.9844C145 15.2153 129.785 0 111.016 0Z" fill="#242938"/>
<path fill-rule="evenodd" clip-rule="evenodd" d="M122.257 44.3571C122.293 44.4948 122.312 44.6369 122.312 44.7802V66.9828C122.312 67.2677 122.238 67.5475 122.097 67.7939C121.957 68.0398 121.755 68.2444 121.51 68.3869L103.132 79.1158V100.381C103.133 100.665 103.06 100.943 102.92 101.19C102.78 101.436 102.578 101.642 102.334 101.786L63.9727 124.179C63.885 124.229 63.7892 124.262 63.6935 124.296C63.6573 124.309 63.6238 124.331 63.5859 124.341C63.3177 124.412 63.0356 124.412 62.7674 124.341C62.7238 124.329 62.6836 124.304 62.6417 124.288C62.5539 124.256 62.4621 124.228 62.3783 124.179L24.0247 101.786C23.7805 101.643 23.5781 101.439 23.4379 101.193C23.2969 100.946 23.2227 100.666 23.2227 100.381V33.7738C23.2227 33.6277 23.2425 33.4861 23.2787 33.349C23.2901 33.302 23.3184 33.2595 23.3342 33.2131C23.3643 33.1281 23.392 33.0415 23.4362 32.9622C23.4662 32.9095 23.5098 32.867 23.5461 32.8189C23.5914 32.7537 23.6339 32.6869 23.6877 32.6302C23.733 32.5838 23.7936 32.5493 23.8451 32.509C23.9029 32.4603 23.955 32.4076 24.0207 32.3691H24.023L43.1998 21.173C43.4421 21.0316 43.7176 20.957 43.9982 20.957C44.2787 20.957 44.5542 21.0316 44.7965 21.173L63.9744 32.3691H63.9784C64.0419 32.4099 64.0962 32.4603 64.154 32.5068C64.2055 32.5476 64.2633 32.5838 64.3092 32.6285C64.3653 32.6869 64.4055 32.7537 64.4531 32.8189C64.487 32.867 64.5329 32.9095 64.5607 32.9622C64.6066 33.0432 64.6326 33.1281 64.6649 33.2131C64.6808 33.2595 64.7085 33.302 64.7204 33.3507C64.7572 33.4889 64.7759 33.6311 64.7765 33.7738V75.3764L80.7571 66.0459V44.7774C80.7571 44.6358 80.7769 44.4925 80.8131 44.3571C80.8273 44.3084 80.8528 44.2659 80.8692 44.2195C80.9009 44.1345 80.9287 44.0473 80.9729 43.9686C81.0029 43.9159 81.0465 43.8734 81.0805 43.8247C81.1286 43.7601 81.1683 43.6933 81.2243 43.6367C81.2702 43.5902 81.328 43.5557 81.3801 43.5149C81.4396 43.4667 81.4917 43.4141 81.5557 43.3755H81.558L100.738 32.1788C100.98 32.0371 101.255 31.9624 101.536 31.9624C101.816 31.9624 102.092 32.0371 102.334 32.1788L121.512 43.3755C121.58 43.4163 121.631 43.4662 121.691 43.5132C121.741 43.5534 121.799 43.5902 121.845 43.6344C121.901 43.6933 121.94 43.7601 121.989 43.8247C122.024 43.8734 122.068 43.9153 122.096 43.9686C122.142 44.0479 122.168 44.1345 122.2 44.2195C122.218 44.2659 122.245 44.3084 122.257 44.3571ZM119.115 66.0459V47.5828L112.404 51.5001L103.132 56.9132V75.3764L119.117 66.0459H119.115ZM99.9373 99.4447V80.9696L90.8176 86.2514L64.7748 101.323V119.972L99.9373 99.4447ZM26.4195 36.5764V99.4447L61.578 119.97V101.325L43.2106 90.7837L43.2049 90.7798L43.1964 90.7758C43.1347 90.7396 43.0831 90.6869 43.0248 90.6421C42.9749 90.6019 42.9172 90.5696 42.8736 90.5249L42.8696 90.5192C42.8175 90.4682 42.7812 90.4059 42.7376 90.3487C42.698 90.2944 42.6498 90.2479 42.6181 90.1913L42.6158 90.185C42.5796 90.1244 42.5575 90.0514 42.532 89.9828C42.506 89.9222 42.472 89.8656 42.4561 89.8005V89.7982C42.4363 89.7217 42.4323 89.6407 42.4238 89.5614C42.4159 89.5008 42.4 89.4402 42.4 89.3796V45.9074L33.1308 40.492L26.4195 36.5781V36.5764ZM44.0007 24.4468L28.0224 33.7744L43.9967 43.1008L59.9734 33.7721L43.9967 24.4474L44.0007 24.4468ZM52.3104 82.653L61.5803 77.2421V36.5764L54.8683 40.4942L45.5974 45.9068V86.5731L52.3104 82.653ZM101.536 35.4532L85.5591 44.7802L101.536 54.1067L117.511 44.778L101.536 35.4532ZM99.9373 56.9132L90.6658 51.5001L83.955 47.5828V66.0459L93.2242 71.4568L99.9373 75.3764V56.9132ZM63.1747 98.5203L86.6086 84.9537L98.323 78.175L82.3583 68.8542L63.9767 79.5853L47.2236 89.3655L63.1747 98.5203Z" fill="#FF2D20"/>
</g>
</g>
<defs>
<clipPath id="clip0_2432_3715">
<rect width="145" height="145" rx="30" fill="white"/>
</clipPath>
<clipPath id="clip1_2432_3715">
<rect width="145" height="145" fill="white"/>
</clipPath>
</defs>
</svg>
