<svg width="145" height="145" viewBox="0 0 145 145" fill="none" xmlns="http://www.w3.org/2000/svg">
<g clip-path="url(#clip0_2432_3679)">
<path d="M120.928 0H24.0723C10.7775 0 0 11.0362 0 24.65V120.118C0 133.732 10.7775 144.768 24.0723 144.768H120.928C134.222 144.768 145 133.732 145 120.118V24.65C145 11.0362 134.222 0 120.928 0Z" fill="#001E36"/>
<path d="M32.6484 101.52V37.8718C32.6484 37.4078 32.8433 37.1747 33.2324 37.1747L33.8481 37.1729L34.9005 37.1613L36.3629 37.1318L41.2623 37.0256L46.5158 36.9259C48.3634 36.8934 50.1951 36.876 52.011 36.876C56.9388 36.876 61.0888 37.507 64.4618 38.7685C67.5043 39.8224 70.2791 41.5577 72.584 43.8482C74.538 45.8337 76.0481 48.2297 77.0099 50.8708C77.9199 53.4409 78.381 56.1549 78.3721 58.8887C78.3721 64.2021 77.1719 68.5846 74.7726 72.0367C72.4259 75.4046 69.1526 77.9803 65.3703 79.4352L65.0457 79.557C61.0962 81.0656 56.7224 81.6108 51.9255 81.645L51.1801 81.6473L50.0739 81.6415L49.516 81.6334L48.8941 81.6183L48.5191 81.6033L48.2914 81.5911L47.7313 81.5702L47.0465 81.5557L46.0156 81.5482L45.7862 81.5476V101.42C45.8033 101.542 45.7924 101.666 45.7544 101.783C45.7164 101.9 45.6524 102.006 45.5674 102.093C45.4825 102.18 45.3789 102.245 45.2648 102.284C45.1508 102.323 45.0295 102.334 44.9106 102.317H33.3298C32.875 102.317 32.6484 102.052 32.6484 101.52ZM45.7868 49.1273V69.8867C46.5631 69.9508 47.3416 69.9841 48.1204 69.9864H51.3308C53.5442 69.9788 55.7447 69.6414 57.8631 68.9848L58.2857 68.8496C60.2129 68.2634 61.935 67.1223 63.2468 65.5622C64.4657 64.0902 65.0973 62.0619 65.1409 59.4768L65.1437 59.1874C65.1947 57.2607 64.7053 55.3594 63.7328 53.7093C62.7107 52.1135 61.2334 50.8787 59.5018 50.1731C57.2406 49.2732 54.8254 48.8498 52.4007 48.9284L51.1671 48.9319L50.3888 48.9388L49.6463 48.9487L48.5984 48.9696L47.8338 48.9916L47.4367 49.0067L46.906 49.0322L46.454 49.0606L46.1963 49.0815L45.9737 49.1035L45.8757 49.1151L45.7868 49.1273ZM115.982 66.112C114.285 65.2191 112.485 64.5484 110.624 64.1157L110.194 64.0206C108.147 63.5396 106.058 63.2747 103.958 63.23L103.434 63.2236C102.203 63.1895 100.974 63.3406 99.7863 63.672C99.03 63.8442 98.3577 64.2851 97.8888 64.9167C97.5718 65.4219 97.4032 66.0097 97.4028 66.6103C97.4206 67.1927 97.6257 67.7527 97.9862 68.2035C98.5025 68.8218 99.1231 69.3398 99.8186 69.733L100.029 69.8472C101.416 70.6119 102.845 71.2936 104.309 71.8888C107.574 73.0079 110.693 74.5298 113.598 76.421C115.578 77.7002 117.216 79.463 118.365 81.5511C119.331 83.5279 119.815 85.715 119.775 87.9253C119.834 90.8443 119.019 93.7118 117.441 96.1433C115.751 98.6112 113.404 100.53 110.68 101.671C107.827 102.955 104.323 103.618 100.169 103.661L99.7376 103.664C97.1624 103.69 94.5908 103.459 92.0594 102.975L91.5179 102.867C89.3865 102.466 87.3118 101.797 85.3412 100.874C85.1432 100.77 84.9758 100.613 84.8562 100.42C84.7366 100.228 84.669 100.006 84.6604 99.7781V88.9217C84.6487 88.8163 84.6652 88.7097 84.7081 88.6131C84.751 88.5166 84.8187 88.4338 84.9039 88.3736C84.9875 88.3253 85.0834 88.3042 85.1789 88.3131C85.2744 88.322 85.365 88.3605 85.4386 88.4235C87.7658 89.8287 90.2927 90.8537 92.9282 91.4615C95.2514 92.0579 97.6344 92.3756 100.029 92.4081C102.298 92.4081 103.968 92.1088 105.039 91.5114C105.522 91.2848 105.931 90.9196 106.216 90.46C106.501 90.0004 106.649 89.4661 106.644 88.9217C106.644 88.0598 106.157 87.2293 105.185 86.4318C104.777 86.0977 104.192 85.734 103.431 85.3414L103.066 85.1581L102.678 84.9707L102.474 84.8756L102.047 84.6819C101.973 84.6488 101.898 84.6159 101.824 84.5833L101.36 84.3838L101.118 84.2823L100.616 84.0764L100.356 83.972L99.8157 83.7591L99.251 83.5428C96.1967 82.4542 93.3007 80.9464 90.6422 79.0605C88.7409 77.7064 87.1754 75.9156 86.0707 73.8313C85.1142 71.8685 84.6306 69.6997 84.6604 67.5064C84.655 64.8709 85.3619 62.2854 86.7029 60.036C88.2322 57.5594 90.4275 55.5874 93.0256 54.3589C95.8786 52.8991 99.4447 52.1683 103.725 52.1671C106.232 52.1465 108.737 52.3298 111.215 52.7152C113.01 52.9483 114.765 53.4343 116.43 54.1594C116.697 54.2383 116.913 54.4407 117.013 54.7075C117.079 54.9505 117.112 55.2017 117.11 55.4545V65.5146C117.125 65.7524 117.013 65.9804 116.819 66.112C116.689 66.1782 116.545 66.2127 116.4 66.2127C116.255 66.2127 116.112 66.1782 115.982 66.112Z" fill="#31A8FF"/>
</g>
<rect x="0.5" y="0.5" width="144" height="144" rx="29.5" stroke="white"/>
<defs>
<clipPath id="clip0_2432_3679">
<rect width="145" height="145" rx="30" fill="white"/>
</clipPath>
</defs>
</svg>
