<svg width="72" height="72" viewBox="0 0 72 72" fill="none" xmlns="http://www.w3.org/2000/svg">
<g filter="url(#filter0_d_2414_11332)">
<rect x="4" width="64" height="64" rx="32" fill="white"/>
<g clip-path="url(#clip0_2414_11332)">
<path d="M25.3333 23.9997V37.333H32V31.9997C32 31.2924 32.281 30.6142 32.781 30.1141C33.2811 29.614 33.9594 29.333 34.6667 29.333H41.3333C42.0406 29.333 42.7189 29.614 43.219 30.1141C43.719 30.6142 44 31.2924 44 31.9997V37.333H46.6667V23.9997H25.3333ZM20 42.6663V39.9997H25.3333C24.6261 39.9997 23.9478 39.7187 23.4477 39.2186C22.9476 38.7185 22.6667 38.0403 22.6667 37.333V23.9997C22.6667 23.2924 22.9476 22.6142 23.4477 22.1141C23.9478 21.614 24.6261 21.333 25.3333 21.333H46.6667C47.3739 21.333 48.0522 21.614 48.5523 22.1141C49.0524 22.6142 49.3333 23.2924 49.3333 23.9997V37.333C49.3333 38.0403 49.0524 38.7185 48.5523 39.2186C48.0522 39.7187 47.3739 39.9997 46.6667 39.9997H52V42.6663H44C44 43.3736 43.719 44.0519 43.219 44.552C42.7189 45.0521 42.0406 45.333 41.3333 45.333H34.6667C33.9594 45.333 33.2811 45.0521 32.781 44.552C32.281 44.0519 32 43.3736 32 42.6663H20ZM35.3333 42.6663C35.1565 42.6663 34.987 42.7366 34.8619 42.8616C34.7369 42.9866 34.6667 43.1562 34.6667 43.333C34.6667 43.5098 34.7369 43.6794 34.8619 43.8044C34.987 43.9294 35.1565 43.9997 35.3333 43.9997C35.5101 43.9997 35.6797 43.9294 35.8047 43.8044C35.9298 43.6794 36 43.5098 36 43.333C36 43.1562 35.9298 42.9866 35.8047 42.8616C35.6797 42.7366 35.5101 42.6663 35.3333 42.6663ZM40.6667 42.6663C40.4899 42.6663 40.3203 42.7366 40.1953 42.8616C40.0702 42.9866 40 43.1562 40 43.333C40 43.5098 40.0702 43.6794 40.1953 43.8044C40.3203 43.9294 40.4899 43.9997 40.6667 43.9997C40.8435 43.9997 41.013 43.9294 41.1381 43.8044C41.2631 43.6794 41.3333 43.5098 41.3333 43.333C41.3333 43.1562 41.2631 42.9866 41.1381 42.8616C41.013 42.7366 40.8435 42.6663 40.6667 42.6663ZM37.3333 42.6663V43.9997H38.6667V42.6663H37.3333ZM34.6667 31.9997V41.333H41.3333V31.9997H34.6667Z" fill="black"/>
</g>
</g>
<defs>
<filter id="filter0_d_2414_11332" x="0" y="0" width="72" height="72" filterUnits="userSpaceOnUse" color-interpolation-filters="sRGB">
<feFlood flood-opacity="0" result="BackgroundImageFix"/>
<feColorMatrix in="SourceAlpha" type="matrix" values="0 0 0 0 0 0 0 0 0 0 0 0 0 0 0 0 0 0 127 0" result="hardAlpha"/>
<feOffset dy="4"/>
<feGaussianBlur stdDeviation="2"/>
<feComposite in2="hardAlpha" operator="out"/>
<feColorMatrix type="matrix" values="0 0 0 0 0 0 0 0 0 0 0 0 0 0 0 0 0 0 0.25 0"/>
<feBlend mode="normal" in2="BackgroundImageFix" result="effect1_dropShadow_2414_11332"/>
<feBlend mode="normal" in="SourceGraphic" in2="effect1_dropShadow_2414_11332" result="shape"/>
</filter>
<clipPath id="clip0_2414_11332">
<rect width="32" height="32" fill="white" transform="translate(20 16)"/>
</clipPath>
</defs>
</svg>
