<svg width="145" height="145" viewBox="0 0 145 145" fill="none" xmlns="http://www.w3.org/2000/svg">
<g clip-path="url(#clip0_2414_12077)">
<path d="M111.016 0H33.9844C15.2153 0 0 15.2153 0 33.9844V111.016C0 129.785 15.2153 145 33.9844 145H111.016C129.785 145 145 129.785 145 111.016V33.9844C145 15.2153 129.785 0 111.016 0Z" fill="#242938"/>
<mask id="mask0_2414_12077" style="mask-type:luminance" maskUnits="userSpaceOnUse" x="34" y="15" width="77" height="115">
<path d="M34.5508 15.8594H110.087V129.141H34.5508V15.8594Z" fill="white"/>
</mask>
<g mask="url(#mask0_2414_12077)">
<path d="M53.4392 129.141C63.8611 129.141 72.3192 120.682 72.3192 110.26V91.3799H53.4392C43.0173 91.3799 34.5586 99.8386 34.5586 110.26C34.5586 120.682 43.0173 129.141 53.4392 129.141Z" fill="#0ACF83"/>
<path d="M34.5586 72.5001C34.5586 62.0783 43.0173 53.6201 53.4392 53.6201H72.3192V91.3802H53.4392C43.0173 91.3802 34.5586 82.922 34.5586 72.5001Z" fill="#A259FF"/>
<path d="M34.5586 34.7394C34.5586 24.3175 43.0173 15.8594 53.4392 15.8594H72.3192V53.62H53.4392C43.0173 53.62 34.5586 45.1613 34.5586 34.7394Z" fill="#F24E1E"/>
<path d="M72.3203 15.8594H91.2003C101.622 15.8594 110.081 24.3175 110.081 34.7394C110.081 45.1613 101.622 53.62 91.2003 53.62H72.3203V15.8594Z" fill="#FF7262"/>
<path d="M110.081 72.5001C110.081 82.922 101.622 91.3802 91.2003 91.3802C80.7785 91.3802 72.3203 82.922 72.3203 72.5001C72.3203 62.0783 80.7785 53.6201 91.2003 53.6201C101.622 53.6201 110.081 62.0783 110.081 72.5001Z" fill="#1ABCFE"/>
</g>
<g clip-path="url(#clip1_2414_12077)">
<path d="M120.928 -0.747559H24.0723C10.7775 -0.747559 0 10.2886 0 23.9024V119.37C0 132.984 10.7775 144.02 24.0723 144.02H120.928C134.222 144.02 145 132.984 145 119.37V23.9024C145 10.2886 134.222 -0.747559 120.928 -0.747559Z" fill="#470137"/>
<path d="M76.2247 37.3239L58.132 67.9032L77.489 100.375C77.6136 100.602 77.6481 100.869 77.5864 101.122C77.5564 101.229 77.4918 101.256 77.3927 101.26L77.2828 101.258L77.1491 101.255C77.0766 101.255 76.9956 101.258 76.9056 101.274H62.9493L62.6752 101.269C61.923 101.249 61.3809 101.138 61.0507 100.573C59.7594 97.9974 58.4623 95.4243 57.1595 92.8542C55.9942 90.562 54.797 88.2868 53.5685 86.0294L53.0259 85.0353C51.5565 82.361 50.1136 79.6716 48.6974 76.9675H48.6C47.2922 79.6434 45.9464 82.2997 44.5632 84.9355C43.1681 87.5919 41.7901 90.2321 40.429 92.8542C39.0671 95.4785 37.6729 98.0851 36.2467 100.673C36.0173 101.201 35.6361 101.311 35.1053 101.329L34.8845 101.333H21.5586L21.5008 101.334L21.3105 101.352C21.2046 101.358 21.1412 101.335 21.1208 101.171C21.0842 100.929 21.1362 100.68 21.2669 100.474L40.0399 68.8991L21.7529 37.2253C21.5586 36.9608 21.5263 36.745 21.6555 36.578C21.7272 36.4929 21.8174 36.4261 21.9187 36.3828C22.0201 36.3395 22.1299 36.321 22.2394 36.3286H35.9544C36.2535 36.3118 36.5525 36.3629 36.8301 36.4782C37.0623 36.6134 37.2622 36.8007 37.4135 37.0263C38.5808 39.6827 39.8779 42.3391 41.3047 44.9944C42.7204 47.6329 44.1633 50.256 45.6331 52.8632C47.0805 55.4301 48.4272 58.0552 49.6699 60.7321H49.7673C51.041 58.0558 52.3542 55.3995 53.7067 52.7641C55.0349 50.1744 56.3971 47.5673 57.7916 44.9445C59.1684 42.3554 60.5141 39.7491 61.8284 37.1261C61.9032 36.8802 62.0368 36.6575 62.2175 36.4782C62.4578 36.3537 62.7277 36.3018 62.9958 36.3286H75.7382C75.8553 36.2987 75.9788 36.3086 76.09 36.3567C76.2012 36.4048 76.2942 36.4886 76.3548 36.5955C76.4155 36.7024 76.4407 36.8266 76.4265 36.9493C76.4123 37.0721 76.3596 37.1869 76.2763 37.2763L76.2253 37.325L76.2247 37.3239ZM104.811 102.558L104.141 102.566C99.6634 102.636 95.2272 101.683 91.1546 99.7771C87.3608 97.9791 84.1893 95.044 82.0599 91.3602C79.9126 87.7085 78.8104 83.1578 78.7549 77.7099L78.7526 77.2662C78.7162 72.6946 79.8571 68.1941 82.0604 64.2179C84.2655 60.2825 87.4802 57.0399 91.3563 54.8416L91.6899 54.656C95.904 52.2653 100.995 51.0699 106.961 51.0699L107.222 51.0728L107.52 51.0826L107.854 51.0977L108.226 51.1198L108.85 51.165L109.557 51.223L110.074 51.2694V31.6468C110.074 31.1828 110.269 30.9497 110.657 30.9497H122.914C122.993 30.938 123.074 30.9455 123.15 30.9714C123.226 30.9973 123.295 31.0409 123.351 31.0989C123.408 31.1569 123.451 31.2276 123.476 31.3054C123.501 31.3832 123.508 31.4659 123.497 31.5471V90.4142C123.497 91.4025 123.534 92.4674 123.609 93.6065L123.79 96.1904L123.887 97.6851C123.899 97.8921 123.849 98.0979 123.745 98.2757C123.641 98.4535 123.487 98.595 123.303 98.6815C120.141 100.032 116.847 101.033 113.478 101.669C110.618 102.21 107.719 102.507 104.811 102.558ZM110.074 90.2147V63.0225C109.548 62.8768 109.011 62.7768 108.469 62.7238C107.806 62.6555 107.141 62.6222 106.475 62.6241C104.114 62.6001 101.782 63.1462 99.666 64.2179C97.6052 65.2669 95.8456 66.8457 94.5593 68.7999C93.2753 70.7232 92.6109 73.2346 92.5673 76.3341L92.565 76.6688C92.5177 78.8399 92.8639 81.0011 93.5862 83.043C94.1742 84.6885 95.1037 86.1839 96.3106 87.426C97.4656 88.5687 98.864 89.421 100.396 89.916C102.013 90.4524 103.704 90.7216 105.405 90.7135C106.312 90.7135 107.155 90.6798 107.934 90.6131C108.555 90.5653 109.171 90.4605 109.774 90.2999L110.074 90.2147Z" fill="#FF61F6"/>
</g>
</g>
<rect x="0.5" y="0.5" width="144" height="144" rx="29.5" stroke="white"/>
<defs>
<clipPath id="clip0_2414_12077">
<rect width="145" height="145" rx="30" fill="white"/>
</clipPath>
<clipPath id="clip1_2414_12077">
<rect width="145" height="145" fill="white" transform="translate(0 -0.747559)"/>
</clipPath>
</defs>
</svg>
