<svg width="758" height="476" viewBox="0 0 758 476" fill="none" xmlns="http://www.w3.org/2000/svg">
<rect x="616.5" y="399.5" width="91" height="52" rx="26" fill="#870F64"/>
<path d="M649.154 415.094L652.9 422.039L656.646 415.094H661.336L655.553 424.965L661.486 435H656.756L652.9 427.918L649.045 435H644.287L650.234 424.965L644.438 415.094H649.154ZM669.662 435H665.328L665.355 431.801H669.662C670.738 431.801 671.645 431.559 672.383 431.076C673.121 430.584 673.677 429.868 674.051 428.93C674.434 427.991 674.625 426.856 674.625 425.525V424.555C674.625 423.534 674.516 422.636 674.297 421.861C674.087 421.087 673.773 420.435 673.354 419.906C672.934 419.378 672.419 418.981 671.809 418.717C671.198 418.443 670.496 418.307 669.703 418.307H665.246V415.094H669.703C671.034 415.094 672.251 415.322 673.354 415.777C674.465 416.224 675.427 416.867 676.238 417.705C677.049 418.544 677.674 419.546 678.111 420.713C678.558 421.87 678.781 423.16 678.781 424.582V425.525C678.781 426.938 678.558 428.228 678.111 429.395C677.674 430.561 677.049 431.564 676.238 432.402C675.436 433.232 674.475 433.874 673.354 434.33C672.242 434.777 671.011 435 669.662 435ZM667.652 415.094V435H663.551V415.094H667.652Z" fill="white"/>
<rect x="616.5" y="399.5" width="91" height="52" rx="26" stroke="white"/>
<g clip-path="url(#clip0_2414_12313)">
<path d="M563.09 374.813C562.955 375.317 563.025 375.854 563.287 376.307C563.548 376.759 563.978 377.089 564.482 377.224L570.821 378.922C571.325 379.058 571.863 378.987 572.315 378.726C572.767 378.465 573.097 378.035 573.232 377.53C573.367 377.026 573.296 376.489 573.035 376.036C572.774 375.584 572.344 375.254 571.84 375.119L565.501 373.421C564.997 373.285 564.459 373.356 564.007 373.617C563.555 373.878 563.225 374.308 563.09 374.813ZM571.332 364.031C570.881 364.292 570.551 364.722 570.416 365.226C570.281 365.73 570.352 366.267 570.612 366.719L573.861 372.345C573.985 372.579 574.154 372.785 574.36 372.951C574.565 373.118 574.802 373.241 575.056 373.314C575.31 373.387 575.576 373.408 575.839 373.376C576.101 373.343 576.355 373.259 576.584 373.126C576.813 372.994 577.013 372.817 577.172 372.606C577.331 372.395 577.446 372.154 577.51 371.897C577.573 371.641 577.585 371.374 577.544 371.113C577.502 370.852 577.409 370.602 577.268 370.378L574.02 364.751C573.759 364.3 573.329 363.97 572.825 363.835C572.321 363.7 571.784 363.771 571.332 364.031ZM564.837 388.271C565.098 388.723 565.528 389.052 566.032 389.187C566.536 389.322 567.073 389.252 567.525 388.991L573.151 385.743C573.385 385.619 573.591 385.449 573.757 385.244C573.924 385.038 574.047 384.802 574.12 384.547C574.193 384.293 574.214 384.027 574.182 383.765C574.149 383.502 574.065 383.249 573.933 383.02C573.8 382.791 573.623 382.591 573.412 382.432C573.201 382.273 572.96 382.158 572.704 382.094C572.447 382.03 572.18 382.019 571.919 382.06C571.658 382.101 571.408 382.195 571.184 382.335L565.558 385.583C565.106 385.845 564.776 386.274 564.641 386.778C564.506 387.282 564.577 387.819 564.837 388.271ZM584.791 362.284C584.286 362.149 583.749 362.219 583.297 362.48C582.845 362.741 582.515 363.171 582.38 363.676L580.681 370.015C580.546 370.519 580.617 371.056 580.878 371.509C581.139 371.961 581.569 372.291 582.073 372.426C582.578 372.561 583.115 372.49 583.567 372.229C584.019 371.968 584.349 371.538 584.484 371.034L586.183 364.695C586.318 364.191 586.247 363.653 585.986 363.201C585.725 362.749 585.295 362.419 584.791 362.284ZM582.583 377.998C579.726 377.232 577.286 380.171 578.566 382.838L591.205 409.218C592.565 412.055 596.697 411.755 597.635 408.753L600.632 399.12C600.953 398.084 601.683 397.225 602.649 396.734L611.834 392.091C614.672 390.659 614.237 386.479 611.166 385.657L582.583 377.998Z" fill="white"/>
</g>
<g filter="url(#filter0_d_2414_12313)">
<rect x="4" y="415" width="135" height="53" rx="26.5" fill="#1DC9D3" shape-rendering="crispEdges"/>
<path d="M37.8789 431.094V451H33.7773V431.094H37.8789ZM45.8086 439.598V442.797H36.7578V439.598H45.8086ZM46.7656 431.094V434.307H36.7578V431.094H46.7656ZM53.0547 436.207V451H49.1035V436.207H53.0547ZM48.8574 432.352C48.8574 431.777 49.0579 431.303 49.459 430.93C49.86 430.556 50.3978 430.369 51.0723 430.369C51.7376 430.369 52.2708 430.556 52.6719 430.93C53.082 431.303 53.2871 431.777 53.2871 432.352C53.2871 432.926 53.082 433.4 52.6719 433.773C52.2708 434.147 51.7376 434.334 51.0723 434.334C50.3978 434.334 49.86 434.147 49.459 433.773C49.0579 433.4 48.8574 432.926 48.8574 432.352ZM65.6738 436.207H69.2422V450.508C69.2422 451.857 68.9414 453.001 68.3398 453.939C67.7474 454.887 66.918 455.603 65.8516 456.086C64.7852 456.578 63.5456 456.824 62.1328 456.824C61.513 456.824 60.8568 456.742 60.1641 456.578C59.4805 456.414 58.8242 456.159 58.1953 455.812C57.5755 455.466 57.056 455.029 56.6367 454.5L58.373 452.176C58.8288 452.704 59.3574 453.115 59.959 453.406C60.5605 453.707 61.2259 453.857 61.9551 453.857C62.666 453.857 63.2676 453.725 63.7598 453.461C64.252 453.206 64.6302 452.827 64.8945 452.326C65.1589 451.834 65.291 451.237 65.291 450.535V439.625L65.6738 436.207ZM55.7207 443.781V443.494C55.7207 442.364 55.8574 441.339 56.1309 440.418C56.4134 439.488 56.8099 438.691 57.3203 438.025C57.8398 437.36 58.4688 436.845 59.207 436.48C59.9453 436.116 60.7793 435.934 61.709 435.934C62.6934 435.934 63.5182 436.116 64.1836 436.48C64.849 436.845 65.3958 437.365 65.8242 438.039C66.2526 438.704 66.5853 439.493 66.8223 440.404C67.0684 441.307 67.2598 442.296 67.3965 443.371V444C67.2598 445.03 67.0547 445.987 66.7812 446.871C66.5078 447.755 66.1478 448.53 65.7012 449.195C65.2546 449.852 64.6986 450.362 64.0332 450.727C63.377 451.091 62.5931 451.273 61.6816 451.273C60.7702 451.273 59.9453 451.087 59.207 450.713C58.4779 450.339 57.8535 449.815 57.334 449.141C56.8145 448.466 56.4134 447.673 56.1309 446.762C55.8574 445.85 55.7207 444.857 55.7207 443.781ZM59.6582 443.494V443.781C59.6582 444.392 59.7174 444.962 59.8359 445.49C59.9544 446.019 60.1367 446.488 60.3828 446.898C60.638 447.299 60.9525 447.614 61.3262 447.842C61.709 448.061 62.1602 448.17 62.6797 448.17C63.3997 448.17 63.9876 448.02 64.4434 447.719C64.8991 447.409 65.2409 446.985 65.4688 446.447C65.6966 445.91 65.8288 445.29 65.8652 444.588V442.797C65.847 442.223 65.7695 441.708 65.6328 441.252C65.4961 440.787 65.3047 440.391 65.0586 440.062C64.8125 439.734 64.4935 439.479 64.1016 439.297C63.7096 439.115 63.2448 439.023 62.707 439.023C62.1875 439.023 61.7363 439.142 61.3535 439.379C60.9798 439.607 60.6654 439.921 60.4102 440.322C60.1641 440.723 59.9772 441.197 59.8496 441.744C59.722 442.282 59.6582 442.865 59.6582 443.494ZM76.2422 439.27V451H72.291V436.207H75.9961L76.2422 439.27ZM75.6953 443.084H74.6016C74.6016 442.054 74.7246 441.106 74.9707 440.24C75.2259 439.365 75.5951 438.609 76.0781 437.971C76.5703 437.324 77.1764 436.822 77.8965 436.467C78.6165 436.111 79.4505 435.934 80.3984 435.934C81.0547 435.934 81.6562 436.034 82.2031 436.234C82.75 436.426 83.2194 436.731 83.6113 437.15C84.0124 437.561 84.3223 438.098 84.541 438.764C84.7598 439.42 84.8691 440.208 84.8691 441.129V451H80.9316V441.566C80.9316 440.892 80.8405 440.372 80.6582 440.008C80.4759 439.643 80.2161 439.388 79.8789 439.242C79.5508 439.096 79.1543 439.023 78.6895 439.023C78.179 439.023 77.7324 439.128 77.3496 439.338C76.9759 439.548 76.666 439.839 76.4199 440.213C76.1738 440.577 75.9915 441.006 75.873 441.498C75.7546 441.99 75.6953 442.519 75.6953 443.084ZM84.5 442.633L83.0918 442.811C83.0918 441.844 83.2103 440.947 83.4473 440.117C83.6934 439.288 84.0534 438.559 84.5273 437.93C85.0104 437.301 85.6074 436.813 86.3184 436.467C87.0293 436.111 87.8496 435.934 88.7793 435.934C89.4902 435.934 90.1374 436.038 90.7207 436.248C91.304 436.449 91.8008 436.772 92.2109 437.219C92.6302 437.656 92.9492 438.23 93.168 438.941C93.3958 439.652 93.5098 440.523 93.5098 441.553V451H89.5586V441.553C89.5586 440.869 89.4674 440.35 89.2852 439.994C89.112 439.63 88.8568 439.379 88.5195 439.242C88.1914 439.096 87.7995 439.023 87.3438 439.023C86.8698 439.023 86.4551 439.119 86.0996 439.311C85.7441 439.493 85.4479 439.748 85.2109 440.076C84.974 440.404 84.7962 440.787 84.6777 441.225C84.5592 441.653 84.5 442.122 84.5 442.633ZM104.543 447.664V441.074C104.543 440.6 104.465 440.195 104.311 439.857C104.156 439.511 103.914 439.242 103.586 439.051C103.267 438.859 102.852 438.764 102.342 438.764C101.904 438.764 101.526 438.841 101.207 438.996C100.888 439.142 100.642 439.356 100.469 439.639C100.296 439.912 100.209 440.236 100.209 440.609H96.2715C96.2715 439.98 96.4173 439.383 96.709 438.818C97.0007 438.253 97.4245 437.757 97.9805 437.328C98.5365 436.891 99.1973 436.549 99.9629 436.303C100.738 436.057 101.604 435.934 102.561 435.934C103.709 435.934 104.73 436.125 105.623 436.508C106.516 436.891 107.218 437.465 107.729 438.23C108.248 438.996 108.508 439.953 108.508 441.102V447.432C108.508 448.243 108.558 448.908 108.658 449.428C108.758 449.938 108.904 450.385 109.096 450.768V451H105.117C104.926 450.599 104.78 450.098 104.68 449.496C104.589 448.885 104.543 448.275 104.543 447.664ZM105.062 441.99L105.09 444.219H102.889C102.369 444.219 101.918 444.278 101.535 444.396C101.152 444.515 100.838 444.684 100.592 444.902C100.346 445.112 100.163 445.358 100.045 445.641C99.9355 445.923 99.8809 446.233 99.8809 446.57C99.8809 446.908 99.9583 447.213 100.113 447.486C100.268 447.751 100.492 447.96 100.783 448.115C101.075 448.261 101.417 448.334 101.809 448.334C102.401 448.334 102.916 448.215 103.354 447.979C103.791 447.742 104.128 447.45 104.365 447.104C104.611 446.757 104.739 446.429 104.748 446.119L105.787 447.787C105.641 448.161 105.441 448.548 105.186 448.949C104.939 449.35 104.625 449.729 104.242 450.084C103.859 450.43 103.399 450.717 102.861 450.945C102.324 451.164 101.686 451.273 100.947 451.273C100.008 451.273 99.1562 451.087 98.3906 450.713C97.6341 450.33 97.0326 449.806 96.5859 449.141C96.1484 448.466 95.9297 447.701 95.9297 446.844C95.9297 446.069 96.0755 445.381 96.3672 444.779C96.6589 444.178 97.0872 443.672 97.6523 443.262C98.2266 442.842 98.9421 442.528 99.7988 442.318C100.656 442.1 101.649 441.99 102.779 441.99H105.062Z" fill="#032038"/>
<rect x="4.5" y="415.5" width="134" height="52" rx="26" stroke="white" shape-rendering="crispEdges"/>
</g>
<g clip-path="url(#clip1_2414_12313)">
<path d="M175.346 373.092C174.842 372.957 174.304 373.028 173.852 373.289C173.4 373.55 173.07 373.98 172.935 374.484L171.236 380.823C171.101 381.328 171.172 381.865 171.433 382.317C171.694 382.769 172.124 383.099 172.628 383.234C173.133 383.37 173.67 383.299 174.122 383.038C174.574 382.777 174.904 382.347 175.04 381.842L176.738 375.503C176.873 374.999 176.802 374.462 176.541 374.01C176.28 373.557 175.85 373.227 175.346 373.092ZM186.127 381.335C185.866 380.883 185.437 380.554 184.933 380.419C184.429 380.284 183.892 380.354 183.44 380.615L177.814 383.863C177.58 383.987 177.374 384.157 177.208 384.362C177.041 384.568 176.918 384.804 176.845 385.059C176.772 385.313 176.751 385.579 176.783 385.841C176.815 386.104 176.9 386.357 177.032 386.586C177.164 386.815 177.341 387.015 177.553 387.174C177.764 387.333 178.005 387.448 178.261 387.512C178.518 387.576 178.785 387.587 179.046 387.546C179.307 387.505 179.557 387.411 179.781 387.271L185.407 384.023C185.859 383.761 186.189 383.332 186.324 382.828C186.459 382.324 186.388 381.787 186.127 381.335ZM161.888 374.84C161.436 375.101 161.106 375.531 160.971 376.035C160.836 376.539 160.907 377.075 161.167 377.527L164.416 383.154C164.54 383.387 164.709 383.593 164.915 383.76C165.12 383.926 165.357 384.049 165.611 384.122C165.865 384.195 166.132 384.216 166.394 384.184C166.656 384.152 166.91 384.067 167.139 383.935C167.368 383.803 167.568 383.626 167.727 383.415C167.886 383.204 168.001 382.962 168.065 382.706C168.129 382.449 168.14 382.183 168.099 381.921C168.057 381.66 167.964 381.41 167.824 381.186L164.575 375.56C164.314 375.108 163.884 374.779 163.38 374.644C162.876 374.509 162.34 374.579 161.888 374.84ZM187.875 394.793C188.01 394.289 187.939 393.751 187.678 393.299C187.417 392.847 186.987 392.517 186.483 392.382L180.144 390.684C179.64 390.548 179.102 390.619 178.65 390.88C178.198 391.141 177.868 391.571 177.733 392.076C177.598 392.58 177.668 393.117 177.929 393.57C178.191 394.022 178.621 394.352 179.125 394.487L185.464 396.185C185.968 396.32 186.506 396.25 186.958 395.989C187.41 395.728 187.74 395.298 187.875 394.793ZM172.161 392.586C172.927 389.728 169.988 387.288 167.321 388.568L140.941 401.208C138.103 402.567 138.404 406.7 141.406 407.637L151.038 410.634C152.075 410.955 152.933 411.685 153.425 412.651L158.067 421.836C159.5 424.674 163.679 424.239 164.502 421.169L172.161 392.586Z" fill="white"/>
</g>
<path d="M166.854 103.93H212.193C221.489 103.93 229.477 105.321 236.156 108.104C242.892 110.888 248.068 115.007 251.687 120.462C255.305 125.917 257.114 132.625 257.114 140.584C257.114 147.097 256 152.691 253.774 157.367C251.603 161.987 248.514 165.856 244.506 168.973C240.554 172.035 235.906 174.484 230.562 176.321L222.63 180.496H183.22L183.053 160.958H212.36C216.757 160.958 220.403 160.178 223.298 158.62C226.192 157.061 228.363 154.89 229.811 152.107C231.313 149.324 232.065 146.095 232.065 142.421C232.065 138.525 231.341 135.157 229.894 132.318C228.447 129.479 226.248 127.309 223.298 125.806C220.348 124.303 216.646 123.551 212.193 123.551H191.903V225.5H166.854V103.93ZM234.82 225.5L207.1 171.311L233.568 171.144L261.623 224.331V225.5H234.82Z" fill="white"/>
<path d="M337.49 105.93V227.5H312.524V105.93H337.49Z" fill="white"/>
<rect x="284.5" y="70" width="82" height="199" stroke="white"/>
<circle cx="285" cy="70.5" r="3" fill="white"/>
<circle cx="367" cy="70.5" r="3" fill="white"/>
<circle cx="285" cy="267.5" r="3" fill="white"/>
<circle cx="367" cy="267.5" r="3" fill="white"/>
<path d="M460.145 193.688C460.145 191.517 459.811 189.569 459.143 187.843C458.53 186.062 457.361 184.448 455.636 183C453.91 181.498 451.489 180.022 448.372 178.575C445.254 177.128 441.219 175.625 436.265 174.066C430.754 172.285 425.521 170.281 420.567 168.055C415.669 165.828 411.327 163.24 407.542 160.29C403.812 157.284 400.862 153.805 398.691 149.853C396.576 145.9 395.519 141.308 395.519 136.076C395.519 131.01 396.632 126.418 398.858 122.299C401.085 118.124 404.202 114.562 408.21 111.611C412.218 108.605 416.949 106.295 422.404 104.681C427.915 103.067 433.955 102.26 440.523 102.26C449.485 102.26 457.306 103.874 463.985 107.103C470.665 110.331 475.842 114.756 479.516 120.378C483.245 126 485.11 132.43 485.11 139.666H460.228C460.228 136.104 459.477 132.986 457.974 130.314C456.526 127.587 454.3 125.444 451.294 123.885C448.344 122.327 444.614 121.547 440.105 121.547C435.764 121.547 432.146 122.215 429.251 123.551C426.356 124.832 424.186 126.585 422.738 128.812C421.291 130.982 420.567 133.432 420.567 136.159C420.567 138.219 421.068 140.083 422.07 141.753C423.128 143.423 424.687 144.982 426.746 146.429C428.806 147.876 431.338 149.24 434.344 150.521C437.35 151.801 440.829 153.053 444.781 154.278C451.405 156.282 457.222 158.536 462.232 161.041C467.297 163.546 471.528 166.357 474.923 169.474C478.319 172.591 480.879 176.126 482.605 180.078C484.331 184.03 485.193 188.511 485.193 193.521C485.193 198.809 484.164 203.541 482.104 207.715C480.044 211.89 477.066 215.425 473.17 218.319C469.273 221.214 464.625 223.413 459.226 224.916C453.827 226.418 447.787 227.17 441.107 227.17C435.096 227.17 429.167 226.391 423.323 224.832C417.478 223.218 412.162 220.796 407.375 217.568C402.644 214.339 398.858 210.22 396.02 205.21C393.181 200.201 391.761 194.272 391.761 187.426H416.894C416.894 191.211 417.478 194.412 418.647 197.028C419.816 199.644 421.458 201.759 423.573 203.374C425.744 204.988 428.305 206.157 431.255 206.88C434.261 207.604 437.545 207.966 441.107 207.966C445.449 207.966 449.012 207.354 451.795 206.129C454.634 204.904 456.721 203.207 458.057 201.036C459.449 198.865 460.145 196.416 460.145 193.688Z" fill="white"/>
<path d="M584.284 124.72L551.22 225.5H524.584L569.756 103.93H586.706L584.284 124.72ZM611.754 225.5L578.606 124.72L575.935 103.93H593.051L638.473 225.5H611.754ZM610.251 180.245V199.867H546.043V180.245H610.251Z" fill="white"/>
<rect x="451.5" y="11.5" width="306" height="76" rx="38" fill="#FFB6B6"/>
<path d="M482.359 24.625V36H480.016V24.625H482.359ZM486.891 29.4844V31.3125H481.719V29.4844H486.891ZM487.438 24.625V26.4609H481.719V24.625H487.438ZM491.031 27.5469V36H488.773V27.5469H491.031ZM488.633 25.3438C488.633 25.0156 488.747 24.7448 488.977 24.5312C489.206 24.3177 489.513 24.2109 489.898 24.2109C490.279 24.2109 490.583 24.3177 490.812 24.5312C491.047 24.7448 491.164 25.0156 491.164 25.3438C491.164 25.6719 491.047 25.9427 490.812 26.1562C490.583 26.3698 490.279 26.4766 489.898 26.4766C489.513 26.4766 489.206 26.3698 488.977 26.1562C488.747 25.9427 488.633 25.6719 488.633 25.3438ZM495.094 29.3516V36H492.844V27.5469H494.953L495.094 29.3516ZM494.766 31.4766H494.156C494.156 30.8516 494.237 30.2891 494.398 29.7891C494.56 29.2839 494.786 28.8542 495.078 28.5C495.37 28.1406 495.716 27.8672 496.117 27.6797C496.523 27.487 496.977 27.3906 497.477 27.3906C497.872 27.3906 498.234 27.4479 498.562 27.5625C498.891 27.6771 499.172 27.8594 499.406 28.1094C499.646 28.3594 499.828 28.6901 499.953 29.1016C500.083 29.513 500.148 30.0156 500.148 30.6094V36H497.883V30.6016C497.883 30.2266 497.831 29.9349 497.727 29.7266C497.622 29.5182 497.469 29.3724 497.266 29.2891C497.068 29.2005 496.823 29.1562 496.531 29.1562C496.229 29.1562 495.966 29.2161 495.742 29.3359C495.523 29.4557 495.341 29.6224 495.195 29.8359C495.055 30.0443 494.948 30.2891 494.875 30.5703C494.802 30.8516 494.766 31.1536 494.766 31.4766ZM506.852 34.1562V24H509.117V36H507.078L506.852 34.1562ZM501.508 31.875V31.7109C501.508 31.0651 501.581 30.4792 501.727 29.9531C501.872 29.4219 502.086 28.9661 502.367 28.5859C502.648 28.2057 502.995 27.9115 503.406 27.7031C503.818 27.4948 504.286 27.3906 504.812 27.3906C505.307 27.3906 505.74 27.4948 506.109 27.7031C506.484 27.9115 506.802 28.2083 507.062 28.5938C507.328 28.974 507.542 29.4245 507.703 29.9453C507.865 30.4609 507.982 31.026 508.055 31.6406V32C507.982 32.5885 507.865 33.1354 507.703 33.6406C507.542 34.1458 507.328 34.5885 507.062 34.9688C506.802 35.3438 506.484 35.6354 506.109 35.8438C505.734 36.0521 505.297 36.1562 504.797 36.1562C504.271 36.1562 503.802 36.0495 503.391 35.8359C502.984 35.6224 502.641 35.3229 502.359 34.9375C502.083 34.5521 501.872 34.099 501.727 33.5781C501.581 33.0573 501.508 32.4896 501.508 31.875ZM503.758 31.7109V31.875C503.758 32.224 503.784 32.5495 503.836 32.8516C503.893 33.1536 503.984 33.4219 504.109 33.6562C504.24 33.8854 504.406 34.0651 504.609 34.1953C504.818 34.3203 505.07 34.3828 505.367 34.3828C505.753 34.3828 506.07 34.2969 506.32 34.125C506.57 33.9479 506.76 33.7057 506.891 33.3984C507.026 33.0911 507.104 32.737 507.125 32.3359V31.3125C507.109 30.9844 507.062 30.6901 506.984 30.4297C506.911 30.1641 506.802 29.9375 506.656 29.75C506.516 29.5625 506.339 29.4167 506.125 29.3125C505.917 29.2083 505.669 29.1562 505.383 29.1562C505.091 29.1562 504.841 29.224 504.633 29.3594C504.424 29.4896 504.255 29.6693 504.125 29.8984C504 30.1276 503.906 30.3984 503.844 30.7109C503.786 31.0182 503.758 31.3516 503.758 31.7109ZM513.25 27.5469V36H510.992V27.5469H513.25ZM510.852 25.3438C510.852 25.0156 510.966 24.7448 511.195 24.5312C511.424 24.3177 511.732 24.2109 512.117 24.2109C512.497 24.2109 512.802 24.3177 513.031 24.5312C513.266 24.7448 513.383 25.0156 513.383 25.3438C513.383 25.6719 513.266 25.9427 513.031 26.1562C512.802 26.3698 512.497 26.4766 512.117 26.4766C511.732 26.4766 511.424 26.3698 511.195 26.1562C510.966 25.9427 510.852 25.6719 510.852 25.3438ZM517.312 29.3516V36H515.062V27.5469H517.172L517.312 29.3516ZM516.984 31.4766H516.375C516.375 30.8516 516.456 30.2891 516.617 29.7891C516.779 29.2839 517.005 28.8542 517.297 28.5C517.589 28.1406 517.935 27.8672 518.336 27.6797C518.742 27.487 519.195 27.3906 519.695 27.3906C520.091 27.3906 520.453 27.4479 520.781 27.5625C521.109 27.6771 521.391 27.8594 521.625 28.1094C521.865 28.3594 522.047 28.6901 522.172 29.1016C522.302 29.513 522.367 30.0156 522.367 30.6094V36H520.102V30.6016C520.102 30.2266 520.049 29.9349 519.945 29.7266C519.841 29.5182 519.688 29.3724 519.484 29.2891C519.286 29.2005 519.042 29.1562 518.75 29.1562C518.448 29.1562 518.185 29.2161 517.961 29.3359C517.742 29.4557 517.56 29.6224 517.414 29.8359C517.273 30.0443 517.167 30.2891 517.094 30.5703C517.021 30.8516 516.984 31.1536 516.984 31.4766ZM529.43 27.5469H531.469V35.7188C531.469 36.4896 531.297 37.1432 530.953 37.6797C530.615 38.2214 530.141 38.6302 529.531 38.9062C528.922 39.1875 528.214 39.3281 527.406 39.3281C527.052 39.3281 526.677 39.2812 526.281 39.1875C525.891 39.0938 525.516 38.9479 525.156 38.75C524.802 38.5521 524.505 38.3021 524.266 38L525.258 36.6719C525.518 36.974 525.82 37.2083 526.164 37.375C526.508 37.5469 526.888 37.6328 527.305 37.6328C527.711 37.6328 528.055 37.5573 528.336 37.4062C528.617 37.2604 528.833 37.0443 528.984 36.7578C529.135 36.4766 529.211 36.1354 529.211 35.7344V29.5L529.43 27.5469ZM523.742 31.875V31.7109C523.742 31.0651 523.82 30.4792 523.977 29.9531C524.138 29.4219 524.365 28.9661 524.656 28.5859C524.953 28.2057 525.312 27.9115 525.734 27.7031C526.156 27.4948 526.633 27.3906 527.164 27.3906C527.727 27.3906 528.198 27.4948 528.578 27.7031C528.958 27.9115 529.271 28.2083 529.516 28.5938C529.76 28.974 529.951 29.4245 530.086 29.9453C530.227 30.4609 530.336 31.026 530.414 31.6406V32C530.336 32.5885 530.219 33.1354 530.062 33.6406C529.906 34.1458 529.701 34.5885 529.445 34.9688C529.19 35.3438 528.872 35.6354 528.492 35.8438C528.117 36.0521 527.669 36.1562 527.148 36.1562C526.628 36.1562 526.156 36.0495 525.734 35.8359C525.318 35.6224 524.961 35.3229 524.664 34.9375C524.367 34.5521 524.138 34.099 523.977 33.5781C523.82 33.0573 523.742 32.4896 523.742 31.875ZM525.992 31.7109V31.875C525.992 32.224 526.026 32.5495 526.094 32.8516C526.161 33.1536 526.266 33.4219 526.406 33.6562C526.552 33.8854 526.732 34.0651 526.945 34.1953C527.164 34.3203 527.422 34.3828 527.719 34.3828C528.13 34.3828 528.466 34.2969 528.727 34.125C528.987 33.9479 529.182 33.7057 529.312 33.3984C529.443 33.0911 529.518 32.737 529.539 32.3359V31.3125C529.529 30.9844 529.484 30.6901 529.406 30.4297C529.328 30.1641 529.219 29.9375 529.078 29.75C528.938 29.5625 528.755 29.4167 528.531 29.3125C528.307 29.2083 528.042 29.1562 527.734 29.1562C527.438 29.1562 527.18 29.224 526.961 29.3594C526.747 29.4896 526.568 29.6693 526.422 29.8984C526.281 30.1276 526.174 30.3984 526.102 30.7109C526.029 31.0182 525.992 31.3516 525.992 31.7109ZM541.344 27.5469V29.1406H536.422V27.5469H541.344ZM537.641 25.4609H539.891V33.4531C539.891 33.6979 539.922 33.8854 539.984 34.0156C540.052 34.1458 540.151 34.237 540.281 34.2891C540.411 34.3359 540.576 34.3594 540.773 34.3594C540.914 34.3594 541.039 34.3542 541.148 34.3438C541.263 34.3281 541.359 34.3125 541.438 34.2969L541.445 35.9531C541.253 36.0156 541.044 36.0651 540.82 36.1016C540.596 36.138 540.349 36.1562 540.078 36.1562C539.583 36.1562 539.151 36.0755 538.781 35.9141C538.417 35.7474 538.135 35.4818 537.938 35.1172C537.74 34.7526 537.641 34.2734 537.641 33.6797V25.4609ZM544.82 24V36H542.57V24H544.82ZM544.5 31.4766H543.883C543.888 30.888 543.966 30.3464 544.117 29.8516C544.268 29.3516 544.484 28.9193 544.766 28.5547C545.047 28.1849 545.383 27.8984 545.773 27.6953C546.169 27.4922 546.607 27.3906 547.086 27.3906C547.503 27.3906 547.88 27.4505 548.219 27.5703C548.562 27.6849 548.857 27.8724 549.102 28.1328C549.352 28.388 549.544 28.724 549.68 29.1406C549.815 29.5573 549.883 30.0625 549.883 30.6562V36H547.617V30.6406C547.617 30.2656 547.562 29.9714 547.453 29.7578C547.349 29.5391 547.195 29.3854 546.992 29.2969C546.794 29.2031 546.549 29.1562 546.258 29.1562C545.935 29.1562 545.659 29.2161 545.43 29.3359C545.206 29.4557 545.026 29.6224 544.891 29.8359C544.755 30.0443 544.656 30.2891 544.594 30.5703C544.531 30.8516 544.5 31.1536 544.5 31.4766ZM555.484 36.1562C554.828 36.1562 554.24 36.0521 553.719 35.8438C553.198 35.6302 552.755 35.3359 552.391 34.9609C552.031 34.5859 551.755 34.151 551.562 33.6562C551.37 33.1562 551.273 32.625 551.273 32.0625V31.75C551.273 31.1094 551.365 30.5234 551.547 29.9922C551.729 29.4609 551.99 29 552.328 28.6094C552.672 28.2188 553.089 27.9193 553.578 27.7109C554.068 27.4974 554.62 27.3906 555.234 27.3906C555.833 27.3906 556.365 27.4896 556.828 27.6875C557.292 27.8854 557.68 28.1667 557.992 28.5312C558.31 28.8958 558.549 29.3333 558.711 29.8438C558.872 30.349 558.953 30.9115 558.953 31.5312V32.4688H552.234V30.9688H556.742V30.7969C556.742 30.4844 556.685 30.2057 556.57 29.9609C556.461 29.7109 556.294 29.513 556.07 29.3672C555.846 29.2214 555.56 29.1484 555.211 29.1484C554.914 29.1484 554.659 29.2135 554.445 29.3438C554.232 29.474 554.057 29.6562 553.922 29.8906C553.792 30.125 553.693 30.401 553.625 30.7188C553.562 31.0312 553.531 31.375 553.531 31.75V32.0625C553.531 32.401 553.578 32.7135 553.672 33C553.771 33.2865 553.909 33.5339 554.086 33.7422C554.268 33.9505 554.487 34.112 554.742 34.2266C555.003 34.3411 555.297 34.3984 555.625 34.3984C556.031 34.3984 556.409 34.3203 556.758 34.1641C557.112 34.0026 557.417 33.7604 557.672 33.4375L558.766 34.625C558.589 34.8802 558.346 35.125 558.039 35.3594C557.737 35.5938 557.372 35.7865 556.945 35.9375C556.518 36.0833 556.031 36.1562 555.484 36.1562ZM568.812 31.0078H565.891L565.875 29.3984H568.328C568.76 29.3984 569.115 29.3438 569.391 29.2344C569.667 29.1198 569.872 28.9557 570.008 28.7422C570.148 28.5234 570.219 28.2578 570.219 27.9453C570.219 27.5911 570.151 27.3047 570.016 27.0859C569.885 26.8672 569.68 26.7083 569.398 26.6094C569.122 26.5104 568.766 26.4609 568.328 26.4609H566.703V36H564.359V24.625H568.328C568.99 24.625 569.581 24.6875 570.102 24.8125C570.628 24.9375 571.073 25.1276 571.438 25.3828C571.802 25.638 572.081 25.9609 572.273 26.3516C572.466 26.737 572.562 27.1953 572.562 27.7266C572.562 28.1953 572.456 28.6276 572.242 29.0234C572.034 29.4193 571.703 29.7422 571.25 29.9922C570.802 30.2422 570.216 30.3802 569.492 30.4062L568.812 31.0078ZM568.711 36H565.25L566.164 34.1719H568.711C569.122 34.1719 569.458 34.1068 569.719 33.9766C569.979 33.8411 570.172 33.6589 570.297 33.4297C570.422 33.2005 570.484 32.9375 570.484 32.6406C570.484 32.3073 570.427 32.0182 570.312 31.7734C570.203 31.5286 570.026 31.3411 569.781 31.2109C569.536 31.0755 569.214 31.0078 568.812 31.0078H566.555L566.57 29.3984H569.383L569.922 30.0312C570.615 30.0208 571.172 30.1432 571.594 30.3984C572.021 30.6484 572.331 30.974 572.523 31.375C572.721 31.776 572.82 32.2057 572.82 32.6641C572.82 33.3932 572.661 34.0078 572.344 34.5078C572.026 35.0026 571.56 35.375 570.945 35.625C570.336 35.875 569.591 36 568.711 36ZM579 34.0938V30.3281C579 30.0573 578.956 29.8255 578.867 29.6328C578.779 29.4349 578.641 29.2812 578.453 29.1719C578.271 29.0625 578.034 29.0078 577.742 29.0078C577.492 29.0078 577.276 29.0521 577.094 29.1406C576.911 29.224 576.771 29.3464 576.672 29.5078C576.573 29.6641 576.523 29.849 576.523 30.0625H574.273C574.273 29.7031 574.357 29.362 574.523 29.0391C574.69 28.7161 574.932 28.4323 575.25 28.1875C575.568 27.9375 575.945 27.7422 576.383 27.6016C576.826 27.4609 577.32 27.3906 577.867 27.3906C578.523 27.3906 579.107 27.5 579.617 27.7188C580.128 27.9375 580.529 28.2656 580.82 28.7031C581.117 29.1406 581.266 29.6875 581.266 30.3438V33.9609C581.266 34.4245 581.294 34.8047 581.352 35.1016C581.409 35.3932 581.492 35.6484 581.602 35.8672V36H579.328C579.219 35.7708 579.135 35.4844 579.078 35.1406C579.026 34.7917 579 34.4427 579 34.0938ZM579.297 30.8516L579.312 32.125H578.055C577.758 32.125 577.5 32.1589 577.281 32.2266C577.062 32.2943 576.883 32.3906 576.742 32.5156C576.602 32.6354 576.497 32.776 576.43 32.9375C576.367 33.099 576.336 33.276 576.336 33.4688C576.336 33.6615 576.38 33.8359 576.469 33.9922C576.557 34.1432 576.685 34.263 576.852 34.3516C577.018 34.4349 577.214 34.4766 577.438 34.4766C577.776 34.4766 578.07 34.4089 578.32 34.2734C578.57 34.138 578.763 33.9714 578.898 33.7734C579.039 33.5755 579.112 33.388 579.117 33.2109L579.711 34.1641C579.628 34.3776 579.513 34.599 579.367 34.8281C579.227 35.0573 579.047 35.2734 578.828 35.4766C578.609 35.6745 578.346 35.8385 578.039 35.9688C577.732 36.0938 577.367 36.1562 576.945 36.1562C576.409 36.1562 575.922 36.0495 575.484 35.8359C575.052 35.6172 574.708 35.3177 574.453 34.9375C574.203 34.5521 574.078 34.1146 574.078 33.625C574.078 33.1823 574.161 32.7891 574.328 32.4453C574.495 32.1016 574.74 31.8125 575.062 31.5781C575.391 31.3385 575.799 31.1589 576.289 31.0391C576.779 30.9141 577.346 30.8516 577.992 30.8516H579.297ZM585.375 24V36H583.117V24H585.375ZM591.797 34.0938V30.3281C591.797 30.0573 591.753 29.8255 591.664 29.6328C591.576 29.4349 591.438 29.2812 591.25 29.1719C591.068 29.0625 590.831 29.0078 590.539 29.0078C590.289 29.0078 590.073 29.0521 589.891 29.1406C589.708 29.224 589.568 29.3464 589.469 29.5078C589.37 29.6641 589.32 29.849 589.32 30.0625H587.07C587.07 29.7031 587.154 29.362 587.32 29.0391C587.487 28.7161 587.729 28.4323 588.047 28.1875C588.365 27.9375 588.742 27.7422 589.18 27.6016C589.622 27.4609 590.117 27.3906 590.664 27.3906C591.32 27.3906 591.904 27.5 592.414 27.7188C592.924 27.9375 593.326 28.2656 593.617 28.7031C593.914 29.1406 594.062 29.6875 594.062 30.3438V33.9609C594.062 34.4245 594.091 34.8047 594.148 35.1016C594.206 35.3932 594.289 35.6484 594.398 35.8672V36H592.125C592.016 35.7708 591.932 35.4844 591.875 35.1406C591.823 34.7917 591.797 34.4427 591.797 34.0938ZM592.094 30.8516L592.109 32.125H590.852C590.555 32.125 590.297 32.1589 590.078 32.2266C589.859 32.2943 589.68 32.3906 589.539 32.5156C589.398 32.6354 589.294 32.776 589.227 32.9375C589.164 33.099 589.133 33.276 589.133 33.4688C589.133 33.6615 589.177 33.8359 589.266 33.9922C589.354 34.1432 589.482 34.263 589.648 34.3516C589.815 34.4349 590.01 34.4766 590.234 34.4766C590.573 34.4766 590.867 34.4089 591.117 34.2734C591.367 34.138 591.56 33.9714 591.695 33.7734C591.836 33.5755 591.909 33.388 591.914 33.2109L592.508 34.1641C592.424 34.3776 592.31 34.599 592.164 34.8281C592.023 35.0573 591.844 35.2734 591.625 35.4766C591.406 35.6745 591.143 35.8385 590.836 35.9688C590.529 36.0938 590.164 36.1562 589.742 36.1562C589.206 36.1562 588.719 36.0495 588.281 35.8359C587.849 35.6172 587.505 35.3177 587.25 34.9375C587 34.5521 586.875 34.1146 586.875 33.625C586.875 33.1823 586.958 32.7891 587.125 32.4453C587.292 32.1016 587.536 31.8125 587.859 31.5781C588.188 31.3385 588.596 31.1589 589.086 31.0391C589.576 30.9141 590.143 30.8516 590.789 30.8516H592.094ZM598 29.3516V36H595.75V27.5469H597.859L598 29.3516ZM597.672 31.4766H597.062C597.062 30.8516 597.143 30.2891 597.305 29.7891C597.466 29.2839 597.693 28.8542 597.984 28.5C598.276 28.1406 598.622 27.8672 599.023 27.6797C599.43 27.487 599.883 27.3906 600.383 27.3906C600.779 27.3906 601.141 27.4479 601.469 27.5625C601.797 27.6771 602.078 27.8594 602.312 28.1094C602.552 28.3594 602.734 28.6901 602.859 29.1016C602.99 29.513 603.055 30.0156 603.055 30.6094V36H600.789V30.6016C600.789 30.2266 600.737 29.9349 600.633 29.7266C600.529 29.5182 600.375 29.3724 600.172 29.2891C599.974 29.2005 599.729 29.1562 599.438 29.1562C599.135 29.1562 598.872 29.2161 598.648 29.3359C598.43 29.4557 598.247 29.6224 598.102 29.8359C597.961 30.0443 597.854 30.2891 597.781 30.5703C597.708 30.8516 597.672 31.1536 597.672 31.4766ZM608.258 34.3984C608.534 34.3984 608.779 34.3464 608.992 34.2422C609.206 34.1328 609.372 33.9818 609.492 33.7891C609.617 33.5911 609.682 33.3594 609.688 33.0938H611.805C611.799 33.6875 611.641 34.2161 611.328 34.6797C611.016 35.138 610.596 35.5 610.07 35.7656C609.544 36.026 608.956 36.1562 608.305 36.1562C607.648 36.1562 607.076 36.0469 606.586 35.8281C606.102 35.6094 605.698 35.3073 605.375 34.9219C605.052 34.5312 604.81 34.0781 604.648 33.5625C604.487 33.0417 604.406 32.4844 604.406 31.8906V31.6641C604.406 31.0651 604.487 30.5078 604.648 29.9922C604.81 29.4714 605.052 29.0182 605.375 28.6328C605.698 28.2422 606.102 27.9375 606.586 27.7188C607.07 27.5 607.638 27.3906 608.289 27.3906C608.982 27.3906 609.589 27.5234 610.109 27.7891C610.635 28.0547 611.047 28.4349 611.344 28.9297C611.646 29.4193 611.799 30 611.805 30.6719H609.688C609.682 30.3906 609.622 30.1354 609.508 29.9062C609.398 29.6771 609.237 29.4948 609.023 29.3594C608.815 29.2188 608.557 29.1484 608.25 29.1484C607.922 29.1484 607.654 29.2188 607.445 29.3594C607.237 29.4948 607.076 29.6823 606.961 29.9219C606.846 30.1562 606.766 30.4245 606.719 30.7266C606.677 31.0234 606.656 31.3359 606.656 31.6641V31.8906C606.656 32.2188 606.677 32.5339 606.719 32.8359C606.76 33.138 606.839 33.4062 606.953 33.6406C607.073 33.875 607.237 34.0599 607.445 34.1953C607.654 34.3307 607.924 34.3984 608.258 34.3984ZM617 36.1562C616.344 36.1562 615.755 36.0521 615.234 35.8438C614.714 35.6302 614.271 35.3359 613.906 34.9609C613.547 34.5859 613.271 34.151 613.078 33.6562C612.885 33.1562 612.789 32.625 612.789 32.0625V31.75C612.789 31.1094 612.88 30.5234 613.062 29.9922C613.245 29.4609 613.505 29 613.844 28.6094C614.188 28.2188 614.604 27.9193 615.094 27.7109C615.583 27.4974 616.135 27.3906 616.75 27.3906C617.349 27.3906 617.88 27.4896 618.344 27.6875C618.807 27.8854 619.195 28.1667 619.508 28.5312C619.826 28.8958 620.065 29.3333 620.227 29.8438C620.388 30.349 620.469 30.9115 620.469 31.5312V32.4688H613.75V30.9688H618.258V30.7969C618.258 30.4844 618.201 30.2057 618.086 29.9609C617.977 29.7109 617.81 29.513 617.586 29.3672C617.362 29.2214 617.076 29.1484 616.727 29.1484C616.43 29.1484 616.174 29.2135 615.961 29.3438C615.747 29.474 615.573 29.6562 615.438 29.8906C615.307 30.125 615.208 30.401 615.141 30.7188C615.078 31.0312 615.047 31.375 615.047 31.75V32.0625C615.047 32.401 615.094 32.7135 615.188 33C615.286 33.2865 615.424 33.5339 615.602 33.7422C615.784 33.9505 616.003 34.112 616.258 34.2266C616.518 34.3411 616.812 34.3984 617.141 34.3984C617.547 34.3984 617.924 34.3203 618.273 34.1641C618.628 34.0026 618.932 33.7604 619.188 33.4375L620.281 34.625C620.104 34.8802 619.862 35.125 619.555 35.3594C619.253 35.5938 618.888 35.7865 618.461 35.9375C618.034 36.0833 617.547 36.1562 617 36.1562ZM630.328 31.0078H627.406L627.391 29.3984H629.844C630.276 29.3984 630.63 29.3438 630.906 29.2344C631.182 29.1198 631.388 28.9557 631.523 28.7422C631.664 28.5234 631.734 28.2578 631.734 27.9453C631.734 27.5911 631.667 27.3047 631.531 27.0859C631.401 26.8672 631.195 26.7083 630.914 26.6094C630.638 26.5104 630.281 26.4609 629.844 26.4609H628.219V36H625.875V24.625H629.844C630.505 24.625 631.096 24.6875 631.617 24.8125C632.143 24.9375 632.589 25.1276 632.953 25.3828C633.318 25.638 633.596 25.9609 633.789 26.3516C633.982 26.737 634.078 27.1953 634.078 27.7266C634.078 28.1953 633.971 28.6276 633.758 29.0234C633.549 29.4193 633.219 29.7422 632.766 29.9922C632.318 30.2422 631.732 30.3802 631.008 30.4062L630.328 31.0078ZM630.227 36H626.766L627.68 34.1719H630.227C630.638 34.1719 630.974 34.1068 631.234 33.9766C631.495 33.8411 631.688 33.6589 631.812 33.4297C631.938 33.2005 632 32.9375 632 32.6406C632 32.3073 631.943 32.0182 631.828 31.7734C631.719 31.5286 631.542 31.3411 631.297 31.2109C631.052 31.0755 630.729 31.0078 630.328 31.0078H628.07L628.086 29.3984H630.898L631.438 30.0312C632.13 30.0208 632.688 30.1432 633.109 30.3984C633.536 30.6484 633.846 30.974 634.039 31.375C634.237 31.776 634.336 32.2057 634.336 32.6641C634.336 33.3932 634.177 34.0078 633.859 34.5078C633.542 35.0026 633.076 35.375 632.461 35.625C631.852 35.875 631.107 36 630.227 36ZM639.844 36.1562C639.188 36.1562 638.599 36.0521 638.078 35.8438C637.557 35.6302 637.115 35.3359 636.75 34.9609C636.391 34.5859 636.115 34.151 635.922 33.6562C635.729 33.1562 635.633 32.625 635.633 32.0625V31.75C635.633 31.1094 635.724 30.5234 635.906 29.9922C636.089 29.4609 636.349 29 636.688 28.6094C637.031 28.2188 637.448 27.9193 637.938 27.7109C638.427 27.4974 638.979 27.3906 639.594 27.3906C640.193 27.3906 640.724 27.4896 641.188 27.6875C641.651 27.8854 642.039 28.1667 642.352 28.5312C642.669 28.8958 642.909 29.3333 643.07 29.8438C643.232 30.349 643.312 30.9115 643.312 31.5312V32.4688H636.594V30.9688H641.102V30.7969C641.102 30.4844 641.044 30.2057 640.93 29.9609C640.82 29.7109 640.654 29.513 640.43 29.3672C640.206 29.2214 639.919 29.1484 639.57 29.1484C639.273 29.1484 639.018 29.2135 638.805 29.3438C638.591 29.474 638.417 29.6562 638.281 29.8906C638.151 30.125 638.052 30.401 637.984 30.7188C637.922 31.0312 637.891 31.375 637.891 31.75V32.0625C637.891 32.401 637.938 32.7135 638.031 33C638.13 33.2865 638.268 33.5339 638.445 33.7422C638.628 33.9505 638.846 34.112 639.102 34.2266C639.362 34.3411 639.656 34.3984 639.984 34.3984C640.391 34.3984 640.768 34.3203 641.117 34.1641C641.471 34.0026 641.776 33.7604 642.031 33.4375L643.125 34.625C642.948 34.8802 642.706 35.125 642.398 35.3594C642.096 35.5938 641.732 35.7865 641.305 35.9375C640.878 36.0833 640.391 36.1562 639.844 36.1562ZM648.734 27.5469V29.1406H643.812V27.5469H648.734ZM645.031 25.4609H647.281V33.4531C647.281 33.6979 647.312 33.8854 647.375 34.0156C647.443 34.1458 647.542 34.237 647.672 34.2891C647.802 34.3359 647.966 34.3594 648.164 34.3594C648.305 34.3594 648.43 34.3542 648.539 34.3438C648.654 34.3281 648.75 34.3125 648.828 34.2969L648.836 35.9531C648.643 36.0156 648.435 36.0651 648.211 36.1016C647.987 36.138 647.74 36.1562 647.469 36.1562C646.974 36.1562 646.542 36.0755 646.172 35.9141C645.807 35.7474 645.526 35.4818 645.328 35.1172C645.13 34.7526 645.031 34.2734 645.031 33.6797V25.4609ZM652.43 33.8125L654.188 27.5469H655.617L655.156 30.0078L653.398 36H652.203L652.43 33.8125ZM651.539 27.5469L652.797 33.8047L652.914 36H651.508L649.367 27.5469H651.539ZM657.227 33.7031L658.453 27.5469H660.633L658.492 36H657.094L657.227 33.7031ZM655.812 27.5469L657.562 33.7656L657.805 36H656.602L654.844 30.0156L654.398 27.5469H655.812ZM665.656 36.1562C665 36.1562 664.411 36.0521 663.891 35.8438C663.37 35.6302 662.927 35.3359 662.562 34.9609C662.203 34.5859 661.927 34.151 661.734 33.6562C661.542 33.1562 661.445 32.625 661.445 32.0625V31.75C661.445 31.1094 661.536 30.5234 661.719 29.9922C661.901 29.4609 662.161 29 662.5 28.6094C662.844 28.2188 663.26 27.9193 663.75 27.7109C664.24 27.4974 664.792 27.3906 665.406 27.3906C666.005 27.3906 666.536 27.4896 667 27.6875C667.464 27.8854 667.852 28.1667 668.164 28.5312C668.482 28.8958 668.721 29.3333 668.883 29.8438C669.044 30.349 669.125 30.9115 669.125 31.5312V32.4688H662.406V30.9688H666.914V30.7969C666.914 30.4844 666.857 30.2057 666.742 29.9609C666.633 29.7109 666.466 29.513 666.242 29.3672C666.018 29.2214 665.732 29.1484 665.383 29.1484C665.086 29.1484 664.831 29.2135 664.617 29.3438C664.404 29.474 664.229 29.6562 664.094 29.8906C663.964 30.125 663.865 30.401 663.797 30.7188C663.734 31.0312 663.703 31.375 663.703 31.75V32.0625C663.703 32.401 663.75 32.7135 663.844 33C663.943 33.2865 664.081 33.5339 664.258 33.7422C664.44 33.9505 664.659 34.112 664.914 34.2266C665.174 34.3411 665.469 34.3984 665.797 34.3984C666.203 34.3984 666.581 34.3203 666.93 34.1641C667.284 34.0026 667.589 33.7604 667.844 33.4375L668.938 34.625C668.76 34.8802 668.518 35.125 668.211 35.3594C667.909 35.5938 667.544 35.7865 667.117 35.9375C666.69 36.0833 666.203 36.1562 665.656 36.1562ZM674.297 36.1562C673.641 36.1562 673.052 36.0521 672.531 35.8438C672.01 35.6302 671.568 35.3359 671.203 34.9609C670.844 34.5859 670.568 34.151 670.375 33.6562C670.182 33.1562 670.086 32.625 670.086 32.0625V31.75C670.086 31.1094 670.177 30.5234 670.359 29.9922C670.542 29.4609 670.802 29 671.141 28.6094C671.484 28.2188 671.901 27.9193 672.391 27.7109C672.88 27.4974 673.432 27.3906 674.047 27.3906C674.646 27.3906 675.177 27.4896 675.641 27.6875C676.104 27.8854 676.492 28.1667 676.805 28.5312C677.122 28.8958 677.362 29.3333 677.523 29.8438C677.685 30.349 677.766 30.9115 677.766 31.5312V32.4688H671.047V30.9688H675.555V30.7969C675.555 30.4844 675.497 30.2057 675.383 29.9609C675.273 29.7109 675.107 29.513 674.883 29.3672C674.659 29.2214 674.372 29.1484 674.023 29.1484C673.727 29.1484 673.471 29.2135 673.258 29.3438C673.044 29.474 672.87 29.6562 672.734 29.8906C672.604 30.125 672.505 30.401 672.438 30.7188C672.375 31.0312 672.344 31.375 672.344 31.75V32.0625C672.344 32.401 672.391 32.7135 672.484 33C672.583 33.2865 672.721 33.5339 672.898 33.7422C673.081 33.9505 673.299 34.112 673.555 34.2266C673.815 34.3411 674.109 34.3984 674.438 34.3984C674.844 34.3984 675.221 34.3203 675.57 34.1641C675.924 34.0026 676.229 33.7604 676.484 33.4375L677.578 34.625C677.401 34.8802 677.159 35.125 676.852 35.3594C676.549 35.5938 676.185 35.7865 675.758 35.9375C675.331 36.0833 674.844 36.1562 674.297 36.1562ZM681.25 29.3516V36H679V27.5469H681.109L681.25 29.3516ZM680.922 31.4766H680.312C680.312 30.8516 680.393 30.2891 680.555 29.7891C680.716 29.2839 680.943 28.8542 681.234 28.5C681.526 28.1406 681.872 27.8672 682.273 27.6797C682.68 27.487 683.133 27.3906 683.633 27.3906C684.029 27.3906 684.391 27.4479 684.719 27.5625C685.047 27.6771 685.328 27.8594 685.562 28.1094C685.802 28.3594 685.984 28.6901 686.109 29.1016C686.24 29.513 686.305 30.0156 686.305 30.6094V36H684.039V30.6016C684.039 30.2266 683.987 29.9349 683.883 29.7266C683.779 29.5182 683.625 29.3724 683.422 29.2891C683.224 29.2005 682.979 29.1562 682.688 29.1562C682.385 29.1562 682.122 29.2161 681.898 29.3359C681.68 29.4557 681.497 29.6224 681.352 29.8359C681.211 30.0443 681.104 30.2891 681.031 30.5703C680.958 30.8516 680.922 31.1536 680.922 31.4766ZM484.469 50.0078H481.547L481.531 48.3984H483.984C484.417 48.3984 484.771 48.3438 485.047 48.2344C485.323 48.1198 485.529 47.9557 485.664 47.7422C485.805 47.5234 485.875 47.2578 485.875 46.9453C485.875 46.5911 485.807 46.3047 485.672 46.0859C485.542 45.8672 485.336 45.7083 485.055 45.6094C484.779 45.5104 484.422 45.4609 483.984 45.4609H482.359V55H480.016V43.625H483.984C484.646 43.625 485.237 43.6875 485.758 43.8125C486.284 43.9375 486.729 44.1276 487.094 44.3828C487.458 44.638 487.737 44.9609 487.93 45.3516C488.122 45.737 488.219 46.1953 488.219 46.7266C488.219 47.1953 488.112 47.6276 487.898 48.0234C487.69 48.4193 487.359 48.7422 486.906 48.9922C486.458 49.2422 485.872 49.3802 485.148 49.4062L484.469 50.0078ZM484.367 55H480.906L481.82 53.1719H484.367C484.779 53.1719 485.115 53.1068 485.375 52.9766C485.635 52.8411 485.828 52.6589 485.953 52.4297C486.078 52.2005 486.141 51.9375 486.141 51.6406C486.141 51.3073 486.083 51.0182 485.969 50.7734C485.859 50.5286 485.682 50.3411 485.438 50.2109C485.193 50.0755 484.87 50.0078 484.469 50.0078H482.211L482.227 48.3984H485.039L485.578 49.0312C486.271 49.0208 486.828 49.1432 487.25 49.3984C487.677 49.6484 487.987 49.974 488.18 50.375C488.378 50.776 488.477 51.2057 488.477 51.6641C488.477 52.3932 488.318 53.0078 488 53.5078C487.682 54.0026 487.216 54.375 486.602 54.625C485.992 54.875 485.247 55 484.367 55ZM493.984 55.1562C493.328 55.1562 492.74 55.0521 492.219 54.8438C491.698 54.6302 491.255 54.3359 490.891 53.9609C490.531 53.5859 490.255 53.151 490.062 52.6562C489.87 52.1562 489.773 51.625 489.773 51.0625V50.75C489.773 50.1094 489.865 49.5234 490.047 48.9922C490.229 48.4609 490.49 48 490.828 47.6094C491.172 47.2188 491.589 46.9193 492.078 46.7109C492.568 46.4974 493.12 46.3906 493.734 46.3906C494.333 46.3906 494.865 46.4896 495.328 46.6875C495.792 46.8854 496.18 47.1667 496.492 47.5312C496.81 47.8958 497.049 48.3333 497.211 48.8438C497.372 49.349 497.453 49.9115 497.453 50.5312V51.4688H490.734V49.9688H495.242V49.7969C495.242 49.4844 495.185 49.2057 495.07 48.9609C494.961 48.7109 494.794 48.513 494.57 48.3672C494.346 48.2214 494.06 48.1484 493.711 48.1484C493.414 48.1484 493.159 48.2135 492.945 48.3438C492.732 48.474 492.557 48.6562 492.422 48.8906C492.292 49.125 492.193 49.401 492.125 49.7188C492.062 50.0312 492.031 50.375 492.031 50.75V51.0625C492.031 51.401 492.078 51.7135 492.172 52C492.271 52.2865 492.409 52.5339 492.586 52.7422C492.768 52.9505 492.987 53.112 493.242 53.2266C493.503 53.3411 493.797 53.3984 494.125 53.3984C494.531 53.3984 494.909 53.3203 495.258 53.1641C495.612 53.0026 495.917 52.7604 496.172 52.4375L497.266 53.625C497.089 53.8802 496.846 54.125 496.539 54.3594C496.237 54.5938 495.872 54.7865 495.445 54.9375C495.018 55.0833 494.531 55.1562 493.984 55.1562ZM503.297 53.0938V49.3281C503.297 49.0573 503.253 48.8255 503.164 48.6328C503.076 48.4349 502.938 48.2812 502.75 48.1719C502.568 48.0625 502.331 48.0078 502.039 48.0078C501.789 48.0078 501.573 48.0521 501.391 48.1406C501.208 48.224 501.068 48.3464 500.969 48.5078C500.87 48.6641 500.82 48.849 500.82 49.0625H498.57C498.57 48.7031 498.654 48.362 498.82 48.0391C498.987 47.7161 499.229 47.4323 499.547 47.1875C499.865 46.9375 500.242 46.7422 500.68 46.6016C501.122 46.4609 501.617 46.3906 502.164 46.3906C502.82 46.3906 503.404 46.5 503.914 46.7188C504.424 46.9375 504.826 47.2656 505.117 47.7031C505.414 48.1406 505.562 48.6875 505.562 49.3438V52.9609C505.562 53.4245 505.591 53.8047 505.648 54.1016C505.706 54.3932 505.789 54.6484 505.898 54.8672V55H503.625C503.516 54.7708 503.432 54.4844 503.375 54.1406C503.323 53.7917 503.297 53.4427 503.297 53.0938ZM503.594 49.8516L503.609 51.125H502.352C502.055 51.125 501.797 51.1589 501.578 51.2266C501.359 51.2943 501.18 51.3906 501.039 51.5156C500.898 51.6354 500.794 51.776 500.727 51.9375C500.664 52.099 500.633 52.276 500.633 52.4688C500.633 52.6615 500.677 52.8359 500.766 52.9922C500.854 53.1432 500.982 53.263 501.148 53.3516C501.315 53.4349 501.51 53.4766 501.734 53.4766C502.073 53.4766 502.367 53.4089 502.617 53.2734C502.867 53.138 503.06 52.9714 503.195 52.7734C503.336 52.5755 503.409 52.388 503.414 52.2109L504.008 53.1641C503.924 53.3776 503.81 53.599 503.664 53.8281C503.523 54.0573 503.344 54.2734 503.125 54.4766C502.906 54.6745 502.643 54.8385 502.336 54.9688C502.029 55.0938 501.664 55.1562 501.242 55.1562C500.706 55.1562 500.219 55.0495 499.781 54.8359C499.349 54.6172 499.005 54.3177 498.75 53.9375C498.5 53.5521 498.375 53.1146 498.375 52.625C498.375 52.1823 498.458 51.7891 498.625 51.4453C498.792 51.1016 499.036 50.8125 499.359 50.5781C499.688 50.3385 500.096 50.1589 500.586 50.0391C501.076 49.9141 501.643 49.8516 502.289 49.8516H503.594ZM512.297 52.9766V46.5469H514.547V55H512.43L512.297 52.9766ZM512.547 51.2422L513.211 51.2266C513.211 51.7891 513.146 52.3125 513.016 52.7969C512.885 53.276 512.69 53.6927 512.43 54.0469C512.169 54.3958 511.841 54.6693 511.445 54.8672C511.049 55.0599 510.583 55.1562 510.047 55.1562C509.635 55.1562 509.255 55.099 508.906 54.9844C508.562 54.8646 508.266 54.6797 508.016 54.4297C507.771 54.1745 507.578 53.849 507.438 53.4531C507.302 53.0521 507.234 52.5703 507.234 52.0078V46.5469H509.484V52.0234C509.484 52.2734 509.513 52.4844 509.57 52.6562C509.633 52.8281 509.719 52.9688 509.828 53.0781C509.938 53.1875 510.065 53.2656 510.211 53.3125C510.362 53.3594 510.529 53.3828 510.711 53.3828C511.174 53.3828 511.539 53.2891 511.805 53.1016C512.076 52.9141 512.266 52.6589 512.375 52.3359C512.49 52.0078 512.547 51.6432 512.547 51.2422ZM520.406 46.5469V48.1406H515.484V46.5469H520.406ZM516.703 44.4609H518.953V52.4531C518.953 52.6979 518.984 52.8854 519.047 53.0156C519.115 53.1458 519.214 53.237 519.344 53.2891C519.474 53.3359 519.638 53.3594 519.836 53.3594C519.977 53.3594 520.102 53.3542 520.211 53.3438C520.326 53.3281 520.422 53.3125 520.5 53.2969L520.508 54.9531C520.315 55.0156 520.107 55.0651 519.883 55.1016C519.659 55.138 519.411 55.1562 519.141 55.1562C518.646 55.1562 518.214 55.0755 517.844 54.9141C517.479 54.7474 517.198 54.4818 517 54.1172C516.802 53.7526 516.703 53.2734 516.703 52.6797V44.4609ZM524.195 54.0469L526.438 46.5469H528.852L525.453 56.2734C525.38 56.487 525.281 56.7161 525.156 56.9609C525.036 57.2057 524.872 57.4375 524.664 57.6562C524.461 57.8802 524.203 58.0625 523.891 58.2031C523.583 58.3438 523.206 58.4141 522.758 58.4141C522.544 58.4141 522.37 58.401 522.234 58.375C522.099 58.349 521.938 58.3125 521.75 58.2656V56.6172C521.807 56.6172 521.867 56.6172 521.93 56.6172C521.992 56.6224 522.052 56.625 522.109 56.625C522.406 56.625 522.648 56.5911 522.836 56.5234C523.023 56.4557 523.174 56.3516 523.289 56.2109C523.404 56.0755 523.495 55.8984 523.562 55.6797L524.195 54.0469ZM523.258 46.5469L525.094 52.6719L525.414 55.0547L523.883 55.2188L520.844 46.5469H523.258ZM538.297 53.0938V49.3281C538.297 49.0573 538.253 48.8255 538.164 48.6328C538.076 48.4349 537.938 48.2812 537.75 48.1719C537.568 48.0625 537.331 48.0078 537.039 48.0078C536.789 48.0078 536.573 48.0521 536.391 48.1406C536.208 48.224 536.068 48.3464 535.969 48.5078C535.87 48.6641 535.82 48.849 535.82 49.0625H533.57C533.57 48.7031 533.654 48.362 533.82 48.0391C533.987 47.7161 534.229 47.4323 534.547 47.1875C534.865 46.9375 535.242 46.7422 535.68 46.6016C536.122 46.4609 536.617 46.3906 537.164 46.3906C537.82 46.3906 538.404 46.5 538.914 46.7188C539.424 46.9375 539.826 47.2656 540.117 47.7031C540.414 48.1406 540.562 48.6875 540.562 49.3438V52.9609C540.562 53.4245 540.591 53.8047 540.648 54.1016C540.706 54.3932 540.789 54.6484 540.898 54.8672V55H538.625C538.516 54.7708 538.432 54.4844 538.375 54.1406C538.323 53.7917 538.297 53.4427 538.297 53.0938ZM538.594 49.8516L538.609 51.125H537.352C537.055 51.125 536.797 51.1589 536.578 51.2266C536.359 51.2943 536.18 51.3906 536.039 51.5156C535.898 51.6354 535.794 51.776 535.727 51.9375C535.664 52.099 535.633 52.276 535.633 52.4688C535.633 52.6615 535.677 52.8359 535.766 52.9922C535.854 53.1432 535.982 53.263 536.148 53.3516C536.315 53.4349 536.51 53.4766 536.734 53.4766C537.073 53.4766 537.367 53.4089 537.617 53.2734C537.867 53.138 538.06 52.9714 538.195 52.7734C538.336 52.5755 538.409 52.388 538.414 52.2109L539.008 53.1641C538.924 53.3776 538.81 53.599 538.664 53.8281C538.523 54.0573 538.344 54.2734 538.125 54.4766C537.906 54.6745 537.643 54.8385 537.336 54.9688C537.029 55.0938 536.664 55.1562 536.242 55.1562C535.706 55.1562 535.219 55.0495 534.781 54.8359C534.349 54.6172 534.005 54.3177 533.75 53.9375C533.5 53.5521 533.375 53.1146 533.375 52.625C533.375 52.1823 533.458 51.7891 533.625 51.4453C533.792 51.1016 534.036 50.8125 534.359 50.5781C534.688 50.3385 535.096 50.1589 535.586 50.0391C536.076 49.9141 536.643 49.8516 537.289 49.8516H538.594ZM544.5 48.3516V55H542.25V46.5469H544.359L544.5 48.3516ZM544.172 50.4766H543.562C543.562 49.8516 543.643 49.2891 543.805 48.7891C543.966 48.2839 544.193 47.8542 544.484 47.5C544.776 47.1406 545.122 46.8672 545.523 46.6797C545.93 46.487 546.383 46.3906 546.883 46.3906C547.279 46.3906 547.641 46.4479 547.969 46.5625C548.297 46.6771 548.578 46.8594 548.812 47.1094C549.052 47.3594 549.234 47.6901 549.359 48.1016C549.49 48.513 549.555 49.0156 549.555 49.6094V55H547.289V49.6016C547.289 49.2266 547.237 48.9349 547.133 48.7266C547.029 48.5182 546.875 48.3724 546.672 48.2891C546.474 48.2005 546.229 48.1562 545.938 48.1562C545.635 48.1562 545.372 48.2161 545.148 48.3359C544.93 48.4557 544.747 48.6224 544.602 48.8359C544.461 49.0443 544.354 49.2891 544.281 49.5703C544.208 49.8516 544.172 50.1536 544.172 50.4766ZM556.258 53.1562V43H558.523V55H556.484L556.258 53.1562ZM550.914 50.875V50.7109C550.914 50.0651 550.987 49.4792 551.133 48.9531C551.279 48.4219 551.492 47.9661 551.773 47.5859C552.055 47.2057 552.401 46.9115 552.812 46.7031C553.224 46.4948 553.693 46.3906 554.219 46.3906C554.714 46.3906 555.146 46.4948 555.516 46.7031C555.891 46.9115 556.208 47.2083 556.469 47.5938C556.734 47.974 556.948 48.4245 557.109 48.9453C557.271 49.4609 557.388 50.026 557.461 50.6406V51C557.388 51.5885 557.271 52.1354 557.109 52.6406C556.948 53.1458 556.734 53.5885 556.469 53.9688C556.208 54.3438 555.891 54.6354 555.516 54.8438C555.141 55.0521 554.703 55.1562 554.203 55.1562C553.677 55.1562 553.208 55.0495 552.797 54.8359C552.391 54.6224 552.047 54.3229 551.766 53.9375C551.49 53.5521 551.279 53.099 551.133 52.5781C550.987 52.0573 550.914 51.4896 550.914 50.875ZM553.164 50.7109V50.875C553.164 51.224 553.19 51.5495 553.242 51.8516C553.299 52.1536 553.391 52.4219 553.516 52.6562C553.646 52.8854 553.812 53.0651 554.016 53.1953C554.224 53.3203 554.477 53.3828 554.773 53.3828C555.159 53.3828 555.477 53.2969 555.727 53.125C555.977 52.9479 556.167 52.7057 556.297 52.3984C556.432 52.0911 556.51 51.737 556.531 51.3359V50.3125C556.516 49.9844 556.469 49.6901 556.391 49.4297C556.318 49.1641 556.208 48.9375 556.062 48.75C555.922 48.5625 555.745 48.4167 555.531 48.3125C555.323 48.2083 555.076 48.1562 554.789 48.1562C554.497 48.1562 554.247 48.224 554.039 48.3594C553.831 48.4896 553.661 48.6693 553.531 48.8984C553.406 49.1276 553.312 49.3984 553.25 49.7109C553.193 50.0182 553.164 50.3516 553.164 50.7109ZM566.75 43.625V55H564.406V43.625H566.75ZM571.281 48.4844V50.3125H566.109V48.4844H571.281ZM571.828 43.625V45.4609H566.109V43.625H571.828ZM577.875 52.9766V46.5469H580.125V55H578.008L577.875 52.9766ZM578.125 51.2422L578.789 51.2266C578.789 51.7891 578.724 52.3125 578.594 52.7969C578.464 53.276 578.268 53.6927 578.008 54.0469C577.747 54.3958 577.419 54.6693 577.023 54.8672C576.628 55.0599 576.161 55.1562 575.625 55.1562C575.214 55.1562 574.833 55.099 574.484 54.9844C574.141 54.8646 573.844 54.6797 573.594 54.4297C573.349 54.1745 573.156 53.849 573.016 53.4531C572.88 53.0521 572.812 52.5703 572.812 52.0078V46.5469H575.062V52.0234C575.062 52.2734 575.091 52.4844 575.148 52.6562C575.211 52.8281 575.297 52.9688 575.406 53.0781C575.516 53.1875 575.643 53.2656 575.789 53.3125C575.94 53.3594 576.107 53.3828 576.289 53.3828C576.753 53.3828 577.117 53.2891 577.383 53.1016C577.654 52.9141 577.844 52.6589 577.953 52.3359C578.068 52.0078 578.125 51.6432 578.125 51.2422ZM584.047 48.3516V55H581.797V46.5469H583.906L584.047 48.3516ZM583.719 50.4766H583.109C583.109 49.8516 583.19 49.2891 583.352 48.7891C583.513 48.2839 583.74 47.8542 584.031 47.5C584.323 47.1406 584.669 46.8672 585.07 46.6797C585.477 46.487 585.93 46.3906 586.43 46.3906C586.826 46.3906 587.188 46.4479 587.516 46.5625C587.844 46.6771 588.125 46.8594 588.359 47.1094C588.599 47.3594 588.781 47.6901 588.906 48.1016C589.036 48.513 589.102 49.0156 589.102 49.6094V55H586.836V49.6016C586.836 49.2266 586.784 48.9349 586.68 48.7266C586.576 48.5182 586.422 48.3724 586.219 48.2891C586.021 48.2005 585.776 48.1562 585.484 48.1562C585.182 48.1562 584.919 48.2161 584.695 48.3359C584.477 48.4557 584.294 48.6224 584.148 48.8359C584.008 49.0443 583.901 49.2891 583.828 49.5703C583.755 49.8516 583.719 50.1536 583.719 50.4766ZM594.305 53.3984C594.581 53.3984 594.826 53.3464 595.039 53.2422C595.253 53.1328 595.419 52.9818 595.539 52.7891C595.664 52.5911 595.729 52.3594 595.734 52.0938H597.852C597.846 52.6875 597.688 53.2161 597.375 53.6797C597.062 54.138 596.643 54.5 596.117 54.7656C595.591 55.026 595.003 55.1562 594.352 55.1562C593.695 55.1562 593.122 55.0469 592.633 54.8281C592.148 54.6094 591.745 54.3073 591.422 53.9219C591.099 53.5312 590.857 53.0781 590.695 52.5625C590.534 52.0417 590.453 51.4844 590.453 50.8906V50.6641C590.453 50.0651 590.534 49.5078 590.695 48.9922C590.857 48.4714 591.099 48.0182 591.422 47.6328C591.745 47.2422 592.148 46.9375 592.633 46.7188C593.117 46.5 593.685 46.3906 594.336 46.3906C595.029 46.3906 595.635 46.5234 596.156 46.7891C596.682 47.0547 597.094 47.4349 597.391 47.9297C597.693 48.4193 597.846 49 597.852 49.6719H595.734C595.729 49.3906 595.669 49.1354 595.555 48.9062C595.445 48.6771 595.284 48.4948 595.07 48.3594C594.862 48.2188 594.604 48.1484 594.297 48.1484C593.969 48.1484 593.701 48.2188 593.492 48.3594C593.284 48.4948 593.122 48.6823 593.008 48.9219C592.893 49.1562 592.812 49.4245 592.766 49.7266C592.724 50.0234 592.703 50.3359 592.703 50.6641V50.8906C592.703 51.2188 592.724 51.5339 592.766 51.8359C592.807 52.138 592.885 52.4062 593 52.6406C593.12 52.875 593.284 53.0599 593.492 53.1953C593.701 53.3307 593.971 53.3984 594.305 53.3984ZM603.297 46.5469V48.1406H598.375V46.5469H603.297ZM599.594 44.4609H601.844V52.4531C601.844 52.6979 601.875 52.8854 601.938 53.0156C602.005 53.1458 602.104 53.237 602.234 53.2891C602.365 53.3359 602.529 53.3594 602.727 53.3594C602.867 53.3594 602.992 53.3542 603.102 53.3438C603.216 53.3281 603.312 53.3125 603.391 53.2969L603.398 54.9531C603.206 55.0156 602.997 55.0651 602.773 55.1016C602.549 55.138 602.302 55.1562 602.031 55.1562C601.536 55.1562 601.104 55.0755 600.734 54.9141C600.37 54.7474 600.089 54.4818 599.891 54.1172C599.693 53.7526 599.594 53.2734 599.594 52.6797V44.4609ZM606.953 46.5469V55H604.695V46.5469H606.953ZM604.555 44.3438C604.555 44.0156 604.669 43.7448 604.898 43.5312C605.128 43.3177 605.435 43.2109 605.82 43.2109C606.201 43.2109 606.505 43.3177 606.734 43.5312C606.969 43.7448 607.086 44.0156 607.086 44.3438C607.086 44.6719 606.969 44.9427 606.734 45.1562C606.505 45.3698 606.201 45.4766 605.82 45.4766C605.435 45.4766 605.128 45.3698 604.898 45.1562C604.669 44.9427 604.555 44.6719 604.555 44.3438ZM608.453 50.8594V50.6953C608.453 50.0755 608.542 49.5052 608.719 48.9844C608.896 48.4583 609.154 48.0026 609.492 47.6172C609.831 47.2318 610.247 46.9323 610.742 46.7188C611.237 46.5 611.805 46.3906 612.445 46.3906C613.086 46.3906 613.656 46.5 614.156 46.7188C614.656 46.9323 615.076 47.2318 615.414 47.6172C615.758 48.0026 616.018 48.4583 616.195 48.9844C616.372 49.5052 616.461 50.0755 616.461 50.6953V50.8594C616.461 51.474 616.372 52.0443 616.195 52.5703C616.018 53.0911 615.758 53.5469 615.414 53.9375C615.076 54.3229 614.659 54.6224 614.164 54.8359C613.669 55.0495 613.102 55.1562 612.461 55.1562C611.82 55.1562 611.25 55.0495 610.75 54.8359C610.255 54.6224 609.836 54.3229 609.492 53.9375C609.154 53.5469 608.896 53.0911 608.719 52.5703C608.542 52.0443 608.453 51.474 608.453 50.8594ZM610.703 50.6953V50.8594C610.703 51.2135 610.734 51.5443 610.797 51.8516C610.859 52.1589 610.958 52.4297 611.094 52.6641C611.234 52.8932 611.417 53.0729 611.641 53.2031C611.865 53.3333 612.138 53.3984 612.461 53.3984C612.773 53.3984 613.042 53.3333 613.266 53.2031C613.49 53.0729 613.669 52.8932 613.805 52.6641C613.94 52.4297 614.039 52.1589 614.102 51.8516C614.169 51.5443 614.203 51.2135 614.203 50.8594V50.6953C614.203 50.3516 614.169 50.0286 614.102 49.7266C614.039 49.4193 613.938 49.1484 613.797 48.9141C613.661 48.6745 613.482 48.487 613.258 48.3516C613.034 48.2161 612.763 48.1484 612.445 48.1484C612.128 48.1484 611.857 48.2161 611.633 48.3516C611.414 48.487 611.234 48.6745 611.094 48.9141C610.958 49.1484 610.859 49.4193 610.797 49.7266C610.734 50.0286 610.703 50.3516 610.703 50.6953ZM620.047 48.3516V55H617.797V46.5469H619.906L620.047 48.3516ZM619.719 50.4766H619.109C619.109 49.8516 619.19 49.2891 619.352 48.7891C619.513 48.2839 619.74 47.8542 620.031 47.5C620.323 47.1406 620.669 46.8672 621.07 46.6797C621.477 46.487 621.93 46.3906 622.43 46.3906C622.826 46.3906 623.188 46.4479 623.516 46.5625C623.844 46.6771 624.125 46.8594 624.359 47.1094C624.599 47.3594 624.781 47.6901 624.906 48.1016C625.036 48.513 625.102 49.0156 625.102 49.6094V55H622.836V49.6016C622.836 49.2266 622.784 48.9349 622.68 48.7266C622.576 48.5182 622.422 48.3724 622.219 48.2891C622.021 48.2005 621.776 48.1562 621.484 48.1562C621.182 48.1562 620.919 48.2161 620.695 48.3359C620.477 48.4557 620.294 48.6224 620.148 48.8359C620.008 49.0443 619.901 49.2891 619.828 49.5703C619.755 49.8516 619.719 50.1536 619.719 50.4766ZM631.375 53.0938V49.3281C631.375 49.0573 631.331 48.8255 631.242 48.6328C631.154 48.4349 631.016 48.2812 630.828 48.1719C630.646 48.0625 630.409 48.0078 630.117 48.0078C629.867 48.0078 629.651 48.0521 629.469 48.1406C629.286 48.224 629.146 48.3464 629.047 48.5078C628.948 48.6641 628.898 48.849 628.898 49.0625H626.648C626.648 48.7031 626.732 48.362 626.898 48.0391C627.065 47.7161 627.307 47.4323 627.625 47.1875C627.943 46.9375 628.32 46.7422 628.758 46.6016C629.201 46.4609 629.695 46.3906 630.242 46.3906C630.898 46.3906 631.482 46.5 631.992 46.7188C632.503 46.9375 632.904 47.2656 633.195 47.7031C633.492 48.1406 633.641 48.6875 633.641 49.3438V52.9609C633.641 53.4245 633.669 53.8047 633.727 54.1016C633.784 54.3932 633.867 54.6484 633.977 54.8672V55H631.703C631.594 54.7708 631.51 54.4844 631.453 54.1406C631.401 53.7917 631.375 53.4427 631.375 53.0938ZM631.672 49.8516L631.688 51.125H630.43C630.133 51.125 629.875 51.1589 629.656 51.2266C629.438 51.2943 629.258 51.3906 629.117 51.5156C628.977 51.6354 628.872 51.776 628.805 51.9375C628.742 52.099 628.711 52.276 628.711 52.4688C628.711 52.6615 628.755 52.8359 628.844 52.9922C628.932 53.1432 629.06 53.263 629.227 53.3516C629.393 53.4349 629.589 53.4766 629.812 53.4766C630.151 53.4766 630.445 53.4089 630.695 53.2734C630.945 53.138 631.138 52.9714 631.273 52.7734C631.414 52.5755 631.487 52.388 631.492 52.2109L632.086 53.1641C632.003 53.3776 631.888 53.599 631.742 53.8281C631.602 54.0573 631.422 54.2734 631.203 54.4766C630.984 54.6745 630.721 54.8385 630.414 54.9688C630.107 55.0938 629.742 55.1562 629.32 55.1562C628.784 55.1562 628.297 55.0495 627.859 54.8359C627.427 54.6172 627.083 54.3177 626.828 53.9375C626.578 53.5521 626.453 53.1146 626.453 52.625C626.453 52.1823 626.536 51.7891 626.703 51.4453C626.87 51.1016 627.115 50.8125 627.438 50.5781C627.766 50.3385 628.174 50.1589 628.664 50.0391C629.154 49.9141 629.721 49.8516 630.367 49.8516H631.672ZM637.75 43V55H635.492V43H637.75ZM641.984 46.5469V55H639.727V46.5469H641.984ZM639.586 44.3438C639.586 44.0156 639.701 43.7448 639.93 43.5312C640.159 43.3177 640.466 43.2109 640.852 43.2109C641.232 43.2109 641.536 43.3177 641.766 43.5312C642 43.7448 642.117 44.0156 642.117 44.3438C642.117 44.6719 642 44.9427 641.766 45.1562C641.536 45.3698 641.232 45.4766 640.852 45.4766C640.466 45.4766 640.159 45.3698 639.93 45.1562C639.701 44.9427 639.586 44.6719 639.586 44.3438ZM647.984 46.5469V48.1406H643.062V46.5469H647.984ZM644.281 44.4609H646.531V52.4531C646.531 52.6979 646.562 52.8854 646.625 53.0156C646.693 53.1458 646.792 53.237 646.922 53.2891C647.052 53.3359 647.216 53.3594 647.414 53.3594C647.555 53.3594 647.68 53.3542 647.789 53.3438C647.904 53.3281 648 53.3125 648.078 53.2969L648.086 54.9531C647.893 55.0156 647.685 55.0651 647.461 55.1016C647.237 55.138 646.99 55.1562 646.719 55.1562C646.224 55.1562 645.792 55.0755 645.422 54.9141C645.057 54.7474 644.776 54.4818 644.578 54.1172C644.38 53.7526 644.281 53.2734 644.281 52.6797V44.4609ZM651.773 54.0469L654.016 46.5469H656.43L653.031 56.2734C652.958 56.487 652.859 56.7161 652.734 56.9609C652.615 57.2057 652.451 57.4375 652.242 57.6562C652.039 57.8802 651.781 58.0625 651.469 58.2031C651.161 58.3438 650.784 58.4141 650.336 58.4141C650.122 58.4141 649.948 58.401 649.812 58.375C649.677 58.349 649.516 58.3125 649.328 58.2656V56.6172C649.385 56.6172 649.445 56.6172 649.508 56.6172C649.57 56.6224 649.63 56.625 649.688 56.625C649.984 56.625 650.227 56.5911 650.414 56.5234C650.602 56.4557 650.753 56.3516 650.867 56.2109C650.982 56.0755 651.073 55.8984 651.141 55.6797L651.773 54.0469ZM650.836 46.5469L652.672 52.6719L652.992 55.0547L651.461 55.2188L648.422 46.5469H650.836ZM663.688 46.5469V55H661.43V46.5469H663.688ZM661.289 44.3438C661.289 44.0156 661.404 43.7448 661.633 43.5312C661.862 43.3177 662.169 43.2109 662.555 43.2109C662.935 43.2109 663.24 43.3177 663.469 43.5312C663.703 43.7448 663.82 44.0156 663.82 44.3438C663.82 44.6719 663.703 44.9427 663.469 45.1562C663.24 45.3698 662.935 45.4766 662.555 45.4766C662.169 45.4766 661.862 45.3698 661.633 45.1562C661.404 44.9427 661.289 44.6719 661.289 44.3438ZM667.75 48.3516V55H665.5V46.5469H667.609L667.75 48.3516ZM667.422 50.4766H666.812C666.812 49.8516 666.893 49.2891 667.055 48.7891C667.216 48.2839 667.443 47.8542 667.734 47.5C668.026 47.1406 668.372 46.8672 668.773 46.6797C669.18 46.487 669.633 46.3906 670.133 46.3906C670.529 46.3906 670.891 46.4479 671.219 46.5625C671.547 46.6771 671.828 46.8594 672.062 47.1094C672.302 47.3594 672.484 47.6901 672.609 48.1016C672.74 48.513 672.805 49.0156 672.805 49.6094V55H670.539V49.6016C670.539 49.2266 670.487 48.9349 670.383 48.7266C670.279 48.5182 670.125 48.3724 669.922 48.2891C669.724 48.2005 669.479 48.1562 669.188 48.1562C668.885 48.1562 668.622 48.2161 668.398 48.3359C668.18 48.4557 667.997 48.6224 667.852 48.8359C667.711 49.0443 667.604 49.2891 667.531 49.5703C667.458 49.8516 667.422 50.1536 667.422 50.4766ZM486.297 62.625H488.633V70.1406C488.633 71.0156 488.445 71.7526 488.07 72.3516C487.701 72.9505 487.188 73.401 486.531 73.7031C485.88 74.0052 485.13 74.1562 484.281 74.1562C483.432 74.1562 482.677 74.0052 482.016 73.7031C481.359 73.401 480.844 72.9505 480.469 72.3516C480.099 71.7526 479.914 71.0156 479.914 70.1406V62.625H482.258V70.1406C482.258 70.651 482.339 71.0677 482.5 71.3906C482.661 71.7135 482.893 71.9505 483.195 72.1016C483.503 72.2526 483.865 72.3281 484.281 72.3281C484.708 72.3281 485.07 72.2526 485.367 72.1016C485.669 71.9505 485.898 71.7135 486.055 71.3906C486.216 71.0677 486.297 70.651 486.297 70.1406V62.625ZM493.055 62.625V74H490.719V62.625H493.055ZM499.969 62.625L495.797 74.9766H494.125L498.297 62.625H499.969ZM507.469 62.625H509.805V70.1406C509.805 71.0156 509.617 71.7526 509.242 72.3516C508.872 72.9505 508.359 73.401 507.703 73.7031C507.052 74.0052 506.302 74.1562 505.453 74.1562C504.604 74.1562 503.849 74.0052 503.188 73.7031C502.531 73.401 502.016 72.9505 501.641 72.3516C501.271 71.7526 501.086 71.0156 501.086 70.1406V62.625H503.43V70.1406C503.43 70.651 503.51 71.0677 503.672 71.3906C503.833 71.7135 504.065 71.9505 504.367 72.1016C504.674 72.2526 505.036 72.3281 505.453 72.3281C505.88 72.3281 506.242 72.2526 506.539 72.1016C506.841 71.9505 507.07 71.7135 507.227 71.3906C507.388 71.0677 507.469 70.651 507.469 70.1406V62.625ZM513.664 62.625L515.805 66.5938L517.945 62.625H520.625L517.32 68.2656L520.711 74H518.008L515.805 69.9531L513.602 74H510.883L514.281 68.2656L510.969 62.625H513.664ZM529.367 74H526.891L526.906 72.1719H529.367C529.982 72.1719 530.5 72.0339 530.922 71.7578C531.344 71.4766 531.661 71.0677 531.875 70.5312C532.094 69.9948 532.203 69.3464 532.203 68.5859V68.0312C532.203 67.4479 532.141 66.9349 532.016 66.4922C531.896 66.0495 531.716 65.6771 531.477 65.375C531.237 65.0729 530.943 64.8464 530.594 64.6953C530.245 64.5391 529.844 64.4609 529.391 64.4609H526.844V62.625H529.391C530.151 62.625 530.846 62.7552 531.477 63.0156C532.112 63.2708 532.661 63.638 533.125 64.1172C533.589 64.5964 533.945 65.1693 534.195 65.8359C534.451 66.4974 534.578 67.2344 534.578 68.0469V68.5859C534.578 69.3932 534.451 70.1302 534.195 70.7969C533.945 71.4635 533.589 72.0365 533.125 72.5156C532.667 72.9896 532.117 73.3568 531.477 73.6172C530.841 73.8724 530.138 74 529.367 74ZM528.219 62.625V74H525.875V62.625H528.219ZM540.031 74.1562C539.375 74.1562 538.786 74.0521 538.266 73.8438C537.745 73.6302 537.302 73.3359 536.938 72.9609C536.578 72.5859 536.302 72.151 536.109 71.6562C535.917 71.1562 535.82 70.625 535.82 70.0625V69.75C535.82 69.1094 535.911 68.5234 536.094 67.9922C536.276 67.4609 536.536 67 536.875 66.6094C537.219 66.2188 537.635 65.9193 538.125 65.7109C538.615 65.4974 539.167 65.3906 539.781 65.3906C540.38 65.3906 540.911 65.4896 541.375 65.6875C541.839 65.8854 542.227 66.1667 542.539 66.5312C542.857 66.8958 543.096 67.3333 543.258 67.8438C543.419 68.349 543.5 68.9115 543.5 69.5312V70.4688H536.781V68.9688H541.289V68.7969C541.289 68.4844 541.232 68.2057 541.117 67.9609C541.008 67.7109 540.841 67.513 540.617 67.3672C540.393 67.2214 540.107 67.1484 539.758 67.1484C539.461 67.1484 539.206 67.2135 538.992 67.3438C538.779 67.474 538.604 67.6562 538.469 67.8906C538.339 68.125 538.24 68.401 538.172 68.7188C538.109 69.0312 538.078 69.375 538.078 69.75V70.0625C538.078 70.401 538.125 70.7135 538.219 71C538.318 71.2865 538.456 71.5339 538.633 71.7422C538.815 71.9505 539.034 72.112 539.289 72.2266C539.549 72.3411 539.844 72.3984 540.172 72.3984C540.578 72.3984 540.956 72.3203 541.305 72.1641C541.659 72.0026 541.964 71.7604 542.219 71.4375L543.312 72.625C543.135 72.8802 542.893 73.125 542.586 73.3594C542.284 73.5938 541.919 73.7865 541.492 73.9375C541.065 74.0833 540.578 74.1562 540.031 74.1562ZM549.352 71.6641C549.352 71.5026 549.305 71.3568 549.211 71.2266C549.117 71.0964 548.943 70.9766 548.688 70.8672C548.438 70.7526 548.076 70.6484 547.602 70.5547C547.174 70.4609 546.776 70.3438 546.406 70.2031C546.042 70.0573 545.724 69.8828 545.453 69.6797C545.188 69.4766 544.979 69.237 544.828 68.9609C544.677 68.6797 544.602 68.3594 544.602 68C544.602 67.6458 544.677 67.3125 544.828 67C544.984 66.6875 545.206 66.4115 545.492 66.1719C545.784 65.9271 546.138 65.737 546.555 65.6016C546.977 65.4609 547.451 65.3906 547.977 65.3906C548.711 65.3906 549.341 65.5078 549.867 65.7422C550.398 65.9766 550.805 66.2995 551.086 66.7109C551.372 67.1172 551.516 67.5807 551.516 68.1016H549.266C549.266 67.8828 549.219 67.6875 549.125 67.5156C549.036 67.3385 548.896 67.2005 548.703 67.1016C548.516 66.9974 548.271 66.9453 547.969 66.9453C547.719 66.9453 547.503 66.9896 547.32 67.0781C547.138 67.1615 546.997 67.276 546.898 67.4219C546.805 67.5625 546.758 67.7188 546.758 67.8906C546.758 68.0208 546.784 68.138 546.836 68.2422C546.893 68.3411 546.984 68.4323 547.109 68.5156C547.234 68.599 547.396 68.6771 547.594 68.75C547.797 68.8177 548.047 68.8802 548.344 68.9375C548.953 69.0625 549.497 69.2266 549.977 69.4297C550.456 69.6276 550.836 69.8984 551.117 70.2422C551.398 70.5807 551.539 71.026 551.539 71.5781C551.539 71.9531 551.456 72.2969 551.289 72.6094C551.122 72.9219 550.883 73.1953 550.57 73.4297C550.258 73.6589 549.883 73.8385 549.445 73.9688C549.013 74.0938 548.526 74.1562 547.984 74.1562C547.198 74.1562 546.531 74.0156 545.984 73.7344C545.443 73.4531 545.031 73.0964 544.75 72.6641C544.474 72.2266 544.336 71.7786 544.336 71.3203H546.469C546.479 71.6276 546.557 71.875 546.703 72.0625C546.854 72.25 547.044 72.3854 547.273 72.4688C547.508 72.5521 547.76 72.5938 548.031 72.5938C548.323 72.5938 548.565 72.5547 548.758 72.4766C548.951 72.3932 549.096 72.2839 549.195 72.1484C549.299 72.0078 549.352 71.8464 549.352 71.6641ZM555.375 65.5469V74H553.117V65.5469H555.375ZM552.977 63.3438C552.977 63.0156 553.091 62.7448 553.32 62.5312C553.549 62.3177 553.857 62.2109 554.242 62.2109C554.622 62.2109 554.927 62.3177 555.156 62.5312C555.391 62.7448 555.508 63.0156 555.508 63.3438C555.508 63.6719 555.391 63.9427 555.156 64.1562C554.927 64.3698 554.622 64.4766 554.242 64.4766C553.857 64.4766 553.549 64.3698 553.32 64.1562C553.091 63.9427 552.977 63.6719 552.977 63.3438ZM562.586 65.5469H564.625V73.7188C564.625 74.4896 564.453 75.1432 564.109 75.6797C563.771 76.2214 563.297 76.6302 562.688 76.9062C562.078 77.1875 561.37 77.3281 560.562 77.3281C560.208 77.3281 559.833 77.2812 559.438 77.1875C559.047 77.0938 558.672 76.9479 558.312 76.75C557.958 76.5521 557.661 76.3021 557.422 76L558.414 74.6719C558.674 74.974 558.977 75.2083 559.32 75.375C559.664 75.5469 560.044 75.6328 560.461 75.6328C560.867 75.6328 561.211 75.5573 561.492 75.4062C561.773 75.2604 561.99 75.0443 562.141 74.7578C562.292 74.4766 562.367 74.1354 562.367 73.7344V67.5L562.586 65.5469ZM556.898 69.875V69.7109C556.898 69.0651 556.977 68.4792 557.133 67.9531C557.294 67.4219 557.521 66.9661 557.812 66.5859C558.109 66.2057 558.469 65.9115 558.891 65.7031C559.312 65.4948 559.789 65.3906 560.32 65.3906C560.883 65.3906 561.354 65.4948 561.734 65.7031C562.115 65.9115 562.427 66.2083 562.672 66.5938C562.917 66.974 563.107 67.4245 563.242 67.9453C563.383 68.4609 563.492 69.026 563.57 69.6406V70C563.492 70.5885 563.375 71.1354 563.219 71.6406C563.062 72.1458 562.857 72.5885 562.602 72.9688C562.346 73.3438 562.029 73.6354 561.648 73.8438C561.273 74.0521 560.826 74.1562 560.305 74.1562C559.784 74.1562 559.312 74.0495 558.891 73.8359C558.474 73.6224 558.117 73.3229 557.82 72.9375C557.523 72.5521 557.294 72.099 557.133 71.5781C556.977 71.0573 556.898 70.4896 556.898 69.875ZM559.148 69.7109V69.875C559.148 70.224 559.182 70.5495 559.25 70.8516C559.318 71.1536 559.422 71.4219 559.562 71.6562C559.708 71.8854 559.888 72.0651 560.102 72.1953C560.32 72.3203 560.578 72.3828 560.875 72.3828C561.286 72.3828 561.622 72.2969 561.883 72.125C562.143 71.9479 562.339 71.7057 562.469 71.3984C562.599 71.0911 562.674 70.737 562.695 70.3359V69.3125C562.685 68.9844 562.641 68.6901 562.562 68.4297C562.484 68.1641 562.375 67.9375 562.234 67.75C562.094 67.5625 561.911 67.4167 561.688 67.3125C561.464 67.2083 561.198 67.1562 560.891 67.1562C560.594 67.1562 560.336 67.224 560.117 67.3594C559.904 67.4896 559.724 67.6693 559.578 67.8984C559.438 68.1276 559.331 68.3984 559.258 68.7109C559.185 69.0182 559.148 69.3516 559.148 69.7109ZM568.578 67.3516V74H566.328V65.5469H568.438L568.578 67.3516ZM568.25 69.4766H567.641C567.641 68.8516 567.721 68.2891 567.883 67.7891C568.044 67.2839 568.271 66.8542 568.562 66.5C568.854 66.1406 569.201 65.8672 569.602 65.6797C570.008 65.487 570.461 65.3906 570.961 65.3906C571.357 65.3906 571.719 65.4479 572.047 65.5625C572.375 65.6771 572.656 65.8594 572.891 66.1094C573.13 66.3594 573.312 66.6901 573.438 67.1016C573.568 67.513 573.633 68.0156 573.633 68.6094V74H571.367V68.6016C571.367 68.2266 571.315 67.9349 571.211 67.7266C571.107 67.5182 570.953 67.3724 570.75 67.2891C570.552 67.2005 570.307 67.1562 570.016 67.1562C569.714 67.1562 569.451 67.2161 569.227 67.3359C569.008 67.4557 568.826 67.6224 568.68 67.8359C568.539 68.0443 568.432 68.2891 568.359 68.5703C568.286 68.8516 568.25 69.1536 568.25 69.4766Z" fill="#032038"/>
<rect x="451.5" y="11.5" width="306" height="76" rx="38" stroke="white"/>
<path d="M205.016 307.344V350H199.361V307.344H205.016ZM239.703 307.344H245.328V336.201C245.328 339.404 244.615 342.07 243.189 344.199C241.764 346.328 239.869 347.93 237.506 349.004C235.162 350.059 232.613 350.586 229.859 350.586C226.969 350.586 224.352 350.059 222.008 349.004C219.684 347.93 217.838 346.328 216.471 344.199C215.123 342.07 214.449 339.404 214.449 336.201V307.344H220.045V336.201C220.045 338.428 220.455 340.264 221.275 341.709C222.096 343.154 223.238 344.229 224.703 344.932C226.188 345.635 227.906 345.986 229.859 345.986C231.832 345.986 233.551 345.635 235.016 344.932C236.5 344.229 237.652 343.154 238.473 341.709C239.293 340.264 239.703 338.428 239.703 336.201V307.344ZM272.252 307.344L254.469 353.662H249.811L267.623 307.344H272.252ZM303.395 307.344H309.02V336.201C309.02 339.404 308.307 342.07 306.881 344.199C305.455 346.328 303.561 347.93 301.197 349.004C298.854 350.059 296.305 350.586 293.551 350.586C290.66 350.586 288.043 350.059 285.699 349.004C283.375 347.93 281.529 346.328 280.162 344.199C278.814 342.07 278.141 339.404 278.141 336.201V307.344H283.736V336.201C283.736 338.428 284.146 340.264 284.967 341.709C285.787 343.154 286.93 344.229 288.395 344.932C289.879 345.635 291.598 345.986 293.551 345.986C295.523 345.986 297.242 345.635 298.707 344.932C300.191 344.229 301.344 343.154 302.164 341.709C302.984 340.264 303.395 338.428 303.395 336.201V307.344ZM321.559 307.344L331.812 323.691L342.066 307.344H348.658L335.182 328.467L348.98 350H342.33L331.812 333.33L321.295 350H314.645L328.443 328.467L314.967 307.344H321.559ZM381.939 350H373.033L373.092 345.4H381.939C384.986 345.4 387.525 344.766 389.557 343.496C391.588 342.207 393.111 340.41 394.127 338.105C395.162 335.781 395.68 333.066 395.68 329.961V327.354C395.68 324.912 395.387 322.744 394.801 320.85C394.215 318.936 393.355 317.324 392.223 316.016C391.09 314.688 389.703 313.682 388.062 312.998C386.441 312.314 384.576 311.973 382.467 311.973H372.857V307.344H382.467C385.26 307.344 387.809 307.812 390.113 308.75C392.418 309.668 394.4 311.006 396.061 312.764C397.74 314.502 399.029 316.611 399.928 319.092C400.826 321.553 401.275 324.326 401.275 327.412V329.961C401.275 333.047 400.826 335.83 399.928 338.311C399.029 340.771 397.73 342.871 396.031 344.609C394.352 346.348 392.32 347.686 389.938 348.623C387.574 349.541 384.908 350 381.939 350ZM376.051 307.344V350H370.396V307.344H376.051ZM422.105 350.586C419.898 350.586 417.896 350.215 416.1 349.473C414.322 348.711 412.789 347.646 411.5 346.279C410.23 344.912 409.254 343.291 408.57 341.416C407.887 339.541 407.545 337.49 407.545 335.264V334.033C407.545 331.455 407.926 329.16 408.688 327.148C409.449 325.117 410.484 323.398 411.793 321.992C413.102 320.586 414.586 319.521 416.246 318.799C417.906 318.076 419.625 317.715 421.402 317.715C423.668 317.715 425.621 318.105 427.262 318.887C428.922 319.668 430.279 320.762 431.334 322.168C432.389 323.555 433.17 325.195 433.678 327.09C434.186 328.965 434.439 331.016 434.439 333.242V335.674H410.768V331.25H429.02V330.84C428.941 329.434 428.648 328.066 428.141 326.738C427.652 325.41 426.871 324.316 425.797 323.457C424.723 322.598 423.258 322.168 421.402 322.168C420.172 322.168 419.039 322.432 418.004 322.959C416.969 323.467 416.08 324.229 415.338 325.244C414.596 326.26 414.02 327.5 413.609 328.965C413.199 330.43 412.994 332.119 412.994 334.033V335.264C412.994 336.768 413.199 338.184 413.609 339.512C414.039 340.82 414.654 341.973 415.455 342.969C416.275 343.965 417.262 344.746 418.414 345.312C419.586 345.879 420.914 346.162 422.398 346.162C424.312 346.162 425.934 345.771 427.262 344.99C428.59 344.209 429.752 343.164 430.748 341.855L434.029 344.463C433.346 345.498 432.477 346.484 431.422 347.422C430.367 348.359 429.068 349.121 427.525 349.707C426.002 350.293 424.195 350.586 422.105 350.586ZM459.225 341.592C459.225 340.811 459.049 340.088 458.697 339.424C458.365 338.74 457.672 338.125 456.617 337.578C455.582 337.012 454.02 336.523 451.93 336.113C450.172 335.742 448.58 335.303 447.154 334.795C445.748 334.287 444.547 333.672 443.551 332.949C442.574 332.227 441.822 331.377 441.295 330.4C440.768 329.424 440.504 328.281 440.504 326.973C440.504 325.723 440.777 324.541 441.324 323.428C441.891 322.314 442.682 321.328 443.697 320.469C444.732 319.609 445.973 318.936 447.418 318.447C448.863 317.959 450.475 317.715 452.252 317.715C454.791 317.715 456.959 318.164 458.756 319.062C460.553 319.961 461.93 321.162 462.887 322.666C463.844 324.15 464.322 325.801 464.322 327.617H458.902C458.902 326.738 458.639 325.889 458.111 325.068C457.604 324.229 456.852 323.535 455.855 322.988C454.879 322.441 453.678 322.168 452.252 322.168C450.748 322.168 449.527 322.402 448.59 322.871C447.672 323.32 446.998 323.896 446.568 324.6C446.158 325.303 445.953 326.045 445.953 326.826C445.953 327.412 446.051 327.939 446.246 328.408C446.461 328.857 446.832 329.277 447.359 329.668C447.887 330.039 448.629 330.391 449.586 330.723C450.543 331.055 451.764 331.387 453.248 331.719C455.846 332.305 457.984 333.008 459.664 333.828C461.344 334.648 462.594 335.654 463.414 336.846C464.234 338.037 464.645 339.482 464.645 341.182C464.645 342.568 464.352 343.838 463.766 344.99C463.199 346.143 462.369 347.139 461.275 347.979C460.201 348.799 458.912 349.443 457.408 349.912C455.924 350.361 454.254 350.586 452.398 350.586C449.605 350.586 447.242 350.088 445.309 349.092C443.375 348.096 441.91 346.807 440.914 345.225C439.918 343.643 439.42 341.973 439.42 340.215H444.869C444.947 341.699 445.377 342.881 446.158 343.76C446.939 344.619 447.896 345.234 449.029 345.605C450.162 345.957 451.285 346.133 452.398 346.133C453.883 346.133 455.123 345.938 456.119 345.547C457.135 345.156 457.906 344.619 458.434 343.936C458.961 343.252 459.225 342.471 459.225 341.592ZM477.652 318.301V350H472.203V318.301H477.652ZM471.793 309.893C471.793 309.014 472.057 308.271 472.584 307.666C473.131 307.061 473.932 306.758 474.986 306.758C476.021 306.758 476.812 307.061 477.359 307.666C477.926 308.271 478.209 309.014 478.209 309.893C478.209 310.732 477.926 311.455 477.359 312.061C476.812 312.646 476.021 312.939 474.986 312.939C473.932 312.939 473.131 312.646 472.584 312.061C472.057 311.455 471.793 310.732 471.793 309.893ZM506.891 318.301H511.812V349.326C511.812 352.119 511.246 354.502 510.113 356.475C508.98 358.447 507.398 359.941 505.367 360.957C503.355 361.992 501.031 362.51 498.395 362.51C497.301 362.51 496.012 362.334 494.527 361.982C493.062 361.65 491.617 361.074 490.191 360.254C488.785 359.453 487.604 358.369 486.646 357.002L489.488 353.779C490.816 355.381 492.203 356.494 493.648 357.119C495.113 357.744 496.559 358.057 497.984 358.057C499.703 358.057 501.188 357.734 502.438 357.09C503.688 356.445 504.654 355.488 505.338 354.219C506.041 352.969 506.393 351.426 506.393 349.59V325.273L506.891 318.301ZM485.064 334.502V333.887C485.064 331.465 485.348 329.268 485.914 327.295C486.5 325.303 487.33 323.594 488.404 322.168C489.498 320.742 490.816 319.648 492.359 318.887C493.902 318.105 495.641 317.715 497.574 317.715C499.566 317.715 501.305 318.066 502.789 318.77C504.293 319.453 505.562 320.459 506.598 321.787C507.652 323.096 508.482 324.678 509.088 326.533C509.693 328.389 510.113 330.488 510.348 332.832V335.527C510.133 337.852 509.713 339.941 509.088 341.797C508.482 343.652 507.652 345.234 506.598 346.543C505.562 347.852 504.293 348.857 502.789 349.561C501.285 350.244 499.527 350.586 497.516 350.586C495.621 350.586 493.902 350.186 492.359 349.385C490.836 348.584 489.527 347.461 488.434 346.016C487.34 344.57 486.5 342.871 485.914 340.918C485.348 338.945 485.064 336.807 485.064 334.502ZM490.484 333.887V334.502C490.484 336.084 490.641 337.568 490.953 338.955C491.285 340.342 491.783 341.562 492.447 342.617C493.131 343.672 494 344.502 495.055 345.107C496.109 345.693 497.369 345.986 498.834 345.986C500.631 345.986 502.115 345.605 503.287 344.844C504.459 344.082 505.387 343.076 506.07 341.826C506.773 340.576 507.32 339.219 507.711 337.754V330.693C507.496 329.619 507.164 328.584 506.715 327.588C506.285 326.572 505.719 325.674 505.016 324.893C504.332 324.092 503.482 323.457 502.467 322.988C501.451 322.52 500.26 322.285 498.893 322.285C497.408 322.285 496.129 322.598 495.055 323.223C494 323.828 493.131 324.668 492.447 325.742C491.783 326.797 491.285 328.027 490.953 329.434C490.641 330.82 490.484 332.305 490.484 333.887ZM525.465 325.068V350H520.045V318.301H525.172L525.465 325.068ZM524.176 332.949L521.92 332.861C521.939 330.693 522.262 328.691 522.887 326.855C523.512 325 524.391 323.389 525.523 322.021C526.656 320.654 528.004 319.6 529.566 318.857C531.148 318.096 532.896 317.715 534.811 317.715C536.373 317.715 537.779 317.93 539.029 318.359C540.279 318.77 541.344 319.434 542.223 320.352C543.121 321.27 543.805 322.461 544.273 323.926C544.742 325.371 544.977 327.139 544.977 329.229V350H539.527V329.17C539.527 327.51 539.283 326.182 538.795 325.186C538.307 324.17 537.594 323.438 536.656 322.988C535.719 322.52 534.566 322.285 533.199 322.285C531.852 322.285 530.621 322.568 529.508 323.135C528.414 323.701 527.467 324.482 526.666 325.479C525.885 326.475 525.27 327.617 524.82 328.906C524.391 330.176 524.176 331.523 524.176 332.949ZM566.363 350.586C564.156 350.586 562.154 350.215 560.357 349.473C558.58 348.711 557.047 347.646 555.758 346.279C554.488 344.912 553.512 343.291 552.828 341.416C552.145 339.541 551.803 337.49 551.803 335.264V334.033C551.803 331.455 552.184 329.16 552.945 327.148C553.707 325.117 554.742 323.398 556.051 321.992C557.359 320.586 558.844 319.521 560.504 318.799C562.164 318.076 563.883 317.715 565.66 317.715C567.926 317.715 569.879 318.105 571.52 318.887C573.18 319.668 574.537 320.762 575.592 322.168C576.646 323.555 577.428 325.195 577.936 327.09C578.443 328.965 578.697 331.016 578.697 333.242V335.674H555.025V331.25H573.277V330.84C573.199 329.434 572.906 328.066 572.398 326.738C571.91 325.41 571.129 324.316 570.055 323.457C568.98 322.598 567.516 322.168 565.66 322.168C564.43 322.168 563.297 322.432 562.262 322.959C561.227 323.467 560.338 324.229 559.596 325.244C558.854 326.26 558.277 327.5 557.867 328.965C557.457 330.43 557.252 332.119 557.252 334.033V335.264C557.252 336.768 557.457 338.184 557.867 339.512C558.297 340.82 558.912 341.973 559.713 342.969C560.533 343.965 561.52 344.746 562.672 345.312C563.844 345.879 565.172 346.162 566.656 346.162C568.57 346.162 570.191 345.771 571.52 344.99C572.848 344.209 574.01 343.164 575.006 341.855L578.287 344.463C577.604 345.498 576.734 346.484 575.68 347.422C574.625 348.359 573.326 349.121 571.783 349.707C570.26 350.293 568.453 350.586 566.363 350.586ZM590.445 323.281V350H585.025V318.301H590.299L590.445 323.281ZM600.348 318.125L600.318 323.164C599.869 323.066 599.439 323.008 599.029 322.988C598.639 322.949 598.189 322.93 597.682 322.93C596.432 322.93 595.328 323.125 594.371 323.516C593.414 323.906 592.604 324.453 591.939 325.156C591.275 325.859 590.748 326.699 590.357 327.676C589.986 328.633 589.742 329.688 589.625 330.84L588.102 331.719C588.102 329.805 588.287 328.008 588.658 326.328C589.049 324.648 589.645 323.164 590.445 321.875C591.246 320.566 592.262 319.551 593.492 318.828C594.742 318.086 596.227 317.715 597.945 317.715C598.336 317.715 598.785 317.764 599.293 317.861C599.801 317.939 600.152 318.027 600.348 318.125Z" fill="white"/>
<path d="M436 23.75L444.75 15L448.5 18.75L439.75 27.5L436 23.75Z" stroke="white" stroke-width="2.5" stroke-linecap="round" stroke-linejoin="round"/>
<path d="M423.5 2.5L441.625 6.875L443.5 16.25L437.25 22.5L427.875 20.625L423.5 2.5ZM423.5 2.5L432.983 11.9825" stroke="white" stroke-width="2.5" stroke-linecap="round" stroke-linejoin="round"/>
<path d="M434.75 16.25C436.131 16.25 437.25 15.1307 437.25 13.75C437.25 12.3693 436.131 11.25 434.75 11.25C433.369 11.25 432.25 12.3693 432.25 13.75C432.25 15.1307 433.369 16.25 434.75 16.25Z" stroke="white" stroke-width="2.5" stroke-linecap="round" stroke-linejoin="round"/>
<path d="M420.67 1.51648L366.33 70.6203" stroke="white"/>
<defs>
<filter id="filter0_d_2414_12313" x="0" y="415" width="143" height="61" filterUnits="userSpaceOnUse" color-interpolation-filters="sRGB">
<feFlood flood-opacity="0" result="BackgroundImageFix"/>
<feColorMatrix in="SourceAlpha" type="matrix" values="0 0 0 0 0 0 0 0 0 0 0 0 0 0 0 0 0 0 127 0" result="hardAlpha"/>
<feOffset dy="4"/>
<feGaussianBlur stdDeviation="2"/>
<feComposite in2="hardAlpha" operator="out"/>
<feColorMatrix type="matrix" values="0 0 0 0 0 0 0 0 0 0 0 0 0 0 0 0 0 0 0.25 0"/>
<feBlend mode="normal" in2="BackgroundImageFix" result="effect1_dropShadow_2414_12313"/>
<feBlend mode="normal" in="SourceGraphic" in2="effect1_dropShadow_2414_12313" result="shape"/>
</filter>
<clipPath id="clip0_2414_12313">
<rect width="63" height="63" fill="white" transform="matrix(-0.258819 0.965926 0.965926 0.258819 564.305 350)"/>
</clipPath>
<clipPath id="clip1_2414_12313">
<rect width="63" height="63" fill="white" transform="matrix(-0.965926 -0.258819 -0.258819 0.965926 200.16 374.306)"/>
</clipPath>
</defs>
</svg>
