<svg width="32" height="32" viewBox="0 0 32 32" fill="none" xmlns="http://www.w3.org/2000/svg">
<path d="M26.668 2.66699H5.33464C3.86797 2.66699 2.66797 3.86699 2.66797 5.33366V26.667C2.66797 28.1337 3.86797 29.3337 5.33464 29.3337H26.668C28.1346 29.3337 29.3346 28.1337 29.3346 26.667V5.33366C29.3346 3.86699 28.1346 2.66699 26.668 2.66699ZM10.668 26.667H5.33464V21.3337H10.668V26.667ZM10.668 18.667H5.33464V13.3337H10.668V18.667ZM10.668 10.667H5.33464V5.33366H10.668V10.667ZM18.668 26.667H13.3346V21.3337H18.668V26.667ZM18.668 18.667H13.3346V13.3337H18.668V18.667ZM18.668 10.667H13.3346V5.33366H18.668V10.667ZM26.668 26.667H21.3346V21.3337H26.668V26.667ZM26.668 18.667H21.3346V13.3337H26.668V18.667ZM26.668 10.667H21.3346V5.33366H26.668V10.667Z" fill="#032038"/>
</svg>
