<svg width="30" height="30" viewBox="0 0 30 30" fill="none" xmlns="http://www.w3.org/2000/svg">
<g clip-path="url(#clip0_2742_11795)">
<path d="M3.21317 1.07129H9.64174C10.2101 1.07129 10.7551 1.29705 11.157 1.69892C11.5588 2.10078 11.7846 2.64583 11.7846 3.21415V23.5713C11.7846 24.9921 11.2202 26.3547 10.2155 27.3594C9.21087 28.364 7.84826 28.9284 6.42746 28.9284C5.72395 28.9284 5.02732 28.7899 4.37737 28.5206C3.72741 28.2514 3.13684 27.8568 2.63938 27.3594C1.63472 26.3547 1.07031 24.9921 1.07031 23.5713V3.21415C1.07031 2.64583 1.29608 2.10078 1.69794 1.69892C2.0998 1.29705 2.64485 1.07129 3.21317 1.07129Z" stroke="#032038" stroke-width="1.14286" stroke-linecap="round" stroke-linejoin="round"/>
<path d="M11.783 10.7138L19.283 3.17098C19.6845 2.77187 20.2276 2.54785 20.7938 2.54785C21.3599 2.54785 21.903 2.77187 22.3045 3.17098L26.8259 7.71384C27.225 8.11533 27.449 8.65844 27.449 9.22455C27.449 9.79066 27.225 10.3338 26.8259 10.7353L10.2188 27.3638" stroke="#032038" stroke-width="1.14286" stroke-linecap="round" stroke-linejoin="round"/>
<path d="M19.2846 18.214H26.7846C27.3529 18.214 27.898 18.4398 28.2998 18.8416C28.7017 19.2435 28.9275 19.7885 28.9275 20.3569V26.7854C28.9275 27.3538 28.7017 27.8988 28.2998 28.3007C27.898 28.7025 27.3529 28.9283 26.7846 28.9283H6.42746M1.07031 9.64258H11.7846M1.07031 18.214H11.7846" stroke="#032038" stroke-width="1.14286" stroke-linecap="round" stroke-linejoin="round"/>
</g>
<defs>
<clipPath id="clip0_2742_11795">
<rect width="30" height="30" fill="white"/>
</clipPath>
</defs>
</svg>
