<svg width="123" height="32" viewBox="0 0 123 32" fill="none" xmlns="http://www.w3.org/2000/svg">
<path d="M16 23L13.861 21.987C13.0067 21.5797 12.2848 20.9393 11.7786 20.1396C11.2724 19.3399 11.0025 18.4134 11 17.467V11H21V17.468C20.9976 18.4145 20.7278 19.341 20.2216 20.1407C19.7154 20.9405 18.9934 21.5808 18.139 21.988L16 23ZM13 13V17.468C13.0015 18.0357 13.1636 18.5913 13.4674 19.0708C13.7712 19.5503 14.2044 19.9342 14.717 20.178L16 20.786L17.283 20.179C17.7956 19.9349 18.2288 19.5509 18.5326 19.0712C18.8364 18.5915 18.9984 18.0358 19 17.468V13H13ZM4.12 17.656C4.40593 17.4627 4.63698 17.1988 4.79068 16.8898C4.94439 16.5808 5.01552 16.2373 4.99717 15.8926C4.97881 15.548 4.87159 15.214 4.68593 14.9231C4.50027 14.6322 4.24249 14.3942 3.93765 14.2324C3.63281 14.0706 3.29129 13.9905 2.9463 13.9997C2.60131 14.009 2.26459 14.1074 1.96887 14.2853C1.67316 14.4632 1.42852 14.7147 1.25874 15.0151C1.08897 15.3156 0.99983 15.6549 1 16C1 16.789 1.46 17.464 2.124 17.79C2.45561 20.4241 3.53222 22.9088 5.22729 24.9522C6.92236 26.9955 9.16547 28.5125 11.693 29.325L12.307 27.421C10.1605 26.731 8.25291 25.448 6.80444 23.7201C5.35597 21.9923 4.42469 19.89 4.12 17.656ZM29.326 20.308L27.422 19.692C26.7321 21.8387 25.4492 23.7465 23.7213 25.1951C21.9935 26.6438 19.8911 27.5742 17.657 27.879C17.4636 27.5933 17.1996 27.3625 16.8907 27.2089C16.5817 27.0554 16.2383 26.9844 15.8938 27.0029C15.5493 27.0213 15.2155 27.1285 14.9246 27.3141C14.6338 27.4998 14.396 27.7574 14.2342 28.0621C14.0724 28.3669 13.9922 28.7082 14.0014 29.0531C14.0106 29.398 14.1088 29.7346 14.2865 30.0303C14.4642 30.326 14.7154 30.5707 15.0157 30.7406C15.3159 30.9105 15.655 30.9999 16 31C16.789 31 17.464 30.54 17.79 29.876C20.4239 29.5444 22.9085 28.4679 24.9518 26.773C26.9951 25.0781 28.5133 22.8353 29.326 20.308ZM29.876 14.21C29.5444 11.5759 28.4678 9.09117 26.7727 7.04783C25.0776 5.0045 22.8345 3.48746 20.307 2.675L19.693 4.579C21.8395 5.26901 23.7471 6.552 25.1956 8.27987C26.644 10.0077 27.5743 12.11 27.879 14.344C27.5933 14.5374 27.3624 14.8014 27.2089 15.1104C27.0554 15.4194 26.9844 15.7629 27.0029 16.1074C27.0213 16.452 27.1286 16.7859 27.3143 17.0767C27.5 17.3675 27.7578 17.6053 28.0626 17.767C28.3674 17.9287 28.7088 18.0089 29.0537 17.9996C29.3986 17.9903 29.7353 17.892 30.031 17.7141C30.3266 17.5363 30.5712 17.2849 30.741 16.9846C30.9108 16.6842 31.0001 16.345 31 16C30.9995 15.6263 30.894 15.2603 30.6954 14.9438C30.4968 14.6273 30.2132 14.373 29.877 14.21M16 1C15.211 1 14.536 1.46 14.21 2.124C11.5761 2.45565 9.09147 3.53215 7.04817 5.22702C5.00486 6.92189 3.48772 9.16472 2.675 11.692L4.579 12.308C5.26885 10.1613 6.55178 8.25351 8.27965 6.80486C10.0075 5.3562 12.1099 4.42578 14.344 4.121C14.5374 4.40674 14.8014 4.63759 15.1104 4.79112C15.4194 4.94464 15.7629 5.01561 16.1074 4.99713C16.452 4.97865 16.7859 4.87135 17.0767 4.68566C17.3675 4.49997 17.6053 4.2422 17.767 3.93741C17.9287 3.63262 18.0089 3.29118 17.9996 2.94627C17.9903 2.60136 17.892 2.26471 17.7141 1.96905C17.5363 1.67339 17.2849 1.42877 16.9846 1.25896C16.6842 1.08916 16.345 0.999947 16 1Z" fill="white"/>
<path d="M42.1136 11.7727V20.5H41.0568V11.7727H42.1136ZM43.7553 12.7102V11.7727H50.3008V12.7102H47.5565V20.5H46.4996V12.7102H43.7553ZM61.2727 14.5C61.179 14.2131 61.0554 13.956 60.902 13.7287C60.7514 13.4986 60.571 13.3026 60.3608 13.1406C60.1534 12.9787 59.9176 12.8551 59.6534 12.7699C59.3892 12.6847 59.0994 12.642 58.7841 12.642C58.267 12.642 57.7969 12.7756 57.3736 13.0426C56.9503 13.3097 56.6136 13.7031 56.3636 14.223C56.1136 14.7429 55.9886 15.3807 55.9886 16.1364C55.9886 16.892 56.1151 17.5298 56.3679 18.0497C56.6207 18.5696 56.9631 18.9631 57.3949 19.2301C57.8267 19.4972 58.3125 19.6307 58.8523 19.6307C59.3523 19.6307 59.7926 19.5241 60.1733 19.3111C60.5568 19.0952 60.8551 18.7912 61.0682 18.3991C61.2841 18.0043 61.392 17.5398 61.392 17.0057L61.7159 17.0739H59.0909V16.1364H62.4148V17.0739C62.4148 17.7926 62.2614 18.4176 61.9545 18.9489C61.6506 19.4801 61.2301 19.892 60.6932 20.1847C60.1591 20.4744 59.5455 20.6193 58.8523 20.6193C58.0795 20.6193 57.4006 20.4375 56.8153 20.0739C56.233 19.7102 55.7784 19.1932 55.4517 18.5227C55.1278 17.8523 54.9659 17.0568 54.9659 16.1364C54.9659 15.446 55.0582 14.8253 55.2429 14.2741C55.4304 13.7202 55.6946 13.2486 56.0355 12.8594C56.3764 12.4702 56.7798 12.1719 57.2457 11.9645C57.7116 11.7571 58.2244 11.6534 58.7841 11.6534C59.2443 11.6534 59.6733 11.723 60.071 11.8622C60.4716 11.9986 60.8281 12.1932 61.1406 12.446C61.456 12.696 61.7188 12.9957 61.929 13.3452C62.1392 13.6918 62.2841 14.0767 62.3636 14.5H61.2727ZM66.7475 20.6364C66.1566 20.6364 65.6381 20.4957 65.1921 20.2145C64.7489 19.9332 64.4023 19.5398 64.1523 19.0341C63.9052 18.5284 63.7816 17.9375 63.7816 17.2614C63.7816 16.5795 63.9052 15.9844 64.1523 15.4759C64.4023 14.9673 64.7489 14.5724 65.1921 14.2912C65.6381 14.0099 66.1566 13.8693 66.7475 13.8693C67.3384 13.8693 67.8555 14.0099 68.2987 14.2912C68.7447 14.5724 69.0913 14.9673 69.3384 15.4759C69.5884 15.9844 69.7134 16.5795 69.7134 17.2614C69.7134 17.9375 69.5884 18.5284 69.3384 19.0341C69.0913 19.5398 68.7447 19.9332 68.2987 20.2145C67.8555 20.4957 67.3384 20.6364 66.7475 20.6364ZM66.7475 19.733C67.1964 19.733 67.5657 19.6179 67.8555 19.3878C68.1452 19.1577 68.3597 18.8551 68.4989 18.4801C68.6381 18.1051 68.7077 17.6989 68.7077 17.2614C68.7077 16.8239 68.6381 16.4162 68.4989 16.0384C68.3597 15.6605 68.1452 15.3551 67.8555 15.1222C67.5657 14.8892 67.1964 14.7727 66.7475 14.7727C66.2987 14.7727 65.9293 14.8892 65.6396 15.1222C65.3498 15.3551 65.1353 15.6605 64.9961 16.0384C64.8569 16.4162 64.7873 16.8239 64.7873 17.2614C64.7873 17.6989 64.8569 18.1051 64.9961 18.4801C65.1353 18.8551 65.3498 19.1577 65.6396 19.3878C65.9293 19.6179 66.2987 19.733 66.7475 19.733ZM76.3665 13.9545L73.946 20.5H72.9233L70.5028 13.9545H71.5938L73.4006 19.1705H73.4688L75.2756 13.9545H76.3665ZM80.2038 20.6364C79.5732 20.6364 79.0291 20.4972 78.5717 20.2188C78.1172 19.9375 77.7663 19.5455 77.5192 19.0426C77.2749 18.5369 77.1527 17.9489 77.1527 17.2784C77.1527 16.608 77.2749 16.017 77.5192 15.5057C77.7663 14.9915 78.1101 14.5909 78.5504 14.304C78.9936 14.0142 79.5107 13.8693 80.1016 13.8693C80.4425 13.8693 80.7791 13.9261 81.1115 14.0398C81.4439 14.1534 81.7464 14.3381 82.0192 14.5938C82.2919 14.8466 82.5092 15.1818 82.6712 15.5994C82.8331 16.017 82.9141 16.5312 82.9141 17.142V17.5682H77.8686V16.6989H81.8913C81.8913 16.3295 81.8175 16 81.6697 15.7102C81.5249 15.4205 81.3175 15.1918 81.0476 15.0241C80.7805 14.8565 80.4652 14.7727 80.1016 14.7727C79.701 14.7727 79.3544 14.8722 79.0618 15.071C78.772 15.267 78.549 15.5227 78.3928 15.8381C78.2365 16.1534 78.1584 16.4915 78.1584 16.8523V17.4318C78.1584 17.9261 78.2436 18.3452 78.4141 18.6889C78.5874 19.0298 78.8274 19.2898 79.1342 19.4688C79.4411 19.6449 79.7976 19.733 80.2038 19.733C80.468 19.733 80.7067 19.696 80.9197 19.6222C81.1357 19.5455 81.3217 19.4318 81.478 19.2812C81.6342 19.1278 81.755 18.9375 81.8402 18.7102L82.8118 18.983C82.7095 19.3125 82.5376 19.6023 82.2962 19.8523C82.0547 20.0994 81.7564 20.2926 81.4013 20.4318C81.0462 20.5682 80.647 20.6364 80.2038 20.6364ZM84.4439 20.5V13.9545H85.4155V14.9432H85.4837C85.603 14.6193 85.8189 14.3565 86.1314 14.1548C86.4439 13.9531 86.7962 13.8523 87.1882 13.8523C87.2621 13.8523 87.3544 13.8537 87.4652 13.8565C87.576 13.8594 87.6598 13.8636 87.7166 13.8693V14.892C87.6825 14.8835 87.6044 14.8707 87.4822 14.8537C87.3629 14.8338 87.2365 14.8239 87.103 14.8239C86.7848 14.8239 86.5007 14.8906 86.2507 15.0241C86.0036 15.1548 85.8075 15.3366 85.6626 15.5696C85.5206 15.7997 85.4496 16.0625 85.4496 16.358V20.5H84.4439ZM89.9144 16.5625V20.5H88.9087V13.9545H89.8803V14.9773H89.9656C90.119 14.6449 90.3519 14.3778 90.6644 14.1761C90.9769 13.9716 91.3803 13.8693 91.8746 13.8693C92.3178 13.8693 92.7056 13.9602 93.038 14.142C93.3704 14.321 93.6289 14.5938 93.8136 14.9602C93.9982 15.3239 94.0906 15.7841 94.0906 16.3409V20.5H93.0849V16.4091C93.0849 15.8949 92.9513 15.4943 92.6843 15.2074C92.4173 14.9176 92.0508 14.7727 91.5849 14.7727C91.2638 14.7727 90.9769 14.8423 90.7241 14.9815C90.4741 15.1207 90.2766 15.3239 90.1317 15.5909C89.9869 15.858 89.9144 16.1818 89.9144 16.5625ZM97.8544 20.6534C97.4396 20.6534 97.0632 20.5753 96.7251 20.419C96.3871 20.2599 96.1186 20.0312 95.9197 19.733C95.7209 19.4318 95.6214 19.0682 95.6214 18.642C95.6214 18.267 95.6953 17.9631 95.843 17.7301C95.9908 17.4943 96.1882 17.3097 96.4354 17.1761C96.6825 17.0426 96.9553 16.9432 97.2536 16.8778C97.5547 16.8097 97.8572 16.7557 98.1612 16.7159C98.5589 16.6648 98.8814 16.6264 99.1286 16.6009C99.3786 16.5724 99.5604 16.5256 99.674 16.4602C99.7905 16.3949 99.8487 16.2812 99.8487 16.1193V16.0852C99.8487 15.6648 99.7337 15.3381 99.5036 15.1051C99.2763 14.8722 98.9311 14.7557 98.468 14.7557C97.9879 14.7557 97.6115 14.8608 97.3388 15.071C97.0661 15.2812 96.8743 15.5057 96.7635 15.7443L95.8089 15.4034C95.9794 15.0057 96.2067 14.696 96.4908 14.4744C96.7777 14.25 97.0902 14.0937 97.4283 14.0057C97.7692 13.9148 98.1044 13.8693 98.4339 13.8693C98.6442 13.8693 98.8857 13.8949 99.1584 13.946C99.4339 13.9943 99.6996 14.0952 99.9553 14.2486C100.214 14.402 100.428 14.6335 100.599 14.9432C100.769 15.2528 100.854 15.6676 100.854 16.1875V20.5H99.8487V19.6136H99.7976C99.7294 19.7557 99.6158 19.9077 99.4567 20.0696C99.2976 20.2315 99.0859 20.3693 98.8217 20.483C98.5575 20.5966 98.2351 20.6534 97.8544 20.6534ZM98.0078 19.75C98.4055 19.75 98.7408 19.6719 99.0135 19.5156C99.2891 19.3594 99.4964 19.1577 99.6357 18.9105C99.7777 18.6634 99.8487 18.4034 99.8487 18.1307V17.2102C99.8061 17.2614 99.7124 17.3082 99.5675 17.3509C99.4254 17.3906 99.2607 17.4261 99.0732 17.4574C98.8885 17.4858 98.7081 17.5114 98.532 17.5341C98.3587 17.554 98.218 17.571 98.1101 17.5852C97.8487 17.6193 97.6044 17.6747 97.3771 17.7514C97.1527 17.8253 96.9709 17.9375 96.8317 18.0881C96.6953 18.2358 96.6271 18.4375 96.6271 18.6932C96.6271 19.0426 96.7564 19.3068 97.0149 19.4858C97.2763 19.6619 97.6072 19.75 98.0078 19.75ZM103.696 16.5625V20.5H102.69V13.9545H103.662V14.9773H103.747C103.9 14.6449 104.133 14.3778 104.446 14.1761C104.758 13.9716 105.162 13.8693 105.656 13.8693C106.099 13.8693 106.487 13.9602 106.819 14.142C107.152 14.321 107.41 14.5938 107.595 14.9602C107.779 15.3239 107.872 15.7841 107.872 16.3409V20.5H106.866V16.4091C106.866 15.8949 106.733 15.4943 106.466 15.2074C106.199 14.9176 105.832 14.7727 105.366 14.7727C105.045 14.7727 104.758 14.8423 104.505 14.9815C104.255 15.1207 104.058 15.3239 103.913 15.5909C103.768 15.858 103.696 16.1818 103.696 16.5625ZM112.369 20.6364C111.755 20.6364 111.227 20.4915 110.783 20.2017C110.34 19.9119 109.999 19.5128 109.761 19.0043C109.522 18.4957 109.403 17.9148 109.403 17.2614C109.403 16.5966 109.525 16.0099 109.769 15.5014C110.016 14.9901 110.36 14.5909 110.8 14.304C111.244 14.0142 111.761 13.8693 112.352 13.8693C112.812 13.8693 113.227 13.9545 113.596 14.125C113.965 14.2955 114.268 14.5341 114.504 14.8409C114.739 15.1477 114.886 15.5057 114.942 15.9148H113.937C113.86 15.6165 113.69 15.3523 113.425 15.1222C113.164 14.8892 112.812 14.7727 112.369 14.7727C111.977 14.7727 111.633 14.875 111.337 15.0795C111.045 15.2812 110.816 15.5668 110.651 15.9361C110.489 16.3026 110.408 16.733 110.408 17.2273C110.408 17.733 110.488 18.1733 110.647 18.5483C110.809 18.9233 111.036 19.2145 111.329 19.4219C111.624 19.6293 111.971 19.733 112.369 19.733C112.63 19.733 112.867 19.6875 113.08 19.5966C113.293 19.5057 113.474 19.375 113.621 19.2045C113.769 19.0341 113.874 18.8295 113.937 18.5909H114.942C114.886 18.9773 114.745 19.3253 114.521 19.6349C114.299 19.9418 114.005 20.1861 113.638 20.3679C113.275 20.5469 112.852 20.6364 112.369 20.6364ZM119.157 20.6364C118.526 20.6364 117.982 20.4972 117.525 20.2188C117.07 19.9375 116.719 19.5455 116.472 19.0426C116.228 18.5369 116.106 17.9489 116.106 17.2784C116.106 16.608 116.228 16.017 116.472 15.5057C116.719 14.9915 117.063 14.5909 117.504 14.304C117.947 14.0142 118.464 13.8693 119.055 13.8693C119.396 13.8693 119.732 13.9261 120.065 14.0398C120.397 14.1534 120.7 14.3381 120.972 14.5938C121.245 14.8466 121.462 15.1818 121.624 15.5994C121.786 16.017 121.867 16.5312 121.867 17.142V17.5682H116.822V16.6989H120.844C120.844 16.3295 120.771 16 120.623 15.7102C120.478 15.4205 120.271 15.1918 120.001 15.0241C119.734 14.8565 119.418 14.7727 119.055 14.7727C118.654 14.7727 118.308 14.8722 118.015 15.071C117.725 15.267 117.502 15.5227 117.346 15.8381C117.19 16.1534 117.112 16.4915 117.112 16.8523V17.4318C117.112 17.9261 117.197 18.3452 117.367 18.6889C117.54 19.0298 117.781 19.2898 118.087 19.4688C118.394 19.6449 118.751 19.733 119.157 19.733C119.421 19.733 119.66 19.696 119.873 19.6222C120.089 19.5455 120.275 19.4318 120.431 19.2812C120.587 19.1278 120.708 18.9375 120.793 18.7102L121.765 18.983C121.663 19.3125 121.491 19.6023 121.249 19.8523C121.008 20.0994 120.71 20.2926 120.354 20.4318C119.999 20.5682 119.6 20.6364 119.157 20.6364Z" fill="white"/>
</svg>
