<svg width="164" height="24" viewBox="0 0 164 24" fill="none" xmlns="http://www.w3.org/2000/svg">
<path d="M14 23L20 17M21 14C20.6044 14 20.2178 14.1173 19.8889 14.3371C19.56 14.5568 19.3036 14.8692 19.1522 15.2346C19.0009 15.6001 18.9613 16.0022 19.0384 16.3902C19.1156 16.7781 19.3061 17.1345 19.5858 17.4142C19.8655 17.6939 20.2219 17.8844 20.6098 17.9616C20.9978 18.0387 21.3999 17.9991 21.7654 17.8478C22.1308 17.6964 22.4432 17.44 22.6629 17.1111C22.8827 16.7822 23 16.3956 23 16M10 23H3V1H21V11M3 13H17M3 18H13M3 8H21M17 4H18V5H17V4Z" stroke="white" stroke-width="2"/>
<path d="M33.0568 16.5V7.77273H34.1136V11.6591H38.767V7.77273H39.8239V16.5H38.767V12.5966H34.1136V16.5H33.0568ZM43.7294 16.6534C43.3146 16.6534 42.9382 16.5753 42.6001 16.419C42.2621 16.2599 41.9936 16.0312 41.7947 15.733C41.5959 15.4318 41.4964 15.0682 41.4964 14.642C41.4964 14.267 41.5703 13.9631 41.718 13.7301C41.8658 13.4943 42.0632 13.3097 42.3104 13.1761C42.5575 13.0426 42.8303 12.9432 43.1286 12.8778C43.4297 12.8097 43.7322 12.7557 44.0362 12.7159C44.4339 12.6648 44.7564 12.6264 45.0036 12.6009C45.2536 12.5724 45.4354 12.5256 45.549 12.4602C45.6655 12.3949 45.7237 12.2812 45.7237 12.1193V12.0852C45.7237 11.6648 45.6087 11.3381 45.3786 11.1051C45.1513 10.8722 44.8061 10.7557 44.343 10.7557C43.8629 10.7557 43.4865 10.8608 43.2138 11.071C42.9411 11.2812 42.7493 11.5057 42.6385 11.7443L41.6839 11.4034C41.8544 11.0057 42.0817 10.696 42.3658 10.4744C42.6527 10.25 42.9652 10.0937 43.3033 10.0057C43.6442 9.91477 43.9794 9.86932 44.3089 9.86932C44.5192 9.86932 44.7607 9.89489 45.0334 9.94602C45.3089 9.99432 45.5746 10.0952 45.8303 10.2486C46.0888 10.402 46.3033 10.6335 46.4737 10.9432C46.6442 11.2528 46.7294 11.6676 46.7294 12.1875V16.5H45.7237V15.6136H45.6726C45.6044 15.7557 45.4908 15.9077 45.3317 16.0696C45.1726 16.2315 44.9609 16.3693 44.6967 16.483C44.4325 16.5966 44.1101 16.6534 43.7294 16.6534ZM43.8828 15.75C44.2805 15.75 44.6158 15.6719 44.8885 15.5156C45.1641 15.3594 45.3714 15.1577 45.5107 14.9105C45.6527 14.6634 45.7237 14.4034 45.7237 14.1307V13.2102C45.6811 13.2614 45.5874 13.3082 45.4425 13.3509C45.3004 13.3906 45.1357 13.4261 44.9482 13.4574C44.7635 13.4858 44.5831 13.5114 44.407 13.5341C44.2337 13.554 44.093 13.571 43.9851 13.5852C43.7237 13.6193 43.4794 13.6747 43.2521 13.7514C43.0277 13.8253 42.8459 13.9375 42.7067 14.0881C42.5703 14.2358 42.5021 14.4375 42.5021 14.6932C42.5021 15.0426 42.6314 15.3068 42.8899 15.4858C43.1513 15.6619 43.4822 15.75 43.8828 15.75ZM48.565 16.5V9.95455H49.5366V10.9432H49.6048C49.7241 10.6193 49.94 10.3565 50.2525 10.1548C50.565 9.95312 50.9173 9.85227 51.3093 9.85227C51.3832 9.85227 51.4755 9.85369 51.5863 9.85653C51.6971 9.85937 51.7809 9.86364 51.8377 9.86932V10.892C51.8036 10.8835 51.7255 10.8707 51.6033 10.8537C51.484 10.8338 51.3576 10.8239 51.2241 10.8239C50.9059 10.8239 50.6218 10.8906 50.3718 11.0241C50.1246 11.1548 49.9286 11.3366 49.7837 11.5696C49.6417 11.7997 49.5707 12.0625 49.5707 12.358V16.5H48.565ZM55.3022 16.6364C54.7567 16.6364 54.2752 16.4986 53.8576 16.223C53.44 15.9446 53.1133 15.5526 52.8775 15.0469C52.6417 14.5384 52.5238 13.9375 52.5238 13.2443C52.5238 12.5568 52.6417 11.9602 52.8775 11.4545C53.1133 10.9489 53.4414 10.5582 53.8619 10.2827C54.2823 10.0071 54.7681 9.86932 55.3192 9.86932C55.7454 9.86932 56.082 9.94034 56.3292 10.0824C56.5792 10.2216 56.7695 10.3807 56.9002 10.5597C57.0337 10.7358 57.1374 10.8807 57.2113 10.9943H57.2965V7.77273H58.3022V16.5H57.3306V15.4943H57.2113C57.1374 15.6136 57.0323 15.7642 56.896 15.946C56.7596 16.125 56.565 16.2855 56.3121 16.4276C56.0593 16.5668 55.7227 16.6364 55.3022 16.6364ZM55.4386 15.733C55.842 15.733 56.1829 15.6278 56.4613 15.4176C56.7397 15.2045 56.9513 14.9105 57.0962 14.5355C57.2411 14.1577 57.3136 13.7216 57.3136 13.2273C57.3136 12.7386 57.2425 12.3111 57.1005 11.9446C56.9585 11.5753 56.7482 11.2884 56.4698 11.0838C56.1914 10.8764 55.8477 10.7727 55.4386 10.7727C55.0124 10.7727 54.6573 10.8821 54.3732 11.1009C54.092 11.3168 53.8803 11.6108 53.7383 11.983C53.5991 12.3523 53.5295 12.767 53.5295 13.2273C53.5295 13.6932 53.6005 14.1165 53.7425 14.4972C53.8874 14.875 54.1005 15.1761 54.3817 15.4006C54.6658 15.6222 55.0181 15.733 55.4386 15.733ZM61.7667 16.5L59.7724 9.95455H60.8292L62.244 14.9659H62.3121L63.7099 9.95455H64.7837L66.1644 14.9489H66.2326L67.6474 9.95455H68.7042L66.7099 16.5H65.7212L64.2894 11.4716H64.1871L62.7553 16.5H61.7667ZM71.9599 16.6534C71.5451 16.6534 71.1687 16.5753 70.8306 16.419C70.4925 16.2599 70.2241 16.0312 70.0252 15.733C69.8263 15.4318 69.7269 15.0682 69.7269 14.642C69.7269 14.267 69.8008 13.9631 69.9485 13.7301C70.0962 13.4943 70.2937 13.3097 70.5408 13.1761C70.788 13.0426 71.0607 12.9432 71.359 12.8778C71.6602 12.8097 71.9627 12.7557 72.2667 12.7159C72.6644 12.6648 72.9869 12.6264 73.234 12.6009C73.484 12.5724 73.6658 12.5256 73.7795 12.4602C73.896 12.3949 73.9542 12.2812 73.9542 12.1193V12.0852C73.9542 11.6648 73.8391 11.3381 73.609 11.1051C73.3817 10.8722 73.0366 10.7557 72.5735 10.7557C72.0934 10.7557 71.717 10.8608 71.4442 11.071C71.1715 11.2812 70.9798 11.5057 70.869 11.7443L69.9144 11.4034C70.0849 11.0057 70.3121 10.696 70.5962 10.4744C70.8832 10.25 71.1957 10.0937 71.5337 10.0057C71.8746 9.91477 72.2099 9.86932 72.5394 9.86932C72.7496 9.86932 72.9911 9.89489 73.2638 9.94602C73.5394 9.99432 73.805 10.0952 74.0607 10.2486C74.3192 10.402 74.5337 10.6335 74.7042 10.9432C74.8746 11.2528 74.9599 11.6676 74.9599 12.1875V16.5H73.9542V15.6136H73.9031C73.8349 15.7557 73.7212 15.9077 73.5621 16.0696C73.4031 16.2315 73.1914 16.3693 72.9272 16.483C72.663 16.5966 72.3406 16.6534 71.9599 16.6534ZM72.1133 15.75C72.511 15.75 72.8462 15.6719 73.119 15.5156C73.3945 15.3594 73.6019 15.1577 73.7411 14.9105C73.8832 14.6634 73.9542 14.4034 73.9542 14.1307V13.2102C73.9116 13.2614 73.8178 13.3082 73.6729 13.3509C73.5309 13.3906 73.3661 13.4261 73.1786 13.4574C72.994 13.4858 72.8136 13.5114 72.6374 13.5341C72.4641 13.554 72.3235 13.571 72.2156 13.5852C71.9542 13.6193 71.7099 13.6747 71.4826 13.7514C71.2582 13.8253 71.0763 13.9375 70.9371 14.0881C70.8008 14.2358 70.7326 14.4375 70.7326 14.6932C70.7326 15.0426 70.8619 15.3068 71.1204 15.4858C71.3817 15.6619 71.7127 15.75 72.1133 15.75ZM76.7955 16.5V9.95455H77.767V10.9432H77.8352C77.9545 10.6193 78.1705 10.3565 78.483 10.1548C78.7955 9.95312 79.1477 9.85227 79.5398 9.85227C79.6136 9.85227 79.706 9.85369 79.8168 9.85653C79.9276 9.85937 80.0114 9.86364 80.0682 9.86932V10.892C80.0341 10.8835 79.956 10.8707 79.8338 10.8537C79.7145 10.8338 79.5881 10.8239 79.4545 10.8239C79.1364 10.8239 78.8523 10.8906 78.6023 11.0241C78.3551 11.1548 78.1591 11.3366 78.0142 11.5696C77.8722 11.7997 77.8011 12.0625 77.8011 12.358V16.5H76.7955ZM83.8054 16.6364C83.1747 16.6364 82.6307 16.4972 82.1733 16.2188C81.7188 15.9375 81.3679 15.5455 81.1207 15.0426C80.8764 14.5369 80.7543 13.9489 80.7543 13.2784C80.7543 12.608 80.8764 12.017 81.1207 11.5057C81.3679 10.9915 81.7116 10.5909 82.152 10.304C82.5952 10.0142 83.1122 9.86932 83.7031 9.86932C84.044 9.86932 84.3807 9.92614 84.7131 10.0398C85.0455 10.1534 85.348 10.3381 85.6207 10.5938C85.8935 10.8466 86.1108 11.1818 86.2727 11.5994C86.4347 12.017 86.5156 12.5312 86.5156 13.142V13.5682H81.4702V12.6989H85.4929C85.4929 12.3295 85.419 12 85.2713 11.7102C85.1264 11.4205 84.919 11.1918 84.6491 11.0241C84.3821 10.8565 84.0668 10.7727 83.7031 10.7727C83.3026 10.7727 82.956 10.8722 82.6634 11.071C82.3736 11.267 82.1506 11.5227 81.9943 11.8381C81.8381 12.1534 81.7599 12.4915 81.7599 12.8523V13.4318C81.7599 13.9261 81.8452 14.3452 82.0156 14.6889C82.1889 15.0298 82.429 15.2898 82.7358 15.4688C83.0426 15.6449 83.3991 15.733 83.8054 15.733C84.0696 15.733 84.3082 15.696 84.5213 15.6222C84.7372 15.5455 84.9233 15.4318 85.0795 15.2812C85.2358 15.1278 85.3565 14.9375 85.4418 14.7102L86.4134 14.983C86.3111 15.3125 86.1392 15.6023 85.8977 15.8523C85.6563 16.0994 85.358 16.2926 85.0028 16.4318C84.6477 16.5682 84.2486 16.6364 83.8054 16.6364ZM91.5568 7.77273H92.8182L95.7841 15.017H95.8864L98.8523 7.77273H100.114V16.5H99.125V9.86932H99.0398L96.3125 16.5H95.358L92.6307 9.86932H92.5455V16.5H91.5568V7.77273ZM104.022 16.6534C103.608 16.6534 103.231 16.5753 102.893 16.419C102.555 16.2599 102.287 16.0312 102.088 15.733C101.889 15.4318 101.789 15.0682 101.789 14.642C101.789 14.267 101.863 13.9631 102.011 13.7301C102.159 13.4943 102.356 13.3097 102.603 13.1761C102.85 13.0426 103.123 12.9432 103.422 12.8778C103.723 12.8097 104.025 12.7557 104.329 12.7159C104.727 12.6648 105.049 12.6264 105.297 12.6009C105.547 12.5724 105.728 12.5256 105.842 12.4602C105.958 12.3949 106.017 12.2812 106.017 12.1193V12.0852C106.017 11.6648 105.902 11.3381 105.672 11.1051C105.444 10.8722 105.099 10.7557 104.636 10.7557C104.156 10.7557 103.779 10.8608 103.507 11.071C103.234 11.2812 103.042 11.5057 102.931 11.7443L101.977 11.4034C102.147 11.0057 102.375 10.696 102.659 10.4744C102.946 10.25 103.258 10.0937 103.596 10.0057C103.937 9.91477 104.272 9.86932 104.602 9.86932C104.812 9.86932 105.054 9.89489 105.326 9.94602C105.602 9.99432 105.868 10.0952 106.123 10.2486C106.382 10.402 106.596 10.6335 106.767 10.9432C106.937 11.2528 107.022 11.6676 107.022 12.1875V16.5H106.017V15.6136H105.966C105.897 15.7557 105.784 15.9077 105.625 16.0696C105.466 16.2315 105.254 16.3693 104.99 16.483C104.725 16.5966 104.403 16.6534 104.022 16.6534ZM104.176 15.75C104.574 15.75 104.909 15.6719 105.181 15.5156C105.457 15.3594 105.664 15.1577 105.804 14.9105C105.946 14.6634 106.017 14.4034 106.017 14.1307V13.2102C105.974 13.2614 105.88 13.3082 105.735 13.3509C105.593 13.3906 105.429 13.4261 105.241 13.4574C105.056 13.4858 104.876 13.5114 104.7 13.5341C104.527 13.554 104.386 13.571 104.278 13.5852C104.017 13.6193 103.772 13.6747 103.545 13.7514C103.321 13.8253 103.139 13.9375 103 14.0881C102.863 14.2358 102.795 14.4375 102.795 14.6932C102.795 15.0426 102.924 15.3068 103.183 15.4858C103.444 15.6619 103.775 15.75 104.176 15.75ZM108.858 16.5V9.95455H109.864V16.5H108.858ZM109.369 8.86364C109.173 8.86364 109.004 8.79688 108.862 8.66335C108.723 8.52983 108.653 8.36932 108.653 8.18182C108.653 7.99432 108.723 7.83381 108.862 7.70028C109.004 7.56676 109.173 7.5 109.369 7.5C109.565 7.5 109.733 7.56676 109.872 7.70028C110.014 7.83381 110.085 7.99432 110.085 8.18182C110.085 8.36932 110.014 8.52983 109.872 8.66335C109.733 8.79688 109.565 8.86364 109.369 8.86364ZM112.711 12.5625V16.5H111.706V9.95455H112.677V10.9773H112.762C112.916 10.6449 113.149 10.3778 113.461 10.1761C113.774 9.97159 114.177 9.86932 114.672 9.86932C115.115 9.86932 115.502 9.96023 115.835 10.142C116.167 10.321 116.426 10.5938 116.61 10.9602C116.795 11.3239 116.887 11.7841 116.887 12.3409V16.5H115.882V12.4091C115.882 11.8949 115.748 11.4943 115.481 11.2074C115.214 10.9176 114.848 10.7727 114.382 10.7727C114.061 10.7727 113.774 10.8423 113.521 10.9815C113.271 11.1207 113.074 11.3239 112.929 11.5909C112.784 11.858 112.711 12.1818 112.711 12.5625ZM121.572 9.95455V10.8068H118.18V9.95455H121.572ZM119.168 8.38636H120.174V14.625C120.174 14.9091 120.215 15.1222 120.298 15.2642C120.383 15.4034 120.491 15.4972 120.621 15.5455C120.755 15.5909 120.896 15.6136 121.043 15.6136C121.154 15.6136 121.245 15.608 121.316 15.5966C121.387 15.5824 121.444 15.571 121.487 15.5625L121.691 16.4659C121.623 16.4915 121.528 16.517 121.406 16.5426C121.283 16.571 121.129 16.5852 120.941 16.5852C120.657 16.5852 120.379 16.5241 120.106 16.402C119.836 16.2798 119.612 16.0938 119.433 15.8438C119.256 15.5938 119.168 15.2784 119.168 14.8977V8.38636ZM125.759 16.6364C125.128 16.6364 124.584 16.4972 124.126 16.2188C123.672 15.9375 123.321 15.5455 123.074 15.0426C122.83 14.5369 122.707 13.9489 122.707 13.2784C122.707 12.608 122.83 12.017 123.074 11.5057C123.321 10.9915 123.665 10.5909 124.105 10.304C124.548 10.0142 125.065 9.86932 125.656 9.86932C125.997 9.86932 126.334 9.92614 126.666 10.0398C126.999 10.1534 127.301 10.3381 127.574 10.5938C127.847 10.8466 128.064 11.1818 128.226 11.5994C128.388 12.017 128.469 12.5312 128.469 13.142V13.5682H123.423V12.6989H127.446C127.446 12.3295 127.372 12 127.224 11.7102C127.08 11.4205 126.872 11.1918 126.602 11.0241C126.335 10.8565 126.02 10.7727 125.656 10.7727C125.256 10.7727 124.909 10.8722 124.616 11.071C124.327 11.267 124.104 11.5227 123.947 11.8381C123.791 12.1534 123.713 12.4915 123.713 12.8523V13.4318C123.713 13.9261 123.798 14.3452 123.969 14.6889C124.142 15.0298 124.382 15.2898 124.689 15.4688C124.996 15.6449 125.352 15.733 125.759 15.733C126.023 15.733 126.261 15.696 126.474 15.6222C126.69 15.5455 126.876 15.4318 127.033 15.2812C127.189 15.1278 127.31 14.9375 127.395 14.7102L128.366 14.983C128.264 15.3125 128.092 15.6023 127.851 15.8523C127.609 16.0994 127.311 16.2926 126.956 16.4318C126.601 16.5682 126.202 16.6364 125.759 16.6364ZM131.004 12.5625V16.5H129.999V9.95455H130.97V10.9773H131.055C131.209 10.6449 131.442 10.3778 131.754 10.1761C132.067 9.97159 132.47 9.86932 132.964 9.86932C133.408 9.86932 133.795 9.96023 134.128 10.142C134.46 10.321 134.719 10.5938 134.903 10.9602C135.088 11.3239 135.18 11.7841 135.18 12.3409V16.5H134.175V12.4091C134.175 11.8949 134.041 11.4943 133.774 11.2074C133.507 10.9176 133.141 10.7727 132.675 10.7727C132.354 10.7727 132.067 10.8423 131.814 10.9815C131.564 11.1207 131.366 11.3239 131.222 11.5909C131.077 11.858 131.004 12.1818 131.004 12.5625ZM138.944 16.6534C138.529 16.6534 138.153 16.5753 137.815 16.419C137.477 16.2599 137.208 16.0312 137.01 15.733C136.811 15.4318 136.711 15.0682 136.711 14.642C136.711 14.267 136.785 13.9631 136.933 13.7301C137.081 13.4943 137.278 13.3097 137.525 13.1761C137.772 13.0426 138.045 12.9432 138.343 12.8778C138.645 12.8097 138.947 12.7557 139.251 12.7159C139.649 12.6648 139.971 12.6264 140.218 12.6009C140.468 12.5724 140.65 12.5256 140.764 12.4602C140.88 12.3949 140.939 12.2812 140.939 12.1193V12.0852C140.939 11.6648 140.824 11.3381 140.593 11.1051C140.366 10.8722 140.021 10.7557 139.558 10.7557C139.078 10.7557 138.701 10.8608 138.429 11.071C138.156 11.2812 137.964 11.5057 137.853 11.7443L136.899 11.4034C137.069 11.0057 137.297 10.696 137.581 10.4744C137.868 10.25 138.18 10.0937 138.518 10.0057C138.859 9.91477 139.194 9.86932 139.524 9.86932C139.734 9.86932 139.975 9.89489 140.248 9.94602C140.524 9.99432 140.789 10.0952 141.045 10.2486C141.304 10.402 141.518 10.6335 141.689 10.9432C141.859 11.2528 141.944 11.6676 141.944 12.1875V16.5H140.939V15.6136H140.887C140.819 15.7557 140.706 15.9077 140.547 16.0696C140.387 16.2315 140.176 16.3693 139.912 16.483C139.647 16.5966 139.325 16.6534 138.944 16.6534ZM139.098 15.75C139.495 15.75 139.831 15.6719 140.103 15.5156C140.379 15.3594 140.586 15.1577 140.725 14.9105C140.868 14.6634 140.939 14.4034 140.939 14.1307V13.2102C140.896 13.2614 140.802 13.3082 140.657 13.3509C140.515 13.3906 140.35 13.4261 140.163 13.4574C139.978 13.4858 139.798 13.5114 139.622 13.5341C139.449 13.554 139.308 13.571 139.2 13.5852C138.939 13.6193 138.694 13.6747 138.467 13.7514C138.243 13.8253 138.061 13.9375 137.922 14.0881C137.785 14.2358 137.717 14.4375 137.717 14.6932C137.717 15.0426 137.846 15.3068 138.105 15.4858C138.366 15.6619 138.697 15.75 139.098 15.75ZM144.786 12.5625V16.5H143.78V9.95455H144.751V10.9773H144.837C144.99 10.6449 145.223 10.3778 145.536 10.1761C145.848 9.97159 146.251 9.86932 146.746 9.86932C147.189 9.86932 147.577 9.96023 147.909 10.142C148.241 10.321 148.5 10.5938 148.685 10.9602C148.869 11.3239 148.962 11.7841 148.962 12.3409V16.5H147.956V12.4091C147.956 11.8949 147.822 11.4943 147.555 11.2074C147.288 10.9176 146.922 10.7727 146.456 10.7727C146.135 10.7727 145.848 10.8423 145.595 10.9815C145.345 11.1207 145.148 11.3239 145.003 11.5909C144.858 11.858 144.786 12.1818 144.786 12.5625ZM153.458 16.6364C152.845 16.6364 152.316 16.4915 151.873 16.2017C151.43 15.9119 151.089 15.5128 150.85 15.0043C150.612 14.4957 150.493 13.9148 150.493 13.2614C150.493 12.5966 150.615 12.0099 150.859 11.5014C151.106 10.9901 151.45 10.5909 151.89 10.304C152.333 10.0142 152.85 9.86932 153.441 9.86932C153.902 9.86932 154.316 9.95455 154.686 10.125C155.055 10.2955 155.358 10.5341 155.593 10.8409C155.829 11.1477 155.975 11.5057 156.032 11.9148H155.027C154.95 11.6165 154.779 11.3523 154.515 11.1222C154.254 10.8892 153.902 10.7727 153.458 10.7727C153.066 10.7727 152.723 10.875 152.427 11.0795C152.135 11.2812 151.906 11.5668 151.741 11.9361C151.579 12.3026 151.498 12.733 151.498 13.2273C151.498 13.733 151.578 14.1733 151.737 14.5483C151.899 14.9233 152.126 15.2145 152.419 15.4219C152.714 15.6293 153.061 15.733 153.458 15.733C153.72 15.733 153.957 15.6875 154.17 15.5966C154.383 15.5057 154.564 15.375 154.711 15.2045C154.859 15.0341 154.964 14.8295 155.027 14.5909H156.032C155.975 14.9773 155.835 15.3253 155.61 15.6349C155.389 15.9418 155.095 16.1861 154.728 16.3679C154.365 16.5469 153.941 16.6364 153.458 16.6364ZM160.247 16.6364C159.616 16.6364 159.072 16.4972 158.615 16.2188C158.16 15.9375 157.809 15.5455 157.562 15.0426C157.318 14.5369 157.196 13.9489 157.196 13.2784C157.196 12.608 157.318 12.017 157.562 11.5057C157.809 10.9915 158.153 10.5909 158.593 10.304C159.037 10.0142 159.554 9.86932 160.145 9.86932C160.485 9.86932 160.822 9.92614 161.154 10.0398C161.487 10.1534 161.789 10.3381 162.062 10.5938C162.335 10.8466 162.552 11.1818 162.714 11.5994C162.876 12.017 162.957 12.5312 162.957 13.142V13.5682H157.912V12.6989H161.934C161.934 12.3295 161.86 12 161.713 11.7102C161.568 11.4205 161.36 11.1918 161.091 11.0241C160.824 10.8565 160.508 10.7727 160.145 10.7727C159.744 10.7727 159.397 10.8722 159.105 11.071C158.815 11.267 158.592 11.5227 158.436 11.8381C158.279 12.1534 158.201 12.4915 158.201 12.8523V13.4318C158.201 13.9261 158.287 14.3452 158.457 14.6889C158.63 15.0298 158.87 15.2898 159.177 15.4688C159.484 15.6449 159.841 15.733 160.247 15.733C160.511 15.733 160.75 15.696 160.963 15.6222C161.179 15.5455 161.365 15.4318 161.521 15.2812C161.677 15.1278 161.798 14.9375 161.883 14.7102L162.855 14.983C162.752 15.3125 162.581 15.6023 162.339 15.8523C162.098 16.0994 161.799 16.2926 161.444 16.4318C161.089 16.5682 160.69 16.6364 160.247 16.6364Z" fill="white"/>
</svg>
