<svg width="145" height="145" viewBox="0 0 145 145" fill="none" xmlns="http://www.w3.org/2000/svg">
<path d="M72.4987 126.875C105.866 126.875 132.915 99.8254 132.915 66.4582C132.915 33.091 105.866 6.0415 72.4987 6.0415C39.1315 6.0415 12.082 33.091 12.082 66.4582C12.082 99.8254 39.1315 126.875 72.4987 126.875Z" fill="#FFF59D"/>
<path d="M111.772 66.4586C111.772 43.1981 91.835 24.7711 67.9704 27.4898C49.8454 29.6044 35.3454 44.1044 33.5329 62.2294C32.0225 76.1252 37.762 88.5106 47.4287 96.3648C51.6579 99.9898 54.3766 105.125 54.3766 110.865V111.771H90.6266V111.469C90.6266 106.031 93.0433 100.594 97.2724 96.969C106.033 89.719 111.772 78.844 111.772 66.4586Z" fill="#FBC02D"/>
<path d="M92.4375 61.0207L83.375 54.979C82.4688 54.3748 80.9583 54.3748 80.0521 54.979L72.5 59.8123L65.25 54.979C64.3438 54.3748 62.8333 54.3748 61.9271 54.979L52.8646 61.0207C52.2604 61.6248 51.6563 62.229 51.6563 63.1353C51.6563 64.0415 51.6562 64.9478 52.2604 65.5519L63.7396 79.7498V111.771H69.7813V78.5415C69.7813 77.9373 69.4792 77.3332 69.1771 76.729L59.2083 64.3436L63.7396 61.3227L70.9896 66.1561C71.8958 66.7603 73.4063 66.7603 74.3125 66.1561L81.5625 61.3227L86.0938 64.3436L76.125 76.729C75.8229 77.3332 75.5208 77.9373 75.5208 78.5415V111.771H81.5625V79.7498L93.0417 65.5519C93.6458 64.9478 93.9479 64.0415 93.6458 63.1353C93.3438 62.229 93.0417 61.3228 92.4375 61.0207Z" fill="#FFF59D"/>
<path d="M72.5 141.979C77.5051 141.979 81.5625 137.922 81.5625 132.917C81.5625 127.912 77.5051 123.854 72.5 123.854C67.4949 123.854 63.4375 127.912 63.4375 132.917C63.4375 137.922 67.4949 141.979 72.5 141.979Z" fill="#5C6BC0"/>
<path d="M78.5417 135.937H66.4583C59.8125 135.937 54.375 130.5 54.375 123.854V108.75H90.625V123.854C90.625 130.5 85.1875 135.937 78.5417 135.937Z" fill="#9FA8DA"/>
<path d="M90.625 123.854L55.5833 128.687C56.4896 130.802 58.3021 132.916 60.4167 134.125L88.8125 130.198C90.0208 128.385 90.625 126.271 90.625 123.854ZM54.375 116.906V122.948L90.625 117.812V111.771L54.375 116.906Z" fill="#5C6BC0"/>
</svg>
