<svg width="86" height="24" viewBox="0 0 86 24" fill="none" xmlns="http://www.w3.org/2000/svg">
<path d="M12 3C7.58 3 4 4.79 4 7V17C4 19.21 7.59 21 12 21C16.41 21 20 19.21 20 17V7C20 4.79 16.42 3 12 3ZM18 17C18 17.5 15.87 19 12 19C8.13 19 6 17.5 6 17V14.77C7.61 15.55 9.72 16 12 16C14.28 16 16.39 15.55 18 14.77V17ZM18 12.45C16.7 13.4 14.42 14 12 14C9.58 14 7.3 13.4 6 12.45V9.64C7.47 10.47 9.61 11 12 11C14.39 11 16.53 10.47 18 9.64V12.45ZM12 9C8.13 9 6 7.5 6 7C6 6.5 8.13 5 12 5C15.87 5 18 6.5 18 7C18 7.5 15.87 9 12 9Z" fill="white"/>
<path d="M35.75 16.5H33.0568V7.77273H35.8693C36.7159 7.77273 37.4403 7.94744 38.0426 8.29688C38.6449 8.64347 39.1065 9.14205 39.4276 9.79261C39.7486 10.4403 39.9091 11.2159 39.9091 12.1193C39.9091 13.0284 39.7472 13.8111 39.4233 14.4673C39.0994 15.1207 38.6278 15.6236 38.0085 15.9759C37.3892 16.3253 36.6364 16.5 35.75 16.5ZM34.1136 15.5625H35.6818C36.4034 15.5625 37.0014 15.4233 37.4759 15.1449C37.9503 14.8665 38.304 14.4702 38.5369 13.956C38.7699 13.4418 38.8864 12.8295 38.8864 12.1193C38.8864 11.4148 38.7713 10.8082 38.5412 10.2997C38.3111 9.78835 37.9673 9.39631 37.5099 9.12358C37.0526 8.84801 36.483 8.71023 35.8011 8.71023H34.1136V15.5625ZM43.4716 16.6534C43.0568 16.6534 42.6804 16.5753 42.3423 16.419C42.0043 16.2599 41.7358 16.0312 41.5369 15.733C41.3381 15.4318 41.2386 15.0682 41.2386 14.642C41.2386 14.267 41.3125 13.9631 41.4602 13.7301C41.608 13.4943 41.8054 13.3097 42.0526 13.1761C42.2997 13.0426 42.5724 12.9432 42.8707 12.8778C43.1719 12.8097 43.4744 12.7557 43.7784 12.7159C44.1761 12.6648 44.4986 12.6264 44.7457 12.6009C44.9957 12.5724 45.1776 12.5256 45.2912 12.4602C45.4077 12.3949 45.4659 12.2812 45.4659 12.1193V12.0852C45.4659 11.6648 45.3509 11.3381 45.1207 11.1051C44.8935 10.8722 44.5483 10.7557 44.0852 10.7557C43.6051 10.7557 43.2287 10.8608 42.956 11.071C42.6832 11.2812 42.4915 11.5057 42.3807 11.7443L41.4261 11.4034C41.5966 11.0057 41.8239 10.696 42.108 10.4744C42.3949 10.25 42.7074 10.0937 43.0455 10.0057C43.3864 9.91477 43.7216 9.86932 44.0511 9.86932C44.2614 9.86932 44.5028 9.89489 44.7756 9.94602C45.0511 9.99432 45.3168 10.0952 45.5724 10.2486C45.831 10.402 46.0455 10.6335 46.2159 10.9432C46.3864 11.2528 46.4716 11.6676 46.4716 12.1875V16.5H45.4659V15.6136H45.4148C45.3466 15.7557 45.233 15.9077 45.0739 16.0696C44.9148 16.2315 44.7031 16.3693 44.4389 16.483C44.1747 16.5966 43.8523 16.6534 43.4716 16.6534ZM43.625 15.75C44.0227 15.75 44.358 15.6719 44.6307 15.5156C44.9063 15.3594 45.1136 15.1577 45.2528 14.9105C45.3949 14.6634 45.4659 14.4034 45.4659 14.1307V13.2102C45.4233 13.2614 45.3295 13.3082 45.1847 13.3509C45.0426 13.3906 44.8778 13.4261 44.6903 13.4574C44.5057 13.4858 44.3253 13.5114 44.1491 13.5341C43.9759 13.554 43.8352 13.571 43.7273 13.5852C43.4659 13.6193 43.2216 13.6747 42.9943 13.7514C42.7699 13.8253 42.5881 13.9375 42.4489 14.0881C42.3125 14.2358 42.2443 14.4375 42.2443 14.6932C42.2443 15.0426 42.3736 15.3068 42.6321 15.4858C42.8935 15.6619 43.2244 15.75 43.625 15.75ZM51.1538 9.95455V10.8068H47.7617V9.95455H51.1538ZM48.7504 8.38636H49.756V14.625C49.756 14.9091 49.7972 15.1222 49.8796 15.2642C49.9648 15.4034 50.0728 15.4972 50.2035 15.5455C50.337 15.5909 50.4776 15.6136 50.6254 15.6136C50.7362 15.6136 50.8271 15.608 50.8981 15.5966C50.9691 15.5824 51.0259 15.571 51.0685 15.5625L51.2731 16.4659C51.2049 16.4915 51.1097 16.517 50.9876 16.5426C50.8654 16.571 50.7106 16.5852 50.5231 16.5852C50.239 16.5852 49.9606 16.5241 49.6879 16.402C49.418 16.2798 49.1935 16.0938 49.0146 15.8438C48.8384 15.5938 48.7504 15.2784 48.7504 14.8977V8.38636ZM54.5927 16.6534C54.1779 16.6534 53.8015 16.5753 53.4634 16.419C53.1254 16.2599 52.8569 16.0312 52.658 15.733C52.4592 15.4318 52.3597 15.0682 52.3597 14.642C52.3597 14.267 52.4336 13.9631 52.5813 13.7301C52.729 13.4943 52.9265 13.3097 53.1737 13.1761C53.4208 13.0426 53.6935 12.9432 53.9918 12.8778C54.293 12.8097 54.5955 12.7557 54.8995 12.7159C55.2972 12.6648 55.6197 12.6264 55.8668 12.6009C56.1168 12.5724 56.2987 12.5256 56.4123 12.4602C56.5288 12.3949 56.587 12.2812 56.587 12.1193V12.0852C56.587 11.6648 56.4719 11.3381 56.2418 11.1051C56.0146 10.8722 55.6694 10.7557 55.2063 10.7557C54.7262 10.7557 54.3498 10.8608 54.0771 11.071C53.8043 11.2812 53.6126 11.5057 53.5018 11.7443L52.5472 11.4034C52.7177 11.0057 52.945 10.696 53.229 10.4744C53.516 10.25 53.8285 10.0937 54.1665 10.0057C54.5075 9.91477 54.8427 9.86932 55.1722 9.86932C55.3825 9.86932 55.6239 9.89489 55.8967 9.94602C56.1722 9.99432 56.4379 10.0952 56.6935 10.2486C56.9521 10.402 57.1665 10.6335 57.337 10.9432C57.5075 11.2528 57.5927 11.6676 57.5927 12.1875V16.5H56.587V15.6136H56.5359C56.4677 15.7557 56.354 15.9077 56.195 16.0696C56.0359 16.2315 55.8242 16.3693 55.56 16.483C55.2958 16.5966 54.9734 16.6534 54.5927 16.6534ZM54.7461 15.75C55.1438 15.75 55.479 15.6719 55.7518 15.5156C56.0273 15.3594 56.2347 15.1577 56.3739 14.9105C56.516 14.6634 56.587 14.4034 56.587 14.1307V13.2102C56.5444 13.2614 56.4506 13.3082 56.3058 13.3509C56.1637 13.3906 55.9989 13.4261 55.8114 13.4574C55.6268 13.4858 55.4464 13.5114 55.2702 13.5341C55.0969 13.554 54.9563 13.571 54.8484 13.5852C54.587 13.6193 54.3427 13.6747 54.1154 13.7514C53.891 13.8253 53.7092 13.9375 53.57 14.0881C53.4336 14.2358 53.3654 14.4375 53.3654 14.6932C53.3654 15.0426 53.4947 15.3068 53.7532 15.4858C54.0146 15.6619 54.3455 15.75 54.7461 15.75ZM59.5646 16.5V7.77273H60.5703V10.9943H60.6555C60.7294 10.8807 60.8317 10.7358 60.9624 10.5597C61.0959 10.3807 61.2862 10.2216 61.5334 10.0824C61.7834 9.94034 62.1214 9.86932 62.5476 9.86932C63.0987 9.86932 63.5845 10.0071 64.005 10.2827C64.4254 10.5582 64.7536 10.9489 64.9893 11.4545C65.2251 11.9602 65.343 12.5568 65.343 13.2443C65.343 13.9375 65.2251 14.5384 64.9893 15.0469C64.7536 15.5526 64.4268 15.9446 64.0092 16.223C63.5916 16.4986 63.1101 16.6364 62.5646 16.6364C62.1442 16.6364 61.8075 16.5668 61.5547 16.4276C61.3018 16.2855 61.1072 16.125 60.9709 15.946C60.8345 15.7642 60.7294 15.6136 60.6555 15.4943H60.5362V16.5H59.5646ZM60.5533 13.2273C60.5533 13.7216 60.6257 14.1577 60.7706 14.5355C60.9155 14.9105 61.1271 15.2045 61.4055 15.4176C61.6839 15.6278 62.0249 15.733 62.4283 15.733C62.8487 15.733 63.1996 15.6222 63.4808 15.4006C63.7649 15.1761 63.978 14.875 64.12 14.4972C64.2649 14.1165 64.3374 13.6932 64.3374 13.2273C64.3374 12.767 64.2663 12.3523 64.1243 11.983C63.9851 11.6108 63.7734 11.3168 63.4893 11.1009C63.2081 10.8821 62.8544 10.7727 62.4283 10.7727C62.0192 10.7727 61.6754 10.8764 61.397 11.0838C61.1186 11.2884 60.9084 11.5753 60.7663 11.9446C60.6243 12.3111 60.5533 12.7386 60.5533 13.2273ZM68.8075 16.6534C68.3928 16.6534 68.0163 16.5753 67.6783 16.419C67.3402 16.2599 67.0717 16.0312 66.8729 15.733C66.674 15.4318 66.5746 15.0682 66.5746 14.642C66.5746 14.267 66.6484 13.9631 66.7962 13.7301C66.9439 13.4943 67.1413 13.3097 67.3885 13.1761C67.6357 13.0426 67.9084 12.9432 68.2067 12.8778C68.5078 12.8097 68.8104 12.7557 69.1143 12.7159C69.5121 12.6648 69.8345 12.6264 70.0817 12.6009C70.3317 12.5724 70.5135 12.5256 70.6271 12.4602C70.7436 12.3949 70.8018 12.2812 70.8018 12.1193V12.0852C70.8018 11.6648 70.6868 11.3381 70.4567 11.1051C70.2294 10.8722 69.8842 10.7557 69.4212 10.7557C68.9411 10.7557 68.5646 10.8608 68.2919 11.071C68.0192 11.2812 67.8274 11.5057 67.7166 11.7443L66.7621 11.4034C66.9325 11.0057 67.1598 10.696 67.4439 10.4744C67.7308 10.25 68.0433 10.0937 68.3814 10.0057C68.7223 9.91477 69.0575 9.86932 69.3871 9.86932C69.5973 9.86932 69.8388 9.89489 70.1115 9.94602C70.3871 9.99432 70.6527 10.0952 70.9084 10.2486C71.1669 10.402 71.3814 10.6335 71.5518 10.9432C71.7223 11.2528 71.8075 11.6676 71.8075 12.1875V16.5H70.8018V15.6136H70.7507C70.6825 15.7557 70.5689 15.9077 70.4098 16.0696C70.2507 16.2315 70.0391 16.3693 69.7749 16.483C69.5107 16.5966 69.1882 16.6534 68.8075 16.6534ZM68.9609 15.75C69.3587 15.75 69.6939 15.6719 69.9666 15.5156C70.2422 15.3594 70.4496 15.1577 70.5888 14.9105C70.7308 14.6634 70.8018 14.4034 70.8018 14.1307V13.2102C70.7592 13.2614 70.6655 13.3082 70.5206 13.3509C70.3786 13.3906 70.2138 13.4261 70.0263 13.4574C69.8416 13.4858 69.6612 13.5114 69.4851 13.5341C69.3118 13.554 69.1712 13.571 69.0632 13.5852C68.8018 13.6193 68.5575 13.6747 68.3303 13.7514C68.1058 13.8253 67.924 13.9375 67.7848 14.0881C67.6484 14.2358 67.5803 14.4375 67.5803 14.6932C67.5803 15.0426 67.7095 15.3068 67.968 15.4858C68.2294 15.6619 68.5604 15.75 68.9609 15.75ZM78.2795 11.4205L77.3761 11.6761C77.3192 11.5256 77.2354 11.3793 77.1246 11.2372C77.0167 11.0923 76.869 10.973 76.6815 10.8793C76.494 10.7855 76.2539 10.7386 75.9613 10.7386C75.5607 10.7386 75.2269 10.831 74.9599 11.0156C74.6957 11.1974 74.5636 11.429 74.5636 11.7102C74.5636 11.9602 74.6545 12.1577 74.8363 12.3026C75.0181 12.4474 75.3022 12.5682 75.6886 12.6648L76.6602 12.9034C77.2454 13.0455 77.6815 13.2628 77.9684 13.5554C78.2553 13.8452 78.3988 14.2187 78.3988 14.6761C78.3988 15.0511 78.2908 15.3864 78.0749 15.6818C77.8619 15.9773 77.5636 16.2102 77.18 16.3807C76.7965 16.5511 76.3505 16.6364 75.842 16.6364C75.1744 16.6364 74.6218 16.4915 74.1843 16.2017C73.7468 15.9119 73.4698 15.4886 73.3533 14.9318L74.3079 14.6932C74.3988 15.0455 74.5707 15.3097 74.8235 15.4858C75.0792 15.6619 75.413 15.75 75.8249 15.75C76.2937 15.75 76.6658 15.6506 76.9414 15.4517C77.2198 15.25 77.359 15.0085 77.359 14.7273C77.359 14.5 77.2795 14.3097 77.1204 14.1562C76.9613 14 76.717 13.8835 76.3874 13.8068L75.2965 13.5511C74.6971 13.4091 74.2567 13.1889 73.9755 12.8906C73.6971 12.5895 73.5579 12.2131 73.5579 11.7614C73.5579 11.392 73.6616 11.0653 73.869 10.7812C74.0792 10.4972 74.3647 10.2741 74.7255 10.1122C75.0891 9.95028 75.5011 9.86932 75.9613 9.86932C76.609 9.86932 77.1175 10.0114 77.4869 10.2955C77.859 10.5795 78.1232 10.9545 78.2795 11.4205ZM82.657 16.6364C82.0263 16.6364 81.4822 16.4972 81.0249 16.2188C80.5703 15.9375 80.2195 15.5455 79.9723 15.0426C79.728 14.5369 79.6058 13.9489 79.6058 13.2784C79.6058 12.608 79.728 12.017 79.9723 11.5057C80.2195 10.9915 80.5632 10.5909 81.0036 10.304C81.4467 10.0142 81.9638 9.86932 82.5547 9.86932C82.8956 9.86932 83.2322 9.92614 83.5646 10.0398C83.897 10.1534 84.1996 10.3381 84.4723 10.5938C84.745 10.8466 84.9624 11.1818 85.1243 11.5994C85.2862 12.017 85.3672 12.5312 85.3672 13.142V13.5682H80.3217V12.6989H84.3445C84.3445 12.3295 84.2706 12 84.1229 11.7102C83.978 11.4205 83.7706 11.1918 83.5007 11.0241C83.2337 10.8565 82.9183 10.7727 82.5547 10.7727C82.1541 10.7727 81.8075 10.8722 81.5149 11.071C81.2251 11.267 81.0021 11.5227 80.8459 11.8381C80.6896 12.1534 80.6115 12.4915 80.6115 12.8523V13.4318C80.6115 13.9261 80.6967 14.3452 80.8672 14.6889C81.0405 15.0298 81.2805 15.2898 81.5874 15.4688C81.8942 15.6449 82.2507 15.733 82.657 15.733C82.9212 15.733 83.1598 15.696 83.3729 15.6222C83.5888 15.5455 83.7749 15.4318 83.9311 15.2812C84.0874 15.1278 84.2081 14.9375 84.2933 14.7102L85.2649 14.983C85.1626 15.3125 84.9908 15.6023 84.7493 15.8523C84.5078 16.0994 84.2095 16.2926 83.8544 16.4318C83.4993 16.5682 83.1001 16.6364 82.657 16.6364Z" fill="white"/>
</svg>
