<svg width="98" height="24" viewBox="0 0 98 24" fill="none" xmlns="http://www.w3.org/2000/svg">
<path d="M17 9H8V7H17V9ZM7 7H5V9H7V7ZM7 4H5V6H7V4ZM10 4H8V6H10V4ZM13 17V19H14C14.55 19 15 19.45 15 20H22V22H15C15 22.55 14.55 23 14 23H10C9.45 23 9 22.55 9 22H2V20H9C9 19.45 9.45 19 10 19H11V17H4C2.89 17 2 16.11 2 15V3C2 2.46957 2.21071 1.96086 2.58579 1.58579C2.96086 1.21071 3.46957 1 4 1H20C21.11 1 22 1.89 22 3V15C22 16.11 21.11 17 20 17H13ZM20 15V3H4V15H20ZM11 6H19V4H11V6ZM5 12H11V10H5V12ZM13 14H19V12H13V14Z" fill="white"/>
<path d="M39.9773 7.77273V16.5H38.9545L34.1989 9.64773H34.1136V16.5H33.0568V7.77273H34.0795L38.8523 14.642H38.9375V7.77273H39.9773ZM44.6999 16.6364C44.0692 16.6364 43.5252 16.4972 43.0678 16.2188C42.6133 15.9375 42.2624 15.5455 42.0153 15.0426C41.771 14.5369 41.6488 13.9489 41.6488 13.2784C41.6488 12.608 41.771 12.017 42.0153 11.5057C42.2624 10.9915 42.6062 10.5909 43.0465 10.304C43.4897 10.0142 44.0067 9.86932 44.5977 9.86932C44.9386 9.86932 45.2752 9.92614 45.6076 10.0398C45.94 10.1534 46.2425 10.3381 46.5153 10.5938C46.788 10.8466 47.0053 11.1818 47.1673 11.5994C47.3292 12.017 47.4102 12.5312 47.4102 13.142V13.5682H42.3647V12.6989H46.3874C46.3874 12.3295 46.3136 12 46.1658 11.7102C46.021 11.4205 45.8136 11.1918 45.5437 11.0241C45.2766 10.8565 44.9613 10.7727 44.5977 10.7727C44.1971 10.7727 43.8505 10.8722 43.5579 11.071C43.2681 11.267 43.0451 11.5227 42.8888 11.8381C42.7326 12.1534 42.6545 12.4915 42.6545 12.8523V13.4318C42.6545 13.9261 42.7397 14.3452 42.9102 14.6889C43.0835 15.0298 43.3235 15.2898 43.6303 15.4688C43.9371 15.6449 44.2937 15.733 44.6999 15.733C44.9641 15.733 45.2028 15.696 45.4158 15.6222C45.6317 15.5455 45.8178 15.4318 45.9741 15.2812C46.1303 15.1278 46.2511 14.9375 46.3363 14.7102L47.3079 14.983C47.2056 15.3125 47.0337 15.6023 46.7923 15.8523C46.5508 16.0994 46.2525 16.2926 45.8974 16.4318C45.5423 16.5682 45.1431 16.6364 44.6999 16.6364ZM51.7866 9.95455V10.8068H48.3945V9.95455H51.7866ZM49.3832 8.38636H50.3888V14.625C50.3888 14.9091 50.43 15.1222 50.5124 15.2642C50.5977 15.4034 50.7056 15.4972 50.8363 15.5455C50.9698 15.5909 51.1104 15.6136 51.2582 15.6136C51.369 15.6136 51.4599 15.608 51.5309 15.5966C51.6019 15.5824 51.6587 15.571 51.7013 15.5625L51.9059 16.4659C51.8377 16.4915 51.7425 16.517 51.6204 16.5426C51.4982 16.571 51.3434 16.5852 51.1559 16.5852C50.8718 16.5852 50.5934 16.5241 50.3207 16.402C50.0508 16.2798 49.8263 16.0938 49.6474 15.8438C49.4712 15.5938 49.3832 15.2784 49.3832 14.8977V8.38636ZM54.7823 16.5L52.788 9.95455H53.8448L55.2596 14.9659H55.3278L56.7255 9.95455H57.7994L59.18 14.9489H59.2482L60.663 9.95455H61.7198L59.7255 16.5H58.7369L57.305 11.4716H57.2028L55.771 16.5H54.7823ZM65.4858 16.6364C64.8949 16.6364 64.3764 16.4957 63.9304 16.2145C63.4872 15.9332 63.1406 15.5398 62.8906 15.0341C62.6435 14.5284 62.5199 13.9375 62.5199 13.2614C62.5199 12.5795 62.6435 11.9844 62.8906 11.4759C63.1406 10.9673 63.4872 10.5724 63.9304 10.2912C64.3764 10.0099 64.8949 9.86932 65.4858 9.86932C66.0767 9.86932 66.5938 10.0099 67.0369 10.2912C67.483 10.5724 67.8295 10.9673 68.0767 11.4759C68.3267 11.9844 68.4517 12.5795 68.4517 13.2614C68.4517 13.9375 68.3267 14.5284 68.0767 15.0341C67.8295 15.5398 67.483 15.9332 67.0369 16.2145C66.5938 16.4957 66.0767 16.6364 65.4858 16.6364ZM65.4858 15.733C65.9347 15.733 66.304 15.6179 66.5938 15.3878C66.8835 15.1577 67.098 14.8551 67.2372 14.4801C67.3764 14.1051 67.446 13.6989 67.446 13.2614C67.446 12.8239 67.3764 12.4162 67.2372 12.0384C67.098 11.6605 66.8835 11.3551 66.5938 11.1222C66.304 10.8892 65.9347 10.7727 65.4858 10.7727C65.0369 10.7727 64.6676 10.8892 64.3778 11.1222C64.0881 11.3551 63.8736 11.6605 63.7344 12.0384C63.5952 12.4162 63.5256 12.8239 63.5256 13.2614C63.5256 13.6989 63.5952 14.1051 63.7344 14.4801C63.8736 14.8551 64.0881 15.1577 64.3778 15.3878C64.6676 15.6179 65.0369 15.733 65.4858 15.733ZM69.9869 16.5V9.95455H70.9585V10.9432H71.0266C71.146 10.6193 71.3619 10.3565 71.6744 10.1548C71.9869 9.95312 72.3391 9.85227 72.7312 9.85227C72.805 9.85227 72.8974 9.85369 73.0082 9.85653C73.119 9.85937 73.2028 9.86364 73.2596 9.86932V10.892C73.2255 10.8835 73.1474 10.8707 73.0252 10.8537C72.9059 10.8338 72.7795 10.8239 72.646 10.8239C72.3278 10.8239 72.0437 10.8906 71.7937 11.0241C71.5465 11.1548 71.3505 11.3366 71.2056 11.5696C71.0636 11.7997 70.9925 12.0625 70.9925 12.358V16.5H69.9869ZM75.3892 14.1136L75.3722 12.8693H75.5767L78.4403 9.95455H79.6847L76.6335 13.0398H76.5483L75.3892 14.1136ZM74.4517 16.5V7.77273H75.4574V16.5H74.4517ZM78.6108 16.5L76.054 13.2614L76.7699 12.5625L79.8892 16.5H78.6108ZM80.979 16.5V9.95455H81.9847V16.5H80.979ZM81.4904 8.86364C81.2944 8.86364 81.1254 8.79688 80.9833 8.66335C80.8441 8.52983 80.7745 8.36932 80.7745 8.18182C80.7745 7.99432 80.8441 7.83381 80.9833 7.70028C81.1254 7.56676 81.2944 7.5 81.4904 7.5C81.6864 7.5 81.854 7.56676 81.9933 7.70028C82.1353 7.83381 82.2063 7.99432 82.2063 8.18182C82.2063 8.36932 82.1353 8.52983 81.9933 8.66335C81.854 8.79688 81.6864 8.86364 81.4904 8.86364ZM84.8324 12.5625V16.5H83.8267V9.95455H84.7983V10.9773H84.8835C85.0369 10.6449 85.2699 10.3778 85.5824 10.1761C85.8949 9.97159 86.2983 9.86932 86.7926 9.86932C87.2358 9.86932 87.6236 9.96023 87.956 10.142C88.2884 10.321 88.5469 10.5938 88.7315 10.9602C88.9162 11.3239 89.0085 11.7841 89.0085 12.3409V16.5H88.0028V12.4091C88.0028 11.8949 87.8693 11.4943 87.6023 11.2074C87.3352 10.9176 86.9688 10.7727 86.5028 10.7727C86.1818 10.7727 85.8949 10.8423 85.642 10.9815C85.392 11.1207 85.1946 11.3239 85.0497 11.5909C84.9048 11.858 84.8324 12.1818 84.8324 12.5625ZM93.4883 19.0909C93.0025 19.0909 92.5849 19.0284 92.2354 18.9034C91.886 18.7812 91.5948 18.6193 91.3619 18.4176C91.1317 18.2188 90.9485 18.0057 90.8121 17.7784L91.6133 17.2159C91.7042 17.3352 91.8192 17.4716 91.9585 17.625C92.0977 17.7812 92.288 17.9162 92.5295 18.0298C92.7738 18.1463 93.0934 18.2045 93.4883 18.2045C94.0167 18.2045 94.4528 18.0767 94.7965 17.821C95.1403 17.5653 95.3121 17.1648 95.3121 16.6193V15.2898H95.2269C95.1531 15.4091 95.0479 15.5568 94.9116 15.733C94.7781 15.9062 94.5849 16.0611 94.332 16.1974C94.082 16.331 93.744 16.3977 93.3178 16.3977C92.7894 16.3977 92.315 16.2727 91.8945 16.0227C91.4769 15.7727 91.146 15.4091 90.9016 14.9318C90.6602 14.4545 90.5394 13.875 90.5394 13.1932C90.5394 12.5227 90.6573 11.9389 90.8931 11.4418C91.1289 10.9418 91.457 10.5554 91.8775 10.2827C92.2979 10.0071 92.7837 9.86932 93.3349 9.86932C93.761 9.86932 94.0991 9.94034 94.3491 10.0824C94.6019 10.2216 94.7951 10.3807 94.9286 10.5597C95.065 10.7358 95.1701 10.8807 95.244 10.9943H95.3462V9.95455H96.3178V16.6875C96.3178 17.25 96.19 17.7074 95.9343 18.0597C95.6815 18.4148 95.3406 18.6747 94.9116 18.8395C94.4854 19.0071 94.011 19.0909 93.4883 19.0909ZM93.4542 15.4943C93.8576 15.4943 94.1985 15.402 94.4769 15.2173C94.7553 15.0327 94.967 14.767 95.1119 14.4205C95.2567 14.0739 95.3292 13.6591 95.3292 13.1761C95.3292 12.7045 95.2582 12.2884 95.1161 11.9276C94.9741 11.5668 94.7638 11.2841 94.4854 11.0795C94.207 10.875 93.8633 10.7727 93.4542 10.7727C93.0281 10.7727 92.6729 10.8807 92.3888 11.0966C92.1076 11.3125 91.896 11.6023 91.7539 11.9659C91.6147 12.3295 91.5451 12.733 91.5451 13.1761C91.5451 13.6307 91.6161 14.0327 91.7582 14.3821C91.9031 14.7287 92.1161 15.0014 92.3974 15.2003C92.6815 15.3963 93.0337 15.4943 93.4542 15.4943Z" fill="white"/>
</svg>
