<svg width="149" height="149" viewBox="0 0 149 149" fill="none" xmlns="http://www.w3.org/2000/svg">
<path d="M142.219 16.9691H87.9539V1.74023H78.3597L0 15.3112V133.723L77.4294 147.259H87.9539V130.338H138.733C141.627 130.203 144.842 130.491 147.312 128.697C149.275 125.668 148.799 121.878 148.968 118.46V23.6022C149.357 19.7104 146.111 16.5969 142.219 16.9691ZM49.6283 80.1174C45.7875 82.08 41.388 81.8094 37.2087 81.6741L37.1918 101.522L27.1238 100.676L27.1407 46.4452C36.3289 46.8849 47.4626 42.8072 55.077 49.6938C62.3699 58.5436 60.4407 74.8212 49.6283 80.1174ZM140.883 122.353H87.9539V111.725H128.564V104.957H87.9539V96.497H128.564V89.7285H87.9708C87.9708 89.7285 87.9539 83.0957 87.9371 79.7793C94.6377 81.8603 102.269 81.8097 108.259 77.7826C114.74 73.9415 118.124 66.6149 118.682 59.3052H96.4144V37.2066L87.9539 38.9157V24.9548H140.883V122.353ZM99.7971 33.6699C111.557 34.2112 121.457 44.1526 122.083 55.8787H99.7971V33.6699ZM37.1918 55.5991C40.5251 55.4469 44.6537 54.8378 46.9042 57.9679C48.8333 61.2846 48.7317 65.6502 47.1242 69.0682C45.1953 72.5536 40.8295 72.2155 37.4624 72.6215C37.1074 66.9531 37.1409 61.2846 37.1918 55.5991Z" fill="white"/>
</svg>
