<svg width="149" height="149" viewBox="0 0 149 149" fill="none" xmlns="http://www.w3.org/2000/svg">
<path d="M142.271 15.2627H87.9758V1.72266H77.8545L0 15.2965V133.737L77.3976 147.277H87.9758V133.788H138.784C141.661 133.652 144.86 133.872 147.331 132.112C149.311 129.083 148.804 125.291 148.973 121.873V21.8295C149.328 17.9706 146.13 14.8734 142.271 15.2627ZM56.4614 97.5008C53.6351 98.9734 49.4037 97.433 46.0526 97.6699C43.8016 86.4658 41.1781 75.3292 39.1643 64.0742C37.1839 75.0077 34.6114 85.8393 32.3435 96.7052C29.094 96.5361 25.8276 96.3327 22.561 96.113C19.7512 81.2188 16.4511 66.4265 13.8276 51.4988C16.7218 51.3635 19.6328 51.2451 22.5269 51.1435C24.2701 61.9248 26.2505 72.6551 27.774 83.4532C30.1603 72.3842 32.5972 61.3154 34.967 50.2466C38.1827 50.0604 41.3984 49.925 44.6141 49.7557C46.8652 61.1801 49.1668 72.5873 51.6041 83.9608C53.5166 72.2151 55.632 60.5029 57.6802 48.7741C61.065 48.6556 64.4501 48.4694 67.818 48.2662C63.9932 64.6664 60.6418 81.2022 56.4614 97.5008ZM140.918 125.749H87.9758V115.12H131.98V108.35H87.9758V99.8872H131.98V93.1173H87.9758V84.6545H131.98V77.8849H87.9758V69.4222H131.98V62.6526H87.9758V54.1899H131.98V47.42H87.9758V38.9575H131.98V32.1876H87.9758V23.2505H140.918V125.749Z" fill="white"/>
</svg>
