<svg width="2207" height="1441" viewBox="0 0 2207 1441" fill="none" xmlns="http://www.w3.org/2000/svg">
<rect x="64.5" y="24.5" width="404" height="404" rx="202" fill="#032038" stroke="white"/>
<path d="M498.623 185.5L512.441 114.406H519.473L505.605 185.5H498.623ZM518.496 185.5L532.363 114.406H539.346L525.479 185.5H518.496ZM545.303 141.506H494.521V134.719H545.303V141.506ZM541.641 165.48H490.811V158.742H541.641V165.48ZM595.658 144.289V155.129C595.658 160.956 595.137 165.871 594.096 169.875C593.054 173.879 591.557 177.102 589.604 179.543C587.65 181.984 585.29 183.758 582.523 184.865C579.789 185.939 576.697 186.477 573.246 186.477C570.512 186.477 567.989 186.135 565.678 185.451C563.367 184.768 561.283 183.677 559.428 182.18C557.605 180.65 556.042 178.664 554.74 176.223C553.438 173.781 552.445 170.819 551.762 167.336C551.078 163.853 550.736 159.784 550.736 155.129V144.289C550.736 138.462 551.257 133.579 552.299 129.641C553.373 125.702 554.887 122.544 556.84 120.168C558.793 117.759 561.137 116.034 563.871 114.992C566.638 113.951 569.73 113.43 573.148 113.43C575.915 113.43 578.454 113.771 580.766 114.455C583.109 115.106 585.193 116.164 587.016 117.629C588.839 119.061 590.385 120.982 591.654 123.391C592.956 125.767 593.949 128.68 594.633 132.131C595.316 135.581 595.658 139.634 595.658 144.289ZM586.576 156.594V142.775C586.576 139.585 586.381 136.786 585.99 134.377C585.632 131.936 585.095 129.852 584.379 128.127C583.663 126.402 582.751 125.002 581.645 123.928C580.57 122.854 579.317 122.072 577.885 121.584C576.485 121.063 574.906 120.803 573.148 120.803C571 120.803 569.096 121.21 567.436 122.023C565.775 122.805 564.376 124.058 563.236 125.783C562.13 127.508 561.283 129.771 560.697 132.57C560.111 135.37 559.818 138.771 559.818 142.775V156.594C559.818 159.784 559.997 162.6 560.355 165.041C560.746 167.482 561.316 169.598 562.064 171.389C562.813 173.146 563.725 174.595 564.799 175.734C565.873 176.874 567.11 177.72 568.51 178.273C569.942 178.794 571.521 179.055 573.246 179.055C575.46 179.055 577.396 178.632 579.057 177.785C580.717 176.939 582.1 175.62 583.207 173.83C584.346 172.007 585.193 169.68 585.746 166.848C586.299 163.983 586.576 160.565 586.576 156.594ZM618.963 145.51H625.408C628.566 145.51 631.17 144.989 633.221 143.947C635.304 142.873 636.85 141.424 637.859 139.602C638.901 137.746 639.422 135.663 639.422 133.352C639.422 130.617 638.966 128.322 638.055 126.467C637.143 124.611 635.776 123.212 633.953 122.268C632.13 121.324 629.819 120.852 627.02 120.852C624.48 120.852 622.234 121.356 620.281 122.365C618.361 123.342 616.847 124.742 615.74 126.564C614.666 128.387 614.129 130.536 614.129 133.01H605.096C605.096 129.396 606.007 126.109 607.83 123.146C609.653 120.184 612.208 117.824 615.496 116.066C618.816 114.309 622.658 113.43 627.02 113.43C631.316 113.43 635.076 114.195 638.299 115.725C641.521 117.222 644.028 119.468 645.818 122.463C647.609 125.425 648.504 129.12 648.504 133.547C648.504 135.337 648.081 137.258 647.234 139.309C646.421 141.327 645.135 143.215 643.377 144.973C641.652 146.73 639.406 148.179 636.639 149.318C633.872 150.425 630.551 150.979 626.678 150.979H618.963V145.51ZM618.963 152.932V147.512H626.678C631.202 147.512 634.946 148.049 637.908 149.123C640.87 150.197 643.198 151.63 644.891 153.42C646.616 155.21 647.82 157.18 648.504 159.328C649.22 161.444 649.578 163.56 649.578 165.676C649.578 168.996 649.008 171.942 647.869 174.514C646.762 177.085 645.184 179.266 643.133 181.057C641.115 182.847 638.738 184.198 636.004 185.109C633.27 186.021 630.291 186.477 627.068 186.477C623.976 186.477 621.062 186.037 618.328 185.158C615.626 184.279 613.234 183.01 611.15 181.35C609.067 179.657 607.439 177.59 606.268 175.148C605.096 172.674 604.51 169.859 604.51 166.701H613.543C613.543 169.175 614.08 171.34 615.154 173.195C616.261 175.051 617.824 176.499 619.842 177.541C621.893 178.55 624.301 179.055 627.068 179.055C629.835 179.055 632.212 178.583 634.197 177.639C636.215 176.662 637.762 175.197 638.836 173.244C639.943 171.291 640.496 168.833 640.496 165.871C640.496 162.909 639.878 160.484 638.641 158.596C637.404 156.675 635.646 155.259 633.367 154.348C631.121 153.404 628.468 152.932 625.408 152.932H618.963ZM707.111 178.078V185.5H660.578V179.006L683.869 153.078C686.734 149.888 688.947 147.186 690.51 144.973C692.105 142.727 693.212 140.725 693.83 138.967C694.481 137.176 694.807 135.354 694.807 133.498C694.807 131.154 694.318 129.038 693.342 127.15C692.398 125.23 690.998 123.7 689.143 122.561C687.287 121.421 685.041 120.852 682.404 120.852C679.247 120.852 676.61 121.47 674.494 122.707C672.411 123.911 670.848 125.604 669.807 127.785C668.765 129.966 668.244 132.473 668.244 135.305H659.211C659.211 131.301 660.09 127.639 661.848 124.318C663.605 120.998 666.21 118.361 669.66 116.408C673.111 114.423 677.359 113.43 682.404 113.43C686.896 113.43 690.738 114.227 693.928 115.822C697.118 117.385 699.559 119.598 701.252 122.463C702.977 125.295 703.84 128.615 703.84 132.424C703.84 134.507 703.482 136.623 702.766 138.771C702.082 140.887 701.122 143.003 699.885 145.119C698.68 147.235 697.264 149.318 695.637 151.369C694.042 153.42 692.333 155.438 690.51 157.424L671.467 178.078H707.111ZM759.908 144.289V155.129C759.908 160.956 759.387 165.871 758.346 169.875C757.304 173.879 755.807 177.102 753.854 179.543C751.9 181.984 749.54 183.758 746.773 184.865C744.039 185.939 740.947 186.477 737.496 186.477C734.762 186.477 732.239 186.135 729.928 185.451C727.617 184.768 725.533 183.677 723.678 182.18C721.855 180.65 720.292 178.664 718.99 176.223C717.688 173.781 716.695 170.819 716.012 167.336C715.328 163.853 714.986 159.784 714.986 155.129V144.289C714.986 138.462 715.507 133.579 716.549 129.641C717.623 125.702 719.137 122.544 721.09 120.168C723.043 117.759 725.387 116.034 728.121 114.992C730.888 113.951 733.98 113.43 737.398 113.43C740.165 113.43 742.704 113.771 745.016 114.455C747.359 115.106 749.443 116.164 751.266 117.629C753.089 119.061 754.635 120.982 755.904 123.391C757.206 125.767 758.199 128.68 758.883 132.131C759.566 135.581 759.908 139.634 759.908 144.289ZM750.826 156.594V142.775C750.826 139.585 750.631 136.786 750.24 134.377C749.882 131.936 749.345 129.852 748.629 128.127C747.913 126.402 747.001 125.002 745.895 123.928C744.82 122.854 743.567 122.072 742.135 121.584C740.735 121.063 739.156 120.803 737.398 120.803C735.25 120.803 733.346 121.21 731.686 122.023C730.025 122.805 728.626 124.058 727.486 125.783C726.38 127.508 725.533 129.771 724.947 132.57C724.361 135.37 724.068 138.771 724.068 142.775V156.594C724.068 159.784 724.247 162.6 724.605 165.041C724.996 167.482 725.566 169.598 726.314 171.389C727.063 173.146 727.975 174.595 729.049 175.734C730.123 176.874 731.36 177.72 732.76 178.273C734.192 178.794 735.771 179.055 737.496 179.055C739.71 179.055 741.646 178.632 743.307 177.785C744.967 176.939 746.35 175.62 747.457 173.83C748.596 172.007 749.443 169.68 749.996 166.848C750.549 163.983 750.826 160.565 750.826 156.594ZM783.213 145.51H789.658C792.816 145.51 795.42 144.989 797.471 143.947C799.554 142.873 801.1 141.424 802.109 139.602C803.151 137.746 803.672 135.663 803.672 133.352C803.672 130.617 803.216 128.322 802.305 126.467C801.393 124.611 800.026 123.212 798.203 122.268C796.38 121.324 794.069 120.852 791.27 120.852C788.73 120.852 786.484 121.356 784.531 122.365C782.611 123.342 781.097 124.742 779.99 126.564C778.916 128.387 778.379 130.536 778.379 133.01H769.346C769.346 129.396 770.257 126.109 772.08 123.146C773.903 120.184 776.458 117.824 779.746 116.066C783.066 114.309 786.908 113.43 791.27 113.43C795.566 113.43 799.326 114.195 802.549 115.725C805.771 117.222 808.278 119.468 810.068 122.463C811.859 125.425 812.754 129.12 812.754 133.547C812.754 135.337 812.331 137.258 811.484 139.309C810.671 141.327 809.385 143.215 807.627 144.973C805.902 146.73 803.656 148.179 800.889 149.318C798.122 150.425 794.801 150.979 790.928 150.979H783.213V145.51ZM783.213 152.932V147.512H790.928C795.452 147.512 799.196 148.049 802.158 149.123C805.12 150.197 807.448 151.63 809.141 153.42C810.866 155.21 812.07 157.18 812.754 159.328C813.47 161.444 813.828 163.56 813.828 165.676C813.828 168.996 813.258 171.942 812.119 174.514C811.012 177.085 809.434 179.266 807.383 181.057C805.365 182.847 802.988 184.198 800.254 185.109C797.52 186.021 794.541 186.477 791.318 186.477C788.226 186.477 785.312 186.037 782.578 185.158C779.876 184.279 777.484 183.01 775.4 181.35C773.317 179.657 771.689 177.59 770.518 175.148C769.346 172.674 768.76 169.859 768.76 166.701H777.793C777.793 169.175 778.33 171.34 779.404 173.195C780.511 175.051 782.074 176.499 784.092 177.541C786.143 178.55 788.551 179.055 791.318 179.055C794.085 179.055 796.462 178.583 798.447 177.639C800.465 176.662 802.012 175.197 803.086 173.244C804.193 171.291 804.746 168.833 804.746 165.871C804.746 162.909 804.128 160.484 802.891 158.596C801.654 156.675 799.896 155.259 797.617 154.348C795.371 153.404 792.718 152.932 789.658 152.932H783.213ZM869.604 166.262C869.604 170.591 868.594 174.27 866.576 177.297C864.59 180.292 861.889 182.57 858.471 184.133C855.085 185.695 851.26 186.477 846.996 186.477C842.732 186.477 838.891 185.695 835.473 184.133C832.055 182.57 829.353 180.292 827.367 177.297C825.382 174.27 824.389 170.591 824.389 166.262C824.389 163.43 824.926 160.842 826 158.498C827.107 156.122 828.653 154.055 830.639 152.297C832.657 150.539 835.033 149.188 837.768 148.244C840.535 147.268 843.578 146.779 846.898 146.779C851.26 146.779 855.15 147.626 858.568 149.318C861.986 150.979 864.672 153.273 866.625 156.203C868.611 159.133 869.604 162.486 869.604 166.262ZM860.521 166.066C860.521 163.43 859.952 161.102 858.812 159.084C857.673 157.033 856.078 155.438 854.027 154.299C851.977 153.16 849.6 152.59 846.898 152.59C844.132 152.59 841.739 153.16 839.721 154.299C837.735 155.438 836.189 157.033 835.082 159.084C833.975 161.102 833.422 163.43 833.422 166.066C833.422 168.801 833.959 171.145 835.033 173.098C836.14 175.018 837.702 176.499 839.721 177.541C841.771 178.55 844.197 179.055 846.996 179.055C849.796 179.055 852.204 178.55 854.223 177.541C856.241 176.499 857.787 175.018 858.861 173.098C859.968 171.145 860.521 168.801 860.521 166.066ZM867.943 132.912C867.943 136.363 867.032 139.471 865.209 142.238C863.386 145.005 860.896 147.186 857.738 148.781C854.581 150.376 851 151.174 846.996 151.174C842.927 151.174 839.298 150.376 836.107 148.781C832.95 147.186 830.476 145.005 828.686 142.238C826.895 139.471 826 136.363 826 132.912C826 128.778 826.895 125.262 828.686 122.365C830.508 119.468 832.999 117.255 836.156 115.725C839.314 114.195 842.911 113.43 846.947 113.43C851.016 113.43 854.63 114.195 857.787 115.725C860.945 117.255 863.419 119.468 865.209 122.365C867.032 125.262 867.943 128.778 867.943 132.912ZM858.91 133.059C858.91 130.682 858.406 128.583 857.396 126.76C856.387 124.937 854.988 123.505 853.197 122.463C851.407 121.389 849.324 120.852 846.947 120.852C844.571 120.852 842.488 121.356 840.697 122.365C838.939 123.342 837.556 124.742 836.547 126.564C835.57 128.387 835.082 130.552 835.082 133.059C835.082 135.5 835.57 137.632 836.547 139.455C837.556 141.278 838.956 142.694 840.746 143.703C842.536 144.712 844.62 145.217 846.996 145.217C849.372 145.217 851.439 144.712 853.197 143.703C854.988 142.694 856.387 141.278 857.396 139.455C858.406 137.632 858.91 135.5 858.91 133.059ZM519.473 307.619H500.479V299.953H519.473C523.151 299.953 526.13 299.367 528.408 298.195C530.687 297.023 532.347 295.396 533.389 293.312C534.463 291.229 535 288.853 535 286.184C535 283.742 534.463 281.447 533.389 279.299C532.347 277.15 530.687 275.425 528.408 274.123C526.13 272.788 523.151 272.121 519.473 272.121H502.676V335.5H493.252V264.406H519.473C524.844 264.406 529.385 265.334 533.096 267.189C536.807 269.045 539.622 271.617 541.543 274.904C543.464 278.16 544.424 281.887 544.424 286.086C544.424 290.643 543.464 294.533 541.543 297.756C539.622 300.979 536.807 303.436 533.096 305.129C529.385 306.789 524.844 307.619 519.473 307.619ZM562.504 290.969V335.5H553.471V282.668H562.26L562.504 290.969ZM579.008 282.375L578.959 290.773C578.21 290.611 577.494 290.513 576.811 290.48C576.16 290.415 575.411 290.383 574.564 290.383C572.481 290.383 570.642 290.708 569.047 291.359C567.452 292.01 566.101 292.922 564.994 294.094C563.887 295.266 563.008 296.665 562.357 298.293C561.739 299.888 561.332 301.646 561.137 303.566L558.598 305.031C558.598 301.841 558.907 298.846 559.525 296.047C560.176 293.247 561.169 290.773 562.504 288.625C563.839 286.444 565.531 284.751 567.582 283.547C569.665 282.31 572.139 281.691 575.004 281.691C575.655 281.691 576.404 281.773 577.25 281.936C578.096 282.066 578.682 282.212 579.008 282.375ZM595.672 282.668V335.5H586.59V282.668H595.672ZM585.906 268.654C585.906 267.189 586.346 265.952 587.225 264.943C588.136 263.934 589.471 263.43 591.229 263.43C592.954 263.43 594.272 263.934 595.184 264.943C596.128 265.952 596.6 267.189 596.6 268.654C596.6 270.054 596.128 271.258 595.184 272.268C594.272 273.244 592.954 273.732 591.229 273.732C589.471 273.732 588.136 273.244 587.225 272.268C586.346 271.258 585.906 270.054 585.906 268.654ZM617.658 293.166V335.5H608.576V282.668H617.17L617.658 293.166ZM615.803 307.082L611.604 306.936C611.636 303.322 612.108 299.986 613.02 296.926C613.931 293.833 615.282 291.148 617.072 288.869C618.863 286.59 621.092 284.833 623.762 283.596C626.431 282.326 629.523 281.691 633.039 281.691C635.513 281.691 637.792 282.049 639.875 282.766C641.958 283.449 643.765 284.54 645.295 286.037C646.825 287.535 648.013 289.455 648.859 291.799C649.706 294.143 650.129 296.975 650.129 300.295V335.5H641.096V300.734C641.096 297.967 640.624 295.754 639.68 294.094C638.768 292.434 637.466 291.229 635.773 290.48C634.081 289.699 632.095 289.309 629.816 289.309C627.147 289.309 624.917 289.781 623.127 290.725C621.337 291.669 619.904 292.971 618.83 294.631C617.756 296.291 616.975 298.195 616.486 300.344C616.031 302.46 615.803 304.706 615.803 307.082ZM650.031 302.102L643.977 303.957C644.009 301.06 644.481 298.277 645.393 295.607C646.337 292.938 647.688 290.562 649.445 288.479C651.236 286.395 653.433 284.751 656.037 283.547C658.641 282.31 661.62 281.691 664.973 281.691C667.805 281.691 670.311 282.066 672.492 282.814C674.706 283.563 676.561 284.719 678.059 286.281C679.589 287.811 680.744 289.781 681.525 292.189C682.307 294.598 682.697 297.463 682.697 300.783V335.5H673.615V300.686C673.615 297.723 673.143 295.428 672.199 293.801C671.288 292.141 669.986 290.985 668.293 290.334C666.633 289.65 664.647 289.309 662.336 289.309C660.35 289.309 658.592 289.65 657.062 290.334C655.533 291.018 654.247 291.962 653.205 293.166C652.163 294.338 651.366 295.689 650.812 297.219C650.292 298.749 650.031 300.376 650.031 302.102ZM726.021 326.467V299.27C726.021 297.186 725.598 295.38 724.752 293.85C723.938 292.287 722.701 291.083 721.041 290.236C719.381 289.39 717.33 288.967 714.889 288.967C712.61 288.967 710.608 289.357 708.883 290.139C707.19 290.92 705.855 291.945 704.879 293.215C703.935 294.484 703.463 295.852 703.463 297.316H694.43C694.43 295.428 694.918 293.557 695.895 291.701C696.871 289.846 698.271 288.169 700.094 286.672C701.949 285.142 704.163 283.938 706.734 283.059C709.339 282.147 712.236 281.691 715.426 281.691C719.267 281.691 722.652 282.342 725.582 283.645C728.544 284.947 730.855 286.916 732.516 289.553C734.208 292.157 735.055 295.428 735.055 299.367V323.977C735.055 325.734 735.201 327.606 735.494 329.592C735.82 331.577 736.292 333.286 736.91 334.719V335.5H727.486C727.031 334.458 726.673 333.075 726.412 331.35C726.152 329.592 726.021 327.964 726.021 326.467ZM727.584 303.469L727.682 309.816H718.551C715.979 309.816 713.684 310.028 711.666 310.451C709.648 310.842 707.955 311.444 706.588 312.258C705.221 313.072 704.179 314.097 703.463 315.334C702.747 316.538 702.389 317.954 702.389 319.582C702.389 321.242 702.763 322.756 703.512 324.123C704.26 325.49 705.383 326.581 706.881 327.395C708.411 328.176 710.283 328.566 712.496 328.566C715.263 328.566 717.704 327.98 719.82 326.809C721.936 325.637 723.613 324.204 724.85 322.512C726.119 320.819 726.803 319.175 726.9 317.58L730.758 321.926C730.53 323.293 729.911 324.807 728.902 326.467C727.893 328.127 726.542 329.722 724.85 331.252C723.189 332.749 721.204 334.003 718.893 335.012C716.614 335.988 714.042 336.477 711.178 336.477C707.597 336.477 704.456 335.777 701.754 334.377C699.085 332.977 697.001 331.105 695.504 328.762C694.039 326.385 693.307 323.732 693.307 320.803C693.307 317.971 693.86 315.48 694.967 313.332C696.074 311.151 697.669 309.344 699.752 307.912C701.835 306.447 704.342 305.34 707.271 304.592C710.201 303.843 713.473 303.469 717.086 303.469H727.584ZM756.797 290.969V335.5H747.764V282.668H756.553L756.797 290.969ZM773.301 282.375L773.252 290.773C772.503 290.611 771.787 290.513 771.104 290.48C770.452 290.415 769.704 290.383 768.857 290.383C766.774 290.383 764.935 290.708 763.34 291.359C761.745 292.01 760.394 292.922 759.287 294.094C758.18 295.266 757.301 296.665 756.65 298.293C756.032 299.888 755.625 301.646 755.43 303.566L752.891 305.031C752.891 301.841 753.2 298.846 753.818 296.047C754.469 293.247 755.462 290.773 756.797 288.625C758.132 286.444 759.824 284.751 761.875 283.547C763.958 282.31 766.432 281.691 769.297 281.691C769.948 281.691 770.697 281.773 771.543 281.936C772.389 282.066 772.975 282.212 773.301 282.375ZM795.873 330.031L810.57 282.668H820.238L799.047 343.654C798.559 344.956 797.908 346.356 797.094 347.854C796.312 349.383 795.303 350.832 794.066 352.199C792.829 353.566 791.332 354.673 789.574 355.52C787.849 356.398 785.782 356.838 783.373 356.838C782.657 356.838 781.745 356.74 780.639 356.545C779.532 356.35 778.751 356.187 778.295 356.057L778.246 348.732C778.507 348.765 778.913 348.798 779.467 348.83C780.053 348.895 780.46 348.928 780.688 348.928C782.738 348.928 784.48 348.651 785.912 348.098C787.344 347.577 788.549 346.682 789.525 345.412C790.535 344.175 791.397 342.466 792.113 340.285L795.873 330.031ZM785.082 282.668L798.803 323.684L801.146 333.205L794.652 336.525L775.219 282.668H785.082Z" fill="white"/>
<rect x="1108.5" y="24.5" width="404" height="404" rx="202" fill="#F9A826" stroke="white"/>
<path d="M1542.62 185.5L1556.44 114.406H1563.47L1549.61 185.5H1542.62ZM1562.5 185.5L1576.36 114.406H1583.35L1569.48 185.5H1562.5ZM1589.3 141.506H1538.52V134.719H1589.3V141.506ZM1585.64 165.48H1534.81V158.742H1585.64V165.48ZM1606.8 114.406V185.5H1597.37V114.406H1606.8ZM1636.58 146.389V154.104H1604.75V146.389H1636.58ZM1641.42 114.406V122.121H1604.75V114.406H1641.42ZM1657.79 177.932H1658.71C1663.92 177.932 1668.15 177.199 1671.41 175.734C1674.67 174.27 1677.17 172.3 1678.93 169.826C1680.69 167.352 1681.89 164.569 1682.54 161.477C1683.19 158.352 1683.52 155.145 1683.52 151.857V140.969C1683.52 137.746 1683.15 134.882 1682.4 132.375C1681.68 129.868 1680.67 127.769 1679.37 126.076C1678.1 124.383 1676.65 123.098 1675.02 122.219C1673.4 121.34 1671.67 120.9 1669.85 120.9C1667.76 120.9 1665.89 121.324 1664.23 122.17C1662.6 122.984 1661.22 124.139 1660.08 125.637C1658.98 127.134 1658.13 128.892 1657.54 130.91C1656.96 132.928 1656.66 135.126 1656.66 137.502C1656.66 139.618 1656.92 141.669 1657.45 143.654C1657.97 145.64 1658.76 147.43 1659.84 149.025C1660.91 150.62 1662.25 151.89 1663.84 152.834C1665.47 153.745 1667.37 154.201 1669.55 154.201C1671.57 154.201 1673.46 153.811 1675.22 153.029C1677.01 152.215 1678.59 151.125 1679.96 149.758C1681.35 148.358 1682.46 146.779 1683.28 145.021C1684.12 143.264 1684.61 141.424 1684.74 139.504H1689.04C1689.04 142.206 1688.5 144.875 1687.43 147.512C1686.38 150.116 1684.92 152.492 1683.03 154.641C1681.14 156.789 1678.93 158.514 1676.39 159.816C1673.85 161.086 1671.08 161.721 1668.09 161.721C1664.57 161.721 1661.53 161.037 1658.96 159.67C1656.39 158.303 1654.27 156.48 1652.61 154.201C1650.98 151.923 1649.76 149.383 1648.95 146.584C1648.17 143.752 1647.78 140.887 1647.78 137.99C1647.78 134.605 1648.25 131.431 1649.19 128.469C1650.14 125.507 1651.54 122.902 1653.39 120.656C1655.25 118.378 1657.54 116.604 1660.28 115.334C1663.04 114.064 1666.23 113.43 1669.85 113.43C1673.92 113.43 1677.38 114.243 1680.25 115.871C1683.11 117.499 1685.44 119.68 1687.23 122.414C1689.05 125.148 1690.39 128.225 1691.23 131.643C1692.08 135.061 1692.5 138.576 1692.5 142.189V145.461C1692.5 149.139 1692.26 152.883 1691.77 156.691C1691.32 160.467 1690.42 164.081 1689.09 167.531C1687.78 170.982 1685.88 174.074 1683.37 176.809C1680.87 179.51 1677.6 181.659 1673.56 183.254C1669.55 184.816 1664.61 185.598 1658.71 185.598H1657.79V177.932ZM1732.21 120.705L1708.68 185.5H1699.06L1726.16 114.406H1732.36L1732.21 120.705ZM1751.94 185.5L1728.36 120.705L1728.21 114.406H1734.41L1761.61 185.5H1751.94ZM1750.72 159.182V166.896H1710.78V159.182H1750.72ZM1812.11 166.262C1812.11 170.591 1811.1 174.27 1809.08 177.297C1807.1 180.292 1804.4 182.57 1800.98 184.133C1797.59 185.695 1793.77 186.477 1789.5 186.477C1785.24 186.477 1781.4 185.695 1777.98 184.133C1774.56 182.57 1771.86 180.292 1769.88 177.297C1767.89 174.27 1766.9 170.591 1766.9 166.262C1766.9 163.43 1767.43 160.842 1768.51 158.498C1769.61 156.122 1771.16 154.055 1773.15 152.297C1775.16 150.539 1777.54 149.188 1780.28 148.244C1783.04 147.268 1786.09 146.779 1789.41 146.779C1793.77 146.779 1797.66 147.626 1801.08 149.318C1804.49 150.979 1807.18 153.273 1809.13 156.203C1811.12 159.133 1812.11 162.486 1812.11 166.262ZM1803.03 166.066C1803.03 163.43 1802.46 161.102 1801.32 159.084C1800.18 157.033 1798.59 155.438 1796.54 154.299C1794.48 153.16 1792.11 152.59 1789.41 152.59C1786.64 152.59 1784.25 153.16 1782.23 154.299C1780.24 155.438 1778.7 157.033 1777.59 159.084C1776.48 161.102 1775.93 163.43 1775.93 166.066C1775.93 168.801 1776.47 171.145 1777.54 173.098C1778.65 175.018 1780.21 176.499 1782.23 177.541C1784.28 178.55 1786.7 179.055 1789.5 179.055C1792.3 179.055 1794.71 178.55 1796.73 177.541C1798.75 176.499 1800.29 175.018 1801.37 173.098C1802.48 171.145 1803.03 168.801 1803.03 166.066ZM1810.45 132.912C1810.45 136.363 1809.54 139.471 1807.72 142.238C1805.89 145.005 1803.4 147.186 1800.25 148.781C1797.09 150.376 1793.51 151.174 1789.5 151.174C1785.43 151.174 1781.81 150.376 1778.62 148.781C1775.46 147.186 1772.98 145.005 1771.19 142.238C1769.4 139.471 1768.51 136.363 1768.51 132.912C1768.51 128.778 1769.4 125.262 1771.19 122.365C1773.02 119.468 1775.51 117.255 1778.66 115.725C1781.82 114.195 1785.42 113.43 1789.46 113.43C1793.52 113.43 1797.14 114.195 1800.29 115.725C1803.45 117.255 1805.93 119.468 1807.72 122.365C1809.54 125.262 1810.45 128.778 1810.45 132.912ZM1801.42 133.059C1801.42 130.682 1800.91 128.583 1799.9 126.76C1798.9 124.937 1797.5 123.505 1795.71 122.463C1793.91 121.389 1791.83 120.852 1789.46 120.852C1787.08 120.852 1785 121.356 1783.21 122.365C1781.45 123.342 1780.06 124.742 1779.05 126.564C1778.08 128.387 1777.59 130.552 1777.59 133.059C1777.59 135.5 1778.08 137.632 1779.05 139.455C1780.06 141.278 1781.46 142.694 1783.25 143.703C1785.04 144.712 1787.13 145.217 1789.5 145.217C1791.88 145.217 1793.95 144.712 1795.71 143.703C1797.5 142.694 1798.9 141.278 1799.9 139.455C1800.91 137.632 1801.42 135.5 1801.42 133.059ZM1868.62 178.078V185.5H1822.09V179.006L1845.38 153.078C1848.24 149.888 1850.46 147.186 1852.02 144.973C1853.61 142.727 1854.72 140.725 1855.34 138.967C1855.99 137.176 1856.31 135.354 1856.31 133.498C1856.31 131.154 1855.83 129.038 1854.85 127.15C1853.91 125.23 1852.51 123.7 1850.65 122.561C1848.79 121.421 1846.55 120.852 1843.91 120.852C1840.75 120.852 1838.12 121.47 1836 122.707C1833.92 123.911 1832.36 125.604 1831.31 127.785C1830.27 129.966 1829.75 132.473 1829.75 135.305H1820.72C1820.72 131.301 1821.6 127.639 1823.36 124.318C1825.11 120.998 1827.72 118.361 1831.17 116.408C1834.62 114.423 1838.87 113.43 1843.91 113.43C1848.4 113.43 1852.25 114.227 1855.44 115.822C1858.63 117.385 1861.07 119.598 1862.76 122.463C1864.49 125.295 1865.35 128.615 1865.35 132.424C1865.35 134.507 1864.99 136.623 1864.27 138.771C1863.59 140.887 1862.63 143.003 1861.39 145.119C1860.19 147.235 1858.77 149.318 1857.14 151.369C1855.55 153.42 1853.84 155.438 1852.02 157.424L1832.97 178.078H1868.62ZM1911.46 114.309H1912.24V121.975H1911.46C1906.67 121.975 1902.67 122.756 1899.44 124.318C1896.22 125.848 1893.67 127.915 1891.78 130.52C1889.89 133.091 1888.52 135.988 1887.68 139.211C1886.86 142.434 1886.46 145.705 1886.46 149.025V159.475C1886.46 162.632 1886.83 165.432 1887.58 167.873C1888.33 170.282 1889.35 172.316 1890.65 173.977C1891.96 175.637 1893.42 176.89 1895.05 177.736C1896.71 178.583 1898.43 179.006 1900.22 179.006C1902.31 179.006 1904.16 178.615 1905.79 177.834C1907.42 177.02 1908.79 175.897 1909.89 174.465C1911.03 173 1911.89 171.275 1912.48 169.289C1913.07 167.303 1913.36 165.122 1913.36 162.746C1913.36 160.63 1913.1 158.596 1912.58 156.643C1912.06 154.657 1911.26 152.899 1910.19 151.369C1909.11 149.807 1907.76 148.586 1906.13 147.707C1904.54 146.796 1902.63 146.34 1900.42 146.34C1897.91 146.34 1895.57 146.958 1893.39 148.195C1891.24 149.4 1889.47 150.995 1888.07 152.98C1886.7 154.934 1885.92 157.066 1885.72 159.377L1880.94 159.328C1881.39 155.682 1882.24 152.574 1883.48 150.002C1884.75 147.398 1886.31 145.282 1888.16 143.654C1890.05 141.994 1892.15 140.79 1894.46 140.041C1896.81 139.26 1899.28 138.869 1901.88 138.869C1905.43 138.869 1908.49 139.536 1911.06 140.871C1913.64 142.206 1915.75 143.996 1917.41 146.242C1919.07 148.456 1920.29 150.962 1921.07 153.762C1921.89 156.529 1922.29 159.377 1922.29 162.307C1922.29 165.66 1921.82 168.801 1920.88 171.73C1919.93 174.66 1918.52 177.232 1916.63 179.445C1914.78 181.659 1912.48 183.384 1909.75 184.621C1907.01 185.858 1903.84 186.477 1900.22 186.477C1896.38 186.477 1893.03 185.695 1890.17 184.133C1887.3 182.538 1884.93 180.422 1883.04 177.785C1881.15 175.148 1879.73 172.219 1878.79 168.996C1877.85 165.773 1877.37 162.502 1877.37 159.182V154.934C1877.37 149.921 1877.88 145.005 1878.89 140.188C1879.9 135.37 1881.64 131.008 1884.11 127.102C1886.62 123.195 1890.08 120.087 1894.51 117.775C1898.94 115.464 1904.59 114.309 1911.46 114.309ZM1563.57 270.705L1540.04 335.5H1530.42L1557.52 264.406H1563.72L1563.57 270.705ZM1583.3 335.5L1559.71 270.705L1559.57 264.406H1565.77L1592.96 335.5H1583.3ZM1582.08 309.182V316.896H1542.13V309.182H1582.08ZM1632.92 325.246V260.5H1642V335.5H1633.7L1632.92 325.246ZM1597.37 309.67V308.645C1597.37 304.608 1597.86 300.946 1598.84 297.658C1599.85 294.338 1601.26 291.49 1603.09 289.113C1604.94 286.737 1607.14 284.914 1609.68 283.645C1612.25 282.342 1615.11 281.691 1618.27 281.691C1621.59 281.691 1624.49 282.277 1626.96 283.449C1629.47 284.589 1631.59 286.265 1633.31 288.479C1635.07 290.66 1636.45 293.296 1637.46 296.389C1638.47 299.481 1639.17 302.98 1639.56 306.887V311.379C1639.2 315.253 1638.5 318.736 1637.46 321.828C1636.45 324.921 1635.07 327.557 1633.31 329.738C1631.59 331.919 1629.47 333.596 1626.96 334.768C1624.46 335.907 1621.53 336.477 1618.17 336.477C1615.08 336.477 1612.25 335.809 1609.68 334.475C1607.14 333.14 1604.94 331.268 1603.09 328.859C1601.26 326.451 1599.85 323.618 1598.84 320.363C1597.86 317.076 1597.37 313.511 1597.37 309.67ZM1606.46 308.645V309.67C1606.46 312.307 1606.72 314.781 1607.24 317.092C1607.79 319.403 1608.64 321.438 1609.78 323.195C1610.91 324.953 1612.36 326.337 1614.12 327.346C1615.88 328.322 1617.98 328.811 1620.42 328.811C1623.41 328.811 1625.87 328.176 1627.79 326.906C1629.75 325.637 1631.31 323.96 1632.48 321.877C1633.65 319.794 1634.56 317.531 1635.21 315.09V303.322C1634.82 301.532 1634.25 299.807 1633.51 298.146C1632.79 296.454 1631.85 294.956 1630.67 293.654C1629.53 292.32 1628.12 291.262 1626.43 290.48C1624.77 289.699 1622.8 289.309 1620.52 289.309C1618.04 289.309 1615.91 289.829 1614.12 290.871C1612.36 291.88 1610.91 293.28 1609.78 295.07C1608.64 296.828 1607.79 298.879 1607.24 301.223C1606.72 303.534 1606.46 306.008 1606.46 308.645ZM1687.87 325.246V260.5H1696.95V335.5H1688.65L1687.87 325.246ZM1652.32 309.67V308.645C1652.32 304.608 1652.81 300.946 1653.78 297.658C1654.79 294.338 1656.21 291.49 1658.03 289.113C1659.89 286.737 1662.08 284.914 1664.62 283.645C1667.19 282.342 1670.06 281.691 1673.22 281.691C1676.54 281.691 1679.43 282.277 1681.91 283.449C1684.41 284.589 1686.53 286.265 1688.26 288.479C1690.01 290.66 1691.4 293.296 1692.41 296.389C1693.42 299.481 1694.12 302.98 1694.51 306.887V311.379C1694.15 315.253 1693.45 318.736 1692.41 321.828C1691.4 324.921 1690.01 327.557 1688.26 329.738C1686.53 331.919 1684.41 333.596 1681.91 334.768C1679.4 335.907 1676.47 336.477 1673.12 336.477C1670.03 336.477 1667.19 335.809 1664.62 334.475C1662.08 333.14 1659.89 331.268 1658.03 328.859C1656.21 326.451 1654.79 323.618 1653.78 320.363C1652.81 317.076 1652.32 313.511 1652.32 309.67ZM1661.4 308.645V309.67C1661.4 312.307 1661.66 314.781 1662.18 317.092C1662.74 319.403 1663.58 321.438 1664.72 323.195C1665.86 324.953 1667.31 326.337 1669.07 327.346C1670.82 328.322 1672.92 328.811 1675.37 328.811C1678.36 328.811 1680.82 328.176 1682.74 326.906C1684.69 325.637 1686.25 323.96 1687.43 321.877C1688.6 319.794 1689.51 317.531 1690.16 315.09V303.322C1689.77 301.532 1689.2 299.807 1688.45 298.146C1687.74 296.454 1686.79 294.956 1685.62 293.654C1684.48 292.32 1683.06 291.262 1681.37 290.48C1679.71 289.699 1677.74 289.309 1675.46 289.309C1672.99 289.309 1670.86 289.829 1669.07 290.871C1667.31 291.88 1665.86 293.28 1664.72 295.07C1663.58 296.828 1662.74 298.879 1662.18 301.223C1661.66 303.534 1661.4 306.008 1661.4 308.645ZM1719.32 282.668V335.5H1710.24V282.668H1719.32ZM1709.56 268.654C1709.56 267.189 1710 265.952 1710.88 264.943C1711.79 263.934 1713.12 263.43 1714.88 263.43C1716.61 263.43 1717.92 263.934 1718.84 264.943C1719.78 265.952 1720.25 267.189 1720.25 268.654C1720.25 270.054 1719.78 271.258 1718.84 272.268C1717.92 273.244 1716.61 273.732 1714.88 273.732C1713.12 273.732 1711.79 273.244 1710.88 272.268C1710 271.258 1709.56 270.054 1709.56 268.654ZM1754.45 282.668V289.602H1725.88V282.668H1754.45ZM1735.55 269.826H1744.58V322.414C1744.58 324.204 1744.86 325.555 1745.41 326.467C1745.97 327.378 1746.68 327.98 1747.56 328.273C1748.44 328.566 1749.38 328.713 1750.39 328.713C1751.14 328.713 1751.92 328.648 1752.74 328.518C1753.58 328.355 1754.22 328.225 1754.64 328.127L1754.69 335.5C1753.97 335.728 1753.03 335.939 1751.86 336.135C1750.72 336.363 1749.33 336.477 1747.71 336.477C1745.49 336.477 1743.46 336.037 1741.6 335.158C1739.75 334.279 1738.27 332.814 1737.16 330.764C1736.09 328.68 1735.55 325.881 1735.55 322.365V269.826ZM1773.36 282.668V335.5H1764.27V282.668H1773.36ZM1763.59 268.654C1763.59 267.189 1764.03 265.952 1764.91 264.943C1765.82 263.934 1767.15 263.43 1768.91 263.43C1770.64 263.43 1771.96 263.934 1772.87 264.943C1773.81 265.952 1774.28 267.189 1774.28 268.654C1774.28 270.054 1773.81 271.258 1772.87 272.268C1771.96 273.244 1770.64 273.732 1768.91 273.732C1767.15 273.732 1765.82 273.244 1764.91 272.268C1764.03 271.258 1763.59 270.054 1763.59 268.654ZM1783.96 309.67V308.547C1783.96 304.738 1784.52 301.206 1785.62 297.951C1786.73 294.663 1788.33 291.815 1790.41 289.406C1792.49 286.965 1795.02 285.077 1797.98 283.742C1800.94 282.375 1804.26 281.691 1807.94 281.691C1811.65 281.691 1814.99 282.375 1817.95 283.742C1820.94 285.077 1823.48 286.965 1825.57 289.406C1827.68 291.815 1829.29 294.663 1830.4 297.951C1831.51 301.206 1832.06 304.738 1832.06 308.547V309.67C1832.06 313.479 1831.51 317.01 1830.4 320.266C1829.29 323.521 1827.68 326.369 1825.57 328.811C1823.48 331.219 1820.96 333.107 1818 334.475C1815.07 335.809 1811.75 336.477 1808.04 336.477C1804.33 336.477 1800.99 335.809 1798.03 334.475C1795.07 333.107 1792.53 331.219 1790.41 328.811C1788.33 326.369 1786.73 323.521 1785.62 320.266C1784.52 317.01 1783.96 313.479 1783.96 309.67ZM1793 308.547V309.67C1793 312.307 1793.31 314.797 1793.93 317.141C1794.54 319.452 1795.47 321.503 1796.71 323.293C1797.98 325.083 1799.56 326.499 1801.45 327.541C1803.33 328.55 1805.53 329.055 1808.04 329.055C1810.51 329.055 1812.68 328.55 1814.53 327.541C1816.42 326.499 1817.98 325.083 1819.22 323.293C1820.46 321.503 1821.38 319.452 1822 317.141C1822.65 314.797 1822.98 312.307 1822.98 309.67V308.547C1822.98 305.943 1822.65 303.485 1822 301.174C1821.38 298.83 1820.44 296.763 1819.17 294.973C1817.93 293.15 1816.37 291.717 1814.48 290.676C1812.63 289.634 1810.45 289.113 1807.94 289.113C1805.47 289.113 1803.28 289.634 1801.4 290.676C1799.54 291.717 1797.98 293.15 1796.71 294.973C1795.47 296.763 1794.54 298.83 1793.93 301.174C1793.31 303.485 1793 305.943 1793 308.547ZM1850.92 293.947V335.5H1841.89V282.668H1850.43L1850.92 293.947ZM1848.77 307.082L1845.01 306.936C1845.05 303.322 1845.58 299.986 1846.62 296.926C1847.67 293.833 1849.13 291.148 1851.02 288.869C1852.91 286.59 1855.15 284.833 1857.76 283.596C1860.39 282.326 1863.31 281.691 1866.5 281.691C1869.1 281.691 1871.45 282.049 1873.53 282.766C1875.61 283.449 1877.39 284.556 1878.85 286.086C1880.35 287.616 1881.49 289.602 1882.27 292.043C1883.05 294.452 1883.44 297.398 1883.44 300.881V335.5H1874.36V300.783C1874.36 298.016 1873.95 295.803 1873.14 294.143C1872.32 292.45 1871.14 291.229 1869.57 290.48C1868.01 289.699 1866.09 289.309 1863.81 289.309C1861.57 289.309 1859.52 289.781 1857.66 290.725C1855.84 291.669 1854.26 292.971 1852.92 294.631C1851.62 296.291 1850.6 298.195 1849.85 300.344C1849.13 302.46 1848.77 304.706 1848.77 307.082ZM1926.81 326.467V299.27C1926.81 297.186 1926.39 295.38 1925.54 293.85C1924.73 292.287 1923.49 291.083 1921.83 290.236C1920.17 289.39 1918.12 288.967 1915.68 288.967C1913.4 288.967 1911.4 289.357 1909.68 290.139C1907.98 290.92 1906.65 291.945 1905.67 293.215C1904.73 294.484 1904.26 295.852 1904.26 297.316H1895.22C1895.22 295.428 1895.71 293.557 1896.69 291.701C1897.66 289.846 1899.06 288.169 1900.89 286.672C1902.74 285.142 1904.96 283.938 1907.53 283.059C1910.13 282.147 1913.03 281.691 1916.22 281.691C1920.06 281.691 1923.45 282.342 1926.38 283.645C1929.34 284.947 1931.65 286.916 1933.31 289.553C1935 292.157 1935.85 295.428 1935.85 299.367V323.977C1935.85 325.734 1935.99 327.606 1936.29 329.592C1936.61 331.577 1937.08 333.286 1937.7 334.719V335.5H1928.28C1927.82 334.458 1927.47 333.075 1927.21 331.35C1926.94 329.592 1926.81 327.964 1926.81 326.467ZM1928.38 303.469L1928.47 309.816H1919.34C1916.77 309.816 1914.48 310.028 1912.46 310.451C1910.44 310.842 1908.75 311.444 1907.38 312.258C1906.01 313.072 1904.97 314.097 1904.26 315.334C1903.54 316.538 1903.18 317.954 1903.18 319.582C1903.18 321.242 1903.56 322.756 1904.3 324.123C1905.05 325.49 1906.18 326.581 1907.67 327.395C1909.2 328.176 1911.08 328.566 1913.29 328.566C1916.06 328.566 1918.5 327.98 1920.61 326.809C1922.73 325.637 1924.41 324.204 1925.64 322.512C1926.91 320.819 1927.6 319.175 1927.69 317.58L1931.55 321.926C1931.32 323.293 1930.7 324.807 1929.7 326.467C1928.69 328.127 1927.34 329.722 1925.64 331.252C1923.98 332.749 1922 334.003 1919.69 335.012C1917.41 335.988 1914.84 336.477 1911.97 336.477C1908.39 336.477 1905.25 335.777 1902.55 334.377C1899.88 332.977 1897.79 331.105 1896.3 328.762C1894.83 326.385 1894.1 323.732 1894.1 320.803C1894.1 317.971 1894.65 315.48 1895.76 313.332C1896.87 311.151 1898.46 309.344 1900.54 307.912C1902.63 306.447 1905.13 305.34 1908.06 304.592C1910.99 303.843 1914.27 303.469 1917.88 303.469H1928.38ZM1958.37 260.5V335.5H1949.29V260.5H1958.37Z" fill="white"/>
<rect x="1108.5" y="507.5" width="404" height="404" rx="202" fill="white" stroke="black"/>
<path d="M1542.62 668.5L1556.44 597.406H1563.47L1549.61 668.5H1542.62ZM1562.5 668.5L1576.36 597.406H1583.35L1569.48 668.5H1562.5ZM1589.3 624.506H1538.52V617.719H1589.3V624.506ZM1585.64 648.48H1534.81V641.742H1585.64V648.48ZM1606.8 597.406V668.5H1597.37V597.406H1606.8ZM1636.58 629.389V637.104H1604.75V629.389H1636.58ZM1641.42 597.406V605.121H1604.75V597.406H1641.42ZM1660.57 597.406V668.5H1651.15V597.406H1660.57ZM1690.36 629.389V637.104H1658.52V629.389H1690.36ZM1695.19 597.406V605.121H1658.52V597.406H1695.19ZM1714.34 597.406V668.5H1704.92V597.406H1714.34ZM1744.13 629.389V637.104H1712.29V629.389H1744.13ZM1748.96 597.406V605.121H1712.29V597.406H1748.96ZM1768.12 597.406V668.5H1758.69V597.406H1768.12ZM1797.9 629.389V637.104H1766.07V629.389H1797.9ZM1802.74 597.406V605.121H1766.07V597.406H1802.74ZM1821.89 597.406V668.5H1812.47V597.406H1821.89ZM1851.68 629.389V637.104H1819.84V629.389H1851.68ZM1856.51 597.406V605.121H1819.84V597.406H1856.51ZM1875.66 597.406V668.5H1866.24V597.406H1875.66ZM1905.45 629.389V637.104H1873.61V629.389H1905.45ZM1910.28 597.406V605.121H1873.61V597.406H1910.28ZM1929.44 597.406V668.5H1920.01V597.406H1929.44ZM1959.22 629.389V637.104H1927.39V629.389H1959.22ZM1964.06 597.406V605.121H1927.39V597.406H1964.06ZM1563.57 753.705L1540.04 818.5H1530.42L1557.52 747.406H1563.72L1563.57 753.705ZM1583.3 818.5L1559.71 753.705L1559.57 747.406H1565.77L1592.96 818.5H1583.3ZM1582.08 792.182V799.896H1542.13V792.182H1582.08ZM1632.92 808.246V743.5H1642V818.5H1633.7L1632.92 808.246ZM1597.37 792.67V791.645C1597.37 787.608 1597.86 783.946 1598.84 780.658C1599.85 777.338 1601.26 774.49 1603.09 772.113C1604.94 769.737 1607.14 767.914 1609.68 766.645C1612.25 765.342 1615.11 764.691 1618.27 764.691C1621.59 764.691 1624.49 765.277 1626.96 766.449C1629.47 767.589 1631.59 769.265 1633.31 771.479C1635.07 773.66 1636.45 776.296 1637.46 779.389C1638.47 782.481 1639.17 785.98 1639.56 789.887V794.379C1639.2 798.253 1638.5 801.736 1637.46 804.828C1636.45 807.921 1635.07 810.557 1633.31 812.738C1631.59 814.919 1629.47 816.596 1626.96 817.768C1624.46 818.907 1621.53 819.477 1618.17 819.477C1615.08 819.477 1612.25 818.809 1609.68 817.475C1607.14 816.14 1604.94 814.268 1603.09 811.859C1601.26 809.451 1599.85 806.618 1598.84 803.363C1597.86 800.076 1597.37 796.511 1597.37 792.67ZM1606.46 791.645V792.67C1606.46 795.307 1606.72 797.781 1607.24 800.092C1607.79 802.403 1608.64 804.438 1609.78 806.195C1610.91 807.953 1612.36 809.337 1614.12 810.346C1615.88 811.322 1617.98 811.811 1620.42 811.811C1623.41 811.811 1625.87 811.176 1627.79 809.906C1629.75 808.637 1631.31 806.96 1632.48 804.877C1633.65 802.794 1634.56 800.531 1635.21 798.09V786.322C1634.82 784.532 1634.25 782.807 1633.51 781.146C1632.79 779.454 1631.85 777.956 1630.67 776.654C1629.53 775.32 1628.12 774.262 1626.43 773.48C1624.77 772.699 1622.8 772.309 1620.52 772.309C1618.04 772.309 1615.91 772.829 1614.12 773.871C1612.36 774.88 1610.91 776.28 1609.78 778.07C1608.64 779.828 1607.79 781.879 1607.24 784.223C1606.72 786.534 1606.46 789.008 1606.46 791.645ZM1687.87 808.246V743.5H1696.95V818.5H1688.65L1687.87 808.246ZM1652.32 792.67V791.645C1652.32 787.608 1652.81 783.946 1653.78 780.658C1654.79 777.338 1656.21 774.49 1658.03 772.113C1659.89 769.737 1662.08 767.914 1664.62 766.645C1667.19 765.342 1670.06 764.691 1673.22 764.691C1676.54 764.691 1679.43 765.277 1681.91 766.449C1684.41 767.589 1686.53 769.265 1688.26 771.479C1690.01 773.66 1691.4 776.296 1692.41 779.389C1693.42 782.481 1694.12 785.98 1694.51 789.887V794.379C1694.15 798.253 1693.45 801.736 1692.41 804.828C1691.4 807.921 1690.01 810.557 1688.26 812.738C1686.53 814.919 1684.41 816.596 1681.91 817.768C1679.4 818.907 1676.47 819.477 1673.12 819.477C1670.03 819.477 1667.19 818.809 1664.62 817.475C1662.08 816.14 1659.89 814.268 1658.03 811.859C1656.21 809.451 1654.79 806.618 1653.78 803.363C1652.81 800.076 1652.32 796.511 1652.32 792.67ZM1661.4 791.645V792.67C1661.4 795.307 1661.66 797.781 1662.18 800.092C1662.74 802.403 1663.58 804.438 1664.72 806.195C1665.86 807.953 1667.31 809.337 1669.07 810.346C1670.82 811.322 1672.92 811.811 1675.37 811.811C1678.36 811.811 1680.82 811.176 1682.74 809.906C1684.69 808.637 1686.25 806.96 1687.43 804.877C1688.6 802.794 1689.51 800.531 1690.16 798.09V786.322C1689.77 784.532 1689.2 782.807 1688.45 781.146C1687.74 779.454 1686.79 777.956 1685.62 776.654C1684.48 775.32 1683.06 774.262 1681.37 773.48C1679.71 772.699 1677.74 772.309 1675.46 772.309C1672.99 772.309 1670.86 772.829 1669.07 773.871C1667.31 774.88 1665.86 776.28 1664.72 778.07C1663.58 779.828 1662.74 781.879 1662.18 784.223C1661.66 786.534 1661.4 789.008 1661.4 791.645ZM1719.32 765.668V818.5H1710.24V765.668H1719.32ZM1709.56 751.654C1709.56 750.189 1710 748.952 1710.88 747.943C1711.79 746.934 1713.12 746.43 1714.88 746.43C1716.61 746.43 1717.92 746.934 1718.84 747.943C1719.78 748.952 1720.25 750.189 1720.25 751.654C1720.25 753.054 1719.78 754.258 1718.84 755.268C1717.92 756.244 1716.61 756.732 1714.88 756.732C1713.12 756.732 1711.79 756.244 1710.88 755.268C1710 754.258 1709.56 753.054 1709.56 751.654ZM1754.45 765.668V772.602H1725.88V765.668H1754.45ZM1735.55 752.826H1744.58V805.414C1744.58 807.204 1744.86 808.555 1745.41 809.467C1745.97 810.378 1746.68 810.98 1747.56 811.273C1748.44 811.566 1749.38 811.713 1750.39 811.713C1751.14 811.713 1751.92 811.648 1752.74 811.518C1753.58 811.355 1754.22 811.225 1754.64 811.127L1754.69 818.5C1753.97 818.728 1753.03 818.939 1751.86 819.135C1750.72 819.363 1749.33 819.477 1747.71 819.477C1745.49 819.477 1743.46 819.037 1741.6 818.158C1739.75 817.279 1738.27 815.814 1737.16 813.764C1736.09 811.68 1735.55 808.881 1735.55 805.365V752.826ZM1773.36 765.668V818.5H1764.27V765.668H1773.36ZM1763.59 751.654C1763.59 750.189 1764.03 748.952 1764.91 747.943C1765.82 746.934 1767.15 746.43 1768.91 746.43C1770.64 746.43 1771.96 746.934 1772.87 747.943C1773.81 748.952 1774.28 750.189 1774.28 751.654C1774.28 753.054 1773.81 754.258 1772.87 755.268C1771.96 756.244 1770.64 756.732 1768.91 756.732C1767.15 756.732 1765.82 756.244 1764.91 755.268C1764.03 754.258 1763.59 753.054 1763.59 751.654ZM1783.96 792.67V791.547C1783.96 787.738 1784.52 784.206 1785.62 780.951C1786.73 777.663 1788.33 774.815 1790.41 772.406C1792.49 769.965 1795.02 768.077 1797.98 766.742C1800.94 765.375 1804.26 764.691 1807.94 764.691C1811.65 764.691 1814.99 765.375 1817.95 766.742C1820.94 768.077 1823.48 769.965 1825.57 772.406C1827.68 774.815 1829.29 777.663 1830.4 780.951C1831.51 784.206 1832.06 787.738 1832.06 791.547V792.67C1832.06 796.479 1831.51 800.01 1830.4 803.266C1829.29 806.521 1827.68 809.369 1825.57 811.811C1823.48 814.219 1820.96 816.107 1818 817.475C1815.07 818.809 1811.75 819.477 1808.04 819.477C1804.33 819.477 1800.99 818.809 1798.03 817.475C1795.07 816.107 1792.53 814.219 1790.41 811.811C1788.33 809.369 1786.73 806.521 1785.62 803.266C1784.52 800.01 1783.96 796.479 1783.96 792.67ZM1793 791.547V792.67C1793 795.307 1793.31 797.797 1793.93 800.141C1794.54 802.452 1795.47 804.503 1796.71 806.293C1797.98 808.083 1799.56 809.499 1801.45 810.541C1803.33 811.55 1805.53 812.055 1808.04 812.055C1810.51 812.055 1812.68 811.55 1814.53 810.541C1816.42 809.499 1817.98 808.083 1819.22 806.293C1820.46 804.503 1821.38 802.452 1822 800.141C1822.65 797.797 1822.98 795.307 1822.98 792.67V791.547C1822.98 788.943 1822.65 786.485 1822 784.174C1821.38 781.83 1820.44 779.763 1819.17 777.973C1817.93 776.15 1816.37 774.717 1814.48 773.676C1812.63 772.634 1810.45 772.113 1807.94 772.113C1805.47 772.113 1803.28 772.634 1801.4 773.676C1799.54 774.717 1797.98 776.15 1796.71 777.973C1795.47 779.763 1794.54 781.83 1793.93 784.174C1793.31 786.485 1793 788.943 1793 791.547ZM1850.92 776.947V818.5H1841.89V765.668H1850.43L1850.92 776.947ZM1848.77 790.082L1845.01 789.936C1845.05 786.322 1845.58 782.986 1846.62 779.926C1847.67 776.833 1849.13 774.148 1851.02 771.869C1852.91 769.59 1855.15 767.833 1857.76 766.596C1860.39 765.326 1863.31 764.691 1866.5 764.691C1869.1 764.691 1871.45 765.049 1873.53 765.766C1875.61 766.449 1877.39 767.556 1878.85 769.086C1880.35 770.616 1881.49 772.602 1882.27 775.043C1883.05 777.452 1883.44 780.398 1883.44 783.881V818.5H1874.36V783.783C1874.36 781.016 1873.95 778.803 1873.14 777.143C1872.32 775.45 1871.14 774.229 1869.57 773.48C1868.01 772.699 1866.09 772.309 1863.81 772.309C1861.57 772.309 1859.52 772.781 1857.66 773.725C1855.84 774.669 1854.26 775.971 1852.92 777.631C1851.62 779.291 1850.6 781.195 1849.85 783.344C1849.13 785.46 1848.77 787.706 1848.77 790.082ZM1926.81 809.467V782.27C1926.81 780.186 1926.39 778.38 1925.54 776.85C1924.73 775.287 1923.49 774.083 1921.83 773.236C1920.17 772.39 1918.12 771.967 1915.68 771.967C1913.4 771.967 1911.4 772.357 1909.68 773.139C1907.98 773.92 1906.65 774.945 1905.67 776.215C1904.73 777.484 1904.26 778.852 1904.26 780.316H1895.22C1895.22 778.428 1895.71 776.557 1896.69 774.701C1897.66 772.846 1899.06 771.169 1900.89 769.672C1902.74 768.142 1904.96 766.938 1907.53 766.059C1910.13 765.147 1913.03 764.691 1916.22 764.691C1920.06 764.691 1923.45 765.342 1926.38 766.645C1929.34 767.947 1931.65 769.916 1933.31 772.553C1935 775.157 1935.85 778.428 1935.85 782.367V806.977C1935.85 808.734 1935.99 810.606 1936.29 812.592C1936.61 814.577 1937.08 816.286 1937.7 817.719V818.5H1928.28C1927.82 817.458 1927.47 816.075 1927.21 814.35C1926.94 812.592 1926.81 810.964 1926.81 809.467ZM1928.38 786.469L1928.47 792.816H1919.34C1916.77 792.816 1914.48 793.028 1912.46 793.451C1910.44 793.842 1908.75 794.444 1907.38 795.258C1906.01 796.072 1904.97 797.097 1904.26 798.334C1903.54 799.538 1903.18 800.954 1903.18 802.582C1903.18 804.242 1903.56 805.756 1904.3 807.123C1905.05 808.49 1906.18 809.581 1907.67 810.395C1909.2 811.176 1911.08 811.566 1913.29 811.566C1916.06 811.566 1918.5 810.98 1920.61 809.809C1922.73 808.637 1924.41 807.204 1925.64 805.512C1926.91 803.819 1927.6 802.175 1927.69 800.58L1931.55 804.926C1931.32 806.293 1930.7 807.807 1929.7 809.467C1928.69 811.127 1927.34 812.722 1925.64 814.252C1923.98 815.749 1922 817.003 1919.69 818.012C1917.41 818.988 1914.84 819.477 1911.97 819.477C1908.39 819.477 1905.25 818.777 1902.55 817.377C1899.88 815.977 1897.79 814.105 1896.3 811.762C1894.83 809.385 1894.1 806.732 1894.1 803.803C1894.1 800.971 1894.65 798.48 1895.76 796.332C1896.87 794.151 1898.46 792.344 1900.54 790.912C1902.63 789.447 1905.13 788.34 1908.06 787.592C1910.99 786.843 1914.27 786.469 1917.88 786.469H1928.38ZM1958.37 743.5V818.5H1949.29V743.5H1958.37Z" fill="white"/>
<rect x="64.5" y="507.5" width="404" height="404" rx="202" fill="#052742" stroke="white"/>
<path d="M498.623 668.5L512.441 597.406H519.473L505.605 668.5H498.623ZM518.496 668.5L532.363 597.406H539.346L525.479 668.5H518.496ZM545.303 624.506H494.521V617.719H545.303V624.506ZM541.641 648.48H490.811V641.742H541.641V648.48ZM595.658 627.289V638.129C595.658 643.956 595.137 648.871 594.096 652.875C593.054 656.879 591.557 660.102 589.604 662.543C587.65 664.984 585.29 666.758 582.523 667.865C579.789 668.939 576.697 669.477 573.246 669.477C570.512 669.477 567.989 669.135 565.678 668.451C563.367 667.768 561.283 666.677 559.428 665.18C557.605 663.65 556.042 661.664 554.74 659.223C553.438 656.781 552.445 653.819 551.762 650.336C551.078 646.853 550.736 642.784 550.736 638.129V627.289C550.736 621.462 551.257 616.579 552.299 612.641C553.373 608.702 554.887 605.544 556.84 603.168C558.793 600.759 561.137 599.034 563.871 597.992C566.638 596.951 569.73 596.43 573.148 596.43C575.915 596.43 578.454 596.771 580.766 597.455C583.109 598.106 585.193 599.164 587.016 600.629C588.839 602.061 590.385 603.982 591.654 606.391C592.956 608.767 593.949 611.68 594.633 615.131C595.316 618.581 595.658 622.634 595.658 627.289ZM586.576 639.594V625.775C586.576 622.585 586.381 619.786 585.99 617.377C585.632 614.936 585.095 612.852 584.379 611.127C583.663 609.402 582.751 608.002 581.645 606.928C580.57 605.854 579.317 605.072 577.885 604.584C576.485 604.063 574.906 603.803 573.148 603.803C571 603.803 569.096 604.21 567.436 605.023C565.775 605.805 564.376 607.058 563.236 608.783C562.13 610.508 561.283 612.771 560.697 615.57C560.111 618.37 559.818 621.771 559.818 625.775V639.594C559.818 642.784 559.997 645.6 560.355 648.041C560.746 650.482 561.316 652.598 562.064 654.389C562.813 656.146 563.725 657.595 564.799 658.734C565.873 659.874 567.11 660.72 568.51 661.273C569.942 661.794 571.521 662.055 573.246 662.055C575.46 662.055 577.396 661.632 579.057 660.785C580.717 659.939 582.1 658.62 583.207 656.83C584.346 655.007 585.193 652.68 585.746 649.848C586.299 646.983 586.576 643.565 586.576 639.594ZM617.205 634.662L609.979 632.807L613.543 597.406H650.018V605.756H621.209L619.061 625.092C620.363 624.343 622.007 623.643 623.992 622.992C626.01 622.341 628.322 622.016 630.926 622.016C634.214 622.016 637.16 622.585 639.764 623.725C642.368 624.831 644.581 626.426 646.404 628.51C648.26 630.593 649.676 633.1 650.652 636.029C651.629 638.959 652.117 642.23 652.117 645.844C652.117 649.262 651.645 652.403 650.701 655.268C649.79 658.132 648.406 660.639 646.551 662.787C644.695 664.903 642.352 666.547 639.52 667.719C636.72 668.891 633.416 669.477 629.607 669.477C626.743 669.477 624.025 669.086 621.453 668.305C618.914 667.491 616.635 666.27 614.617 664.643C612.632 662.982 611.004 660.932 609.734 658.49C608.497 656.016 607.716 653.119 607.391 649.799H615.984C616.375 652.468 617.156 654.714 618.328 656.537C619.5 658.36 621.03 659.743 622.918 660.688C624.839 661.599 627.068 662.055 629.607 662.055C631.756 662.055 633.66 661.68 635.32 660.932C636.98 660.183 638.38 659.109 639.52 657.709C640.659 656.309 641.521 654.617 642.107 652.631C642.726 650.645 643.035 648.415 643.035 645.941C643.035 643.695 642.726 641.612 642.107 639.691C641.489 637.771 640.561 636.094 639.324 634.662C638.12 633.23 636.639 632.123 634.881 631.342C633.123 630.528 631.105 630.121 628.826 630.121C625.799 630.121 623.504 630.528 621.941 631.342C620.411 632.156 618.833 633.262 617.205 634.662ZM707.111 661.078V668.5H660.578V662.006L683.869 636.078C686.734 632.888 688.947 630.186 690.51 627.973C692.105 625.727 693.212 623.725 693.83 621.967C694.481 620.176 694.807 618.354 694.807 616.498C694.807 614.154 694.318 612.038 693.342 610.15C692.398 608.23 690.998 606.7 689.143 605.561C687.287 604.421 685.041 603.852 682.404 603.852C679.247 603.852 676.61 604.47 674.494 605.707C672.411 606.911 670.848 608.604 669.807 610.785C668.765 612.966 668.244 615.473 668.244 618.305H659.211C659.211 614.301 660.09 610.639 661.848 607.318C663.605 603.998 666.21 601.361 669.66 599.408C673.111 597.423 677.359 596.43 682.404 596.43C686.896 596.43 690.738 597.227 693.928 598.822C697.118 600.385 699.559 602.598 701.252 605.463C702.977 608.295 703.84 611.615 703.84 615.424C703.84 617.507 703.482 619.623 702.766 621.771C702.082 623.887 701.122 626.003 699.885 628.119C698.68 630.235 697.264 632.318 695.637 634.369C694.042 636.42 692.333 638.438 690.51 640.424L671.467 661.078H707.111ZM761.227 597.406V602.484L731.783 668.5H722.262L751.656 604.828H713.18V597.406H761.227ZM818.076 644.574V651.996H766.709V646.674L798.545 597.406H805.918L798.008 611.664L776.963 644.574H818.076ZM808.164 597.406V668.5H799.131V597.406H808.164ZM871.361 661.078V668.5H824.828V662.006L848.119 636.078C850.984 632.888 853.197 630.186 854.76 627.973C856.355 625.727 857.462 623.725 858.08 621.967C858.731 620.176 859.057 618.354 859.057 616.498C859.057 614.154 858.568 612.038 857.592 610.15C856.648 608.23 855.248 606.7 853.393 605.561C851.537 604.421 849.291 603.852 846.654 603.852C843.497 603.852 840.86 604.47 838.744 605.707C836.661 606.911 835.098 608.604 834.057 610.785C833.015 612.966 832.494 615.473 832.494 618.305H823.461C823.461 614.301 824.34 610.639 826.098 607.318C827.855 603.998 830.46 601.361 833.91 599.408C837.361 597.423 841.609 596.43 846.654 596.43C851.146 596.43 854.988 597.227 858.178 598.822C861.368 600.385 863.809 602.598 865.502 605.463C867.227 608.295 868.09 611.615 868.09 615.424C868.09 617.507 867.732 619.623 867.016 621.771C866.332 623.887 865.372 626.003 864.135 628.119C862.93 630.235 861.514 632.318 859.887 634.369C858.292 636.42 856.583 638.438 854.76 640.424L835.717 661.078H871.361ZM531.143 800.531C531.143 798.871 530.882 797.406 530.361 796.137C529.873 794.835 528.994 793.663 527.725 792.621C526.488 791.579 524.762 790.587 522.549 789.643C520.368 788.699 517.601 787.738 514.248 786.762C510.732 785.72 507.559 784.564 504.727 783.295C501.895 781.993 499.469 780.512 497.451 778.852C495.433 777.191 493.887 775.287 492.812 773.139C491.738 770.99 491.201 768.533 491.201 765.766C491.201 762.999 491.771 760.443 492.91 758.1C494.049 755.756 495.677 753.721 497.793 751.996C499.941 750.238 502.497 748.871 505.459 747.895C508.421 746.918 511.725 746.43 515.371 746.43C520.71 746.43 525.234 747.455 528.945 749.506C532.689 751.524 535.537 754.177 537.49 757.465C539.443 760.72 540.42 764.203 540.42 767.914H531.045C531.045 765.245 530.475 762.885 529.336 760.834C528.197 758.751 526.471 757.123 524.16 755.951C521.849 754.747 518.919 754.145 515.371 754.145C512.018 754.145 509.251 754.649 507.07 755.658C504.889 756.667 503.262 758.035 502.188 759.76C501.146 761.485 500.625 763.454 500.625 765.668C500.625 767.165 500.934 768.533 501.553 769.77C502.204 770.974 503.197 772.097 504.531 773.139C505.898 774.18 507.624 775.141 509.707 776.02C511.823 776.898 514.346 777.745 517.275 778.559C521.312 779.698 524.795 780.967 527.725 782.367C530.654 783.767 533.063 785.346 534.951 787.104C536.872 788.829 538.288 790.798 539.199 793.012C540.143 795.193 540.615 797.667 540.615 800.434C540.615 803.331 540.029 805.951 538.857 808.295C537.686 810.639 536.009 812.641 533.828 814.301C531.647 815.961 529.027 817.247 525.967 818.158C522.939 819.037 519.554 819.477 515.811 819.477C512.523 819.477 509.284 819.021 506.094 818.109C502.936 817.198 500.055 815.831 497.451 814.008C494.88 812.185 492.812 809.939 491.25 807.27C489.72 804.568 488.955 801.443 488.955 797.895H498.33C498.33 800.336 498.802 802.436 499.746 804.193C500.69 805.919 501.976 807.351 503.604 808.49C505.264 809.63 507.135 810.476 509.219 811.029C511.335 811.55 513.532 811.811 515.811 811.811C519.098 811.811 521.882 811.355 524.16 810.443C526.439 809.532 528.164 808.23 529.336 806.537C530.54 804.844 531.143 802.842 531.143 800.531ZM571.684 819.477C568.005 819.477 564.669 818.858 561.674 817.621C558.712 816.352 556.156 814.577 554.008 812.299C551.892 810.02 550.264 807.318 549.125 804.193C547.986 801.068 547.416 797.65 547.416 793.939V791.889C547.416 787.592 548.051 783.767 549.32 780.414C550.59 777.029 552.315 774.164 554.496 771.82C556.677 769.477 559.151 767.702 561.918 766.498C564.685 765.294 567.549 764.691 570.512 764.691C574.288 764.691 577.543 765.342 580.277 766.645C583.044 767.947 585.307 769.77 587.064 772.113C588.822 774.424 590.124 777.159 590.971 780.316C591.817 783.441 592.24 786.859 592.24 790.57V794.623H552.787V787.25H583.207V786.566C583.077 784.223 582.589 781.944 581.742 779.73C580.928 777.517 579.626 775.694 577.836 774.262C576.046 772.829 573.604 772.113 570.512 772.113C568.461 772.113 566.573 772.553 564.848 773.432C563.122 774.278 561.641 775.548 560.404 777.24C559.167 778.933 558.207 781 557.523 783.441C556.84 785.883 556.498 788.699 556.498 791.889V793.939C556.498 796.446 556.84 798.806 557.523 801.02C558.24 803.201 559.265 805.121 560.6 806.781C561.967 808.441 563.611 809.743 565.531 810.688C567.484 811.632 569.698 812.104 572.172 812.104C575.362 812.104 578.064 811.452 580.277 810.15C582.491 808.848 584.428 807.107 586.088 804.926L591.557 809.271C590.417 810.997 588.969 812.641 587.211 814.203C585.453 815.766 583.288 817.035 580.717 818.012C578.178 818.988 575.167 819.477 571.684 819.477ZM622.43 812.055C624.578 812.055 626.564 811.615 628.387 810.736C630.21 809.857 631.707 808.653 632.879 807.123C634.051 805.561 634.718 803.786 634.881 801.801H643.475C643.312 804.926 642.254 807.839 640.301 810.541C638.38 813.21 635.857 815.375 632.732 817.035C629.607 818.663 626.173 819.477 622.43 819.477C618.458 819.477 614.992 818.777 612.029 817.377C609.1 815.977 606.658 814.057 604.705 811.615C602.785 809.174 601.336 806.374 600.359 803.217C599.415 800.027 598.943 796.658 598.943 793.109V791.059C598.943 787.51 599.415 784.158 600.359 781C601.336 777.81 602.785 774.994 604.705 772.553C606.658 770.111 609.1 768.191 612.029 766.791C614.992 765.391 618.458 764.691 622.43 764.691C626.564 764.691 630.177 765.538 633.27 767.23C636.362 768.891 638.787 771.169 640.545 774.066C642.335 776.931 643.312 780.186 643.475 783.832H634.881C634.718 781.651 634.1 779.682 633.025 777.924C631.984 776.166 630.551 774.766 628.729 773.725C626.938 772.65 624.839 772.113 622.43 772.113C619.663 772.113 617.335 772.667 615.447 773.773C613.592 774.848 612.111 776.312 611.004 778.168C609.93 779.991 609.148 782.025 608.66 784.271C608.204 786.485 607.977 788.747 607.977 791.059V793.109C607.977 795.421 608.204 797.699 608.66 799.945C609.116 802.191 609.881 804.226 610.955 806.049C612.062 807.872 613.543 809.337 615.398 810.443C617.286 811.518 619.63 812.055 622.43 812.055ZM649.738 792.67V791.547C649.738 787.738 650.292 784.206 651.398 780.951C652.505 777.663 654.1 774.815 656.184 772.406C658.267 769.965 660.79 768.077 663.752 766.742C666.714 765.375 670.035 764.691 673.713 764.691C677.424 764.691 680.76 765.375 683.723 766.742C686.717 768.077 689.257 769.965 691.34 772.406C693.456 774.815 695.067 777.663 696.174 780.951C697.281 784.206 697.834 787.738 697.834 791.547V792.67C697.834 796.479 697.281 800.01 696.174 803.266C695.067 806.521 693.456 809.369 691.34 811.811C689.257 814.219 686.734 816.107 683.771 817.475C680.842 818.809 677.521 819.477 673.811 819.477C670.1 819.477 666.763 818.809 663.801 817.475C660.839 816.107 658.299 814.219 656.184 811.811C654.1 809.369 652.505 806.521 651.398 803.266C650.292 800.01 649.738 796.479 649.738 792.67ZM658.771 791.547V792.67C658.771 795.307 659.081 797.797 659.699 800.141C660.318 802.452 661.245 804.503 662.482 806.293C663.752 808.083 665.331 809.499 667.219 810.541C669.107 811.55 671.304 812.055 673.811 812.055C676.285 812.055 678.449 811.55 680.305 810.541C682.193 809.499 683.755 808.083 684.992 806.293C686.229 804.503 687.157 802.452 687.775 800.141C688.426 797.797 688.752 795.307 688.752 792.67V791.547C688.752 788.943 688.426 786.485 687.775 784.174C687.157 781.83 686.213 779.763 684.943 777.973C683.706 776.15 682.144 774.717 680.256 773.676C678.4 772.634 676.219 772.113 673.713 772.113C671.239 772.113 669.058 772.634 667.17 773.676C665.314 774.717 663.752 776.15 662.482 777.973C661.245 779.763 660.318 781.83 659.699 784.174C659.081 786.485 658.771 788.943 658.771 791.547ZM716.695 776.947V818.5H707.662V765.668H716.207L716.695 776.947ZM714.547 790.082L710.787 789.936C710.82 786.322 711.357 782.986 712.398 779.926C713.44 776.833 714.905 774.148 716.793 771.869C718.681 769.59 720.927 767.833 723.531 766.596C726.168 765.326 729.081 764.691 732.271 764.691C734.876 764.691 737.219 765.049 739.303 765.766C741.386 766.449 743.16 767.556 744.625 769.086C746.122 770.616 747.262 772.602 748.043 775.043C748.824 777.452 749.215 780.398 749.215 783.881V818.5H740.133V783.783C740.133 781.016 739.726 778.803 738.912 777.143C738.098 775.45 736.91 774.229 735.348 773.48C733.785 772.699 731.865 772.309 729.586 772.309C727.34 772.309 725.289 772.781 723.434 773.725C721.611 774.669 720.032 775.971 718.697 777.631C717.395 779.291 716.37 781.195 715.621 783.344C714.905 785.46 714.547 787.706 714.547 790.082ZM794.736 808.246V743.5H803.818V818.5H795.518L794.736 808.246ZM759.189 792.67V791.645C759.189 787.608 759.678 783.946 760.654 780.658C761.663 777.338 763.079 774.49 764.902 772.113C766.758 769.737 768.955 767.914 771.494 766.645C774.066 765.342 776.93 764.691 780.088 764.691C783.408 764.691 786.305 765.277 788.779 766.449C791.286 767.589 793.402 769.265 795.127 771.479C796.885 773.66 798.268 776.296 799.277 779.389C800.286 782.481 800.986 785.98 801.377 789.887V794.379C801.019 798.253 800.319 801.736 799.277 804.828C798.268 807.921 796.885 810.557 795.127 812.738C793.402 814.919 791.286 816.596 788.779 817.768C786.273 818.907 783.343 819.477 779.99 819.477C776.898 819.477 774.066 818.809 771.494 817.475C768.955 816.14 766.758 814.268 764.902 811.859C763.079 809.451 761.663 806.618 760.654 803.363C759.678 800.076 759.189 796.511 759.189 792.67ZM768.271 791.645V792.67C768.271 795.307 768.532 797.781 769.053 800.092C769.606 802.403 770.452 804.438 771.592 806.195C772.731 807.953 774.18 809.337 775.938 810.346C777.695 811.322 779.795 811.811 782.236 811.811C785.231 811.811 787.689 811.176 789.609 809.906C791.562 808.637 793.125 806.96 794.297 804.877C795.469 802.794 796.38 800.531 797.031 798.09V786.322C796.641 784.532 796.071 782.807 795.322 781.146C794.606 779.454 793.662 777.956 792.49 776.654C791.351 775.32 789.935 774.262 788.242 773.48C786.582 772.699 784.613 772.309 782.334 772.309C779.86 772.309 777.728 772.829 775.938 773.871C774.18 774.88 772.731 776.28 771.592 778.07C770.452 779.828 769.606 781.879 769.053 784.223C768.532 786.534 768.271 789.008 768.271 791.645ZM847.533 809.467V782.27C847.533 780.186 847.11 778.38 846.264 776.85C845.45 775.287 844.213 774.083 842.553 773.236C840.893 772.39 838.842 771.967 836.4 771.967C834.122 771.967 832.12 772.357 830.395 773.139C828.702 773.92 827.367 774.945 826.391 776.215C825.447 777.484 824.975 778.852 824.975 780.316H815.941C815.941 778.428 816.43 776.557 817.406 774.701C818.383 772.846 819.783 771.169 821.605 769.672C823.461 768.142 825.674 766.938 828.246 766.059C830.85 765.147 833.747 764.691 836.938 764.691C840.779 764.691 844.164 765.342 847.094 766.645C850.056 767.947 852.367 769.916 854.027 772.553C855.72 775.157 856.566 778.428 856.566 782.367V806.977C856.566 808.734 856.713 810.606 857.006 812.592C857.331 814.577 857.803 816.286 858.422 817.719V818.5H848.998C848.542 817.458 848.184 816.075 847.924 814.35C847.663 812.592 847.533 810.964 847.533 809.467ZM849.096 786.469L849.193 792.816H840.062C837.491 792.816 835.196 793.028 833.178 793.451C831.16 793.842 829.467 794.444 828.1 795.258C826.732 796.072 825.691 797.097 824.975 798.334C824.258 799.538 823.9 800.954 823.9 802.582C823.9 804.242 824.275 805.756 825.023 807.123C825.772 808.49 826.895 809.581 828.393 810.395C829.923 811.176 831.794 811.566 834.008 811.566C836.775 811.566 839.216 810.98 841.332 809.809C843.448 808.637 845.124 807.204 846.361 805.512C847.631 803.819 848.314 802.175 848.412 800.58L852.27 804.926C852.042 806.293 851.423 807.807 850.414 809.467C849.405 811.127 848.054 812.722 846.361 814.252C844.701 815.749 842.715 817.003 840.404 818.012C838.126 818.988 835.554 819.477 832.689 819.477C829.109 819.477 825.967 818.777 823.266 817.377C820.596 815.977 818.513 814.105 817.016 811.762C815.551 809.385 814.818 806.732 814.818 803.803C814.818 800.971 815.372 798.48 816.479 796.332C817.585 794.151 819.18 792.344 821.264 790.912C823.347 789.447 825.854 788.34 828.783 787.592C831.713 786.843 834.984 786.469 838.598 786.469H849.096ZM878.309 773.969V818.5H869.275V765.668H878.064L878.309 773.969ZM894.812 765.375L894.764 773.773C894.015 773.611 893.299 773.513 892.615 773.48C891.964 773.415 891.215 773.383 890.369 773.383C888.286 773.383 886.447 773.708 884.852 774.359C883.257 775.01 881.906 775.922 880.799 777.094C879.692 778.266 878.813 779.665 878.162 781.293C877.544 782.888 877.137 784.646 876.941 786.566L874.402 788.031C874.402 784.841 874.712 781.846 875.33 779.047C875.981 776.247 876.974 773.773 878.309 771.625C879.643 769.444 881.336 767.751 883.387 766.547C885.47 765.31 887.944 764.691 890.809 764.691C891.46 764.691 892.208 764.773 893.055 764.936C893.901 765.066 894.487 765.212 894.812 765.375ZM917.385 813.031L932.082 765.668H941.75L920.559 826.654C920.07 827.956 919.419 829.356 918.605 830.854C917.824 832.383 916.815 833.832 915.578 835.199C914.341 836.566 912.844 837.673 911.086 838.52C909.361 839.398 907.294 839.838 904.885 839.838C904.169 839.838 903.257 839.74 902.15 839.545C901.044 839.35 900.262 839.187 899.807 839.057L899.758 831.732C900.018 831.765 900.425 831.798 900.979 831.83C901.564 831.895 901.971 831.928 902.199 831.928C904.25 831.928 905.992 831.651 907.424 831.098C908.856 830.577 910.061 829.682 911.037 828.412C912.046 827.175 912.909 825.466 913.625 823.285L917.385 813.031ZM906.594 765.668L920.314 806.684L922.658 816.205L916.164 819.525L896.73 765.668H906.594Z" fill="white"/>
<rect x="64.5" y="990.5" width="404" height="404" rx="202" fill="#1DC9D3" stroke="white"/>
<path d="M498.623 1151.5L512.441 1080.41H519.473L505.605 1151.5H498.623ZM518.496 1151.5L532.363 1080.41H539.346L525.479 1151.5H518.496ZM545.303 1107.51H494.521V1100.72H545.303V1107.51ZM541.641 1131.48H490.811V1124.74H541.641V1131.48ZM580.717 1080.02V1151.5H571.684V1091.29L553.471 1097.94V1089.78L579.301 1080.02H580.717ZM627.361 1151.5H612.518L612.615 1143.83H627.361C632.439 1143.83 636.671 1142.78 640.057 1140.66C643.442 1138.51 645.981 1135.52 647.674 1131.68C649.399 1127.8 650.262 1123.28 650.262 1118.1V1113.76C650.262 1109.69 649.773 1106.07 648.797 1102.92C647.82 1099.73 646.388 1097.04 644.5 1094.86C642.612 1092.65 640.301 1090.97 637.566 1089.83C634.865 1088.69 631.756 1088.12 628.24 1088.12H612.225V1080.41H628.24C632.895 1080.41 637.143 1081.19 640.984 1082.75C644.826 1084.28 648.13 1086.51 650.896 1089.44C653.696 1092.34 655.844 1095.85 657.342 1099.99C658.839 1104.09 659.588 1108.71 659.588 1113.85V1118.1C659.588 1123.24 658.839 1127.88 657.342 1132.02C655.844 1136.12 653.68 1139.62 650.848 1142.52C648.048 1145.41 644.663 1147.64 640.691 1149.21C636.753 1150.74 632.309 1151.5 627.361 1151.5ZM617.547 1080.41V1151.5H608.123V1080.41H617.547ZM715.168 1128.89H724.543C724.055 1133.38 722.769 1137.4 720.686 1140.95C718.602 1144.5 715.656 1147.32 711.848 1149.4C708.039 1151.45 703.286 1152.48 697.59 1152.48C693.423 1152.48 689.631 1151.7 686.213 1150.13C682.827 1148.57 679.914 1146.36 677.473 1143.49C675.031 1140.6 673.143 1137.13 671.809 1133.09C670.507 1129.02 669.855 1124.5 669.855 1119.52V1112.44C669.855 1107.46 670.507 1102.95 671.809 1098.91C673.143 1094.84 675.048 1091.36 677.521 1088.46C680.028 1085.57 683.039 1083.34 686.555 1081.77C690.07 1080.21 694.025 1079.43 698.42 1079.43C703.791 1079.43 708.332 1080.44 712.043 1082.46C715.754 1084.48 718.635 1087.27 720.686 1090.86C722.769 1094.4 724.055 1098.52 724.543 1103.21H715.168C714.712 1099.89 713.866 1097.04 712.629 1094.66C711.392 1092.26 709.634 1090.4 707.355 1089.1C705.077 1087.8 702.098 1087.14 698.42 1087.14C695.262 1087.14 692.479 1087.75 690.07 1088.95C687.694 1090.16 685.692 1091.86 684.064 1094.08C682.469 1096.29 681.265 1098.94 680.451 1102.04C679.637 1105.13 679.23 1108.56 679.23 1112.34V1119.52C679.23 1123 679.589 1126.27 680.305 1129.33C681.053 1132.39 682.176 1135.08 683.674 1137.39C685.171 1139.7 687.076 1141.52 689.387 1142.86C691.698 1144.16 694.432 1144.81 697.59 1144.81C701.594 1144.81 704.784 1144.18 707.16 1142.91C709.536 1141.64 711.327 1139.81 712.531 1137.44C713.768 1135.06 714.647 1132.21 715.168 1128.89ZM742.525 1143.93H743.453C748.661 1143.93 752.893 1143.2 756.148 1141.73C759.404 1140.27 761.91 1138.3 763.668 1135.83C765.426 1133.35 766.63 1130.57 767.281 1127.48C767.932 1124.35 768.258 1121.15 768.258 1117.86V1106.97C768.258 1103.75 767.883 1100.88 767.135 1098.38C766.419 1095.87 765.41 1093.77 764.107 1092.08C762.838 1090.38 761.389 1089.1 759.762 1088.22C758.134 1087.34 756.409 1086.9 754.586 1086.9C752.503 1086.9 750.631 1087.32 748.971 1088.17C747.343 1088.98 745.96 1090.14 744.82 1091.64C743.714 1093.13 742.867 1094.89 742.281 1096.91C741.695 1098.93 741.402 1101.13 741.402 1103.5C741.402 1105.62 741.663 1107.67 742.184 1109.65C742.704 1111.64 743.502 1113.43 744.576 1115.03C745.65 1116.62 746.985 1117.89 748.58 1118.83C750.208 1119.75 752.112 1120.2 754.293 1120.2C756.311 1120.2 758.199 1119.81 759.957 1119.03C761.747 1118.22 763.326 1117.12 764.693 1115.76C766.093 1114.36 767.2 1112.78 768.014 1111.02C768.86 1109.26 769.348 1107.42 769.479 1105.5H773.775C773.775 1108.21 773.238 1110.88 772.164 1113.51C771.122 1116.12 769.658 1118.49 767.77 1120.64C765.882 1122.79 763.668 1124.51 761.129 1125.82C758.59 1127.09 755.823 1127.72 752.828 1127.72C749.312 1127.72 746.269 1127.04 743.697 1125.67C741.126 1124.3 739.01 1122.48 737.35 1120.2C735.722 1117.92 734.501 1115.38 733.688 1112.58C732.906 1109.75 732.516 1106.89 732.516 1103.99C732.516 1100.6 732.988 1097.43 733.932 1094.47C734.876 1091.51 736.275 1088.9 738.131 1086.66C739.986 1084.38 742.281 1082.6 745.016 1081.33C747.783 1080.06 750.973 1079.43 754.586 1079.43C758.655 1079.43 762.122 1080.24 764.986 1081.87C767.851 1083.5 770.178 1085.68 771.969 1088.41C773.792 1091.15 775.126 1094.22 775.973 1097.64C776.819 1101.06 777.242 1104.58 777.242 1108.19V1111.46C777.242 1115.14 776.998 1118.88 776.51 1122.69C776.054 1126.47 775.159 1130.08 773.824 1133.53C772.522 1136.98 770.618 1140.07 768.111 1142.81C765.605 1145.51 762.333 1147.66 758.297 1149.25C754.293 1150.82 749.345 1151.6 743.453 1151.6H742.525V1143.93ZM809.873 1151.5H795.029L795.127 1143.83H809.873C814.951 1143.83 819.183 1142.78 822.568 1140.66C825.954 1138.51 828.493 1135.52 830.186 1131.68C831.911 1127.8 832.773 1123.28 832.773 1118.1V1113.76C832.773 1109.69 832.285 1106.07 831.309 1102.92C830.332 1099.73 828.9 1097.04 827.012 1094.86C825.124 1092.65 822.812 1090.97 820.078 1089.83C817.376 1088.69 814.268 1088.12 810.752 1088.12H794.736V1080.41H810.752C815.407 1080.41 819.655 1081.19 823.496 1082.75C827.337 1084.28 830.641 1086.51 833.408 1089.44C836.208 1092.34 838.356 1095.85 839.854 1099.99C841.351 1104.09 842.1 1108.71 842.1 1113.85V1118.1C842.1 1123.24 841.351 1127.88 839.854 1132.02C838.356 1136.12 836.191 1139.62 833.359 1142.52C830.56 1145.41 827.174 1147.64 823.203 1149.21C819.264 1150.74 814.821 1151.5 809.873 1151.5ZM800.059 1080.41V1151.5H790.635V1080.41H800.059ZM865.6 1111.51H872.045C875.202 1111.51 877.807 1110.99 879.857 1109.95C881.941 1108.87 883.487 1107.42 884.496 1105.6C885.538 1103.75 886.059 1101.66 886.059 1099.35C886.059 1096.62 885.603 1094.32 884.691 1092.47C883.78 1090.61 882.413 1089.21 880.59 1088.27C878.767 1087.32 876.456 1086.85 873.656 1086.85C871.117 1086.85 868.871 1087.36 866.918 1088.37C864.997 1089.34 863.484 1090.74 862.377 1092.56C861.303 1094.39 860.766 1096.54 860.766 1099.01H851.732C851.732 1095.4 852.644 1092.11 854.467 1089.15C856.29 1086.18 858.845 1083.82 862.133 1082.07C865.453 1080.31 869.294 1079.43 873.656 1079.43C877.953 1079.43 881.713 1080.19 884.936 1081.72C888.158 1083.22 890.665 1085.47 892.455 1088.46C894.245 1091.43 895.141 1095.12 895.141 1099.55C895.141 1101.34 894.717 1103.26 893.871 1105.31C893.057 1107.33 891.771 1109.21 890.014 1110.97C888.288 1112.73 886.042 1114.18 883.275 1115.32C880.508 1116.43 877.188 1116.98 873.314 1116.98H865.6V1111.51ZM865.6 1118.93V1113.51H873.314C877.839 1113.51 881.583 1114.05 884.545 1115.12C887.507 1116.2 889.835 1117.63 891.527 1119.42C893.253 1121.21 894.457 1123.18 895.141 1125.33C895.857 1127.44 896.215 1129.56 896.215 1131.68C896.215 1135 895.645 1137.94 894.506 1140.51C893.399 1143.09 891.82 1145.27 889.77 1147.06C887.751 1148.85 885.375 1150.2 882.641 1151.11C879.906 1152.02 876.928 1152.48 873.705 1152.48C870.613 1152.48 867.699 1152.04 864.965 1151.16C862.263 1150.28 859.87 1149.01 857.787 1147.35C855.704 1145.66 854.076 1143.59 852.904 1141.15C851.732 1138.67 851.146 1135.86 851.146 1132.7H860.18C860.18 1135.18 860.717 1137.34 861.791 1139.2C862.898 1141.05 864.46 1142.5 866.479 1143.54C868.529 1144.55 870.938 1145.05 873.705 1145.05C876.472 1145.05 878.848 1144.58 880.834 1143.64C882.852 1142.66 884.398 1141.2 885.473 1139.24C886.579 1137.29 887.133 1134.83 887.133 1131.87C887.133 1128.91 886.514 1126.48 885.277 1124.6C884.04 1122.68 882.283 1121.26 880.004 1120.35C877.758 1119.4 875.105 1118.93 872.045 1118.93H865.6ZM519.57 1236.71L496.035 1301.5H486.416L513.516 1230.41H519.717L519.57 1236.71ZM539.297 1301.5L515.713 1236.71L515.566 1230.41H521.768L548.965 1301.5H539.297ZM538.076 1275.18V1282.9H498.135V1275.18H538.076ZM588.92 1291.25V1226.5H598.002V1301.5H589.701L588.92 1291.25ZM553.373 1275.67V1274.64C553.373 1270.61 553.861 1266.95 554.838 1263.66C555.847 1260.34 557.263 1257.49 559.086 1255.11C560.941 1252.74 563.139 1250.91 565.678 1249.64C568.249 1248.34 571.114 1247.69 574.271 1247.69C577.592 1247.69 580.489 1248.28 582.963 1249.45C585.469 1250.59 587.585 1252.26 589.311 1254.48C591.068 1256.66 592.452 1259.3 593.461 1262.39C594.47 1265.48 595.17 1268.98 595.561 1272.89V1277.38C595.202 1281.25 594.503 1284.74 593.461 1287.83C592.452 1290.92 591.068 1293.56 589.311 1295.74C587.585 1297.92 585.469 1299.6 582.963 1300.77C580.456 1301.91 577.527 1302.48 574.174 1302.48C571.081 1302.48 568.249 1301.81 565.678 1300.47C563.139 1299.14 560.941 1297.27 559.086 1294.86C557.263 1292.45 555.847 1289.62 554.838 1286.36C553.861 1283.08 553.373 1279.51 553.373 1275.67ZM562.455 1274.64V1275.67C562.455 1278.31 562.715 1280.78 563.236 1283.09C563.79 1285.4 564.636 1287.44 565.775 1289.2C566.915 1290.95 568.363 1292.34 570.121 1293.35C571.879 1294.32 573.979 1294.81 576.42 1294.81C579.415 1294.81 581.872 1294.18 583.793 1292.91C585.746 1291.64 587.309 1289.96 588.48 1287.88C589.652 1285.79 590.564 1283.53 591.215 1281.09V1269.32C590.824 1267.53 590.255 1265.81 589.506 1264.15C588.79 1262.45 587.846 1260.96 586.674 1259.65C585.535 1258.32 584.118 1257.26 582.426 1256.48C580.766 1255.7 578.796 1255.31 576.518 1255.31C574.044 1255.31 571.911 1255.83 570.121 1256.87C568.363 1257.88 566.915 1259.28 565.775 1261.07C564.636 1262.83 563.79 1264.88 563.236 1267.22C562.715 1269.53 562.455 1272.01 562.455 1274.64ZM643.865 1291.25V1226.5H652.947V1301.5H644.646L643.865 1291.25ZM608.318 1275.67V1274.64C608.318 1270.61 608.807 1266.95 609.783 1263.66C610.792 1260.34 612.208 1257.49 614.031 1255.11C615.887 1252.74 618.084 1250.91 620.623 1249.64C623.195 1248.34 626.059 1247.69 629.217 1247.69C632.537 1247.69 635.434 1248.28 637.908 1249.45C640.415 1250.59 642.531 1252.26 644.256 1254.48C646.014 1256.66 647.397 1259.3 648.406 1262.39C649.415 1265.48 650.115 1268.98 650.506 1272.89V1277.38C650.148 1281.25 649.448 1284.74 648.406 1287.83C647.397 1290.92 646.014 1293.56 644.256 1295.74C642.531 1297.92 640.415 1299.6 637.908 1300.77C635.402 1301.91 632.472 1302.48 629.119 1302.48C626.027 1302.48 623.195 1301.81 620.623 1300.47C618.084 1299.14 615.887 1297.27 614.031 1294.86C612.208 1292.45 610.792 1289.62 609.783 1286.36C608.807 1283.08 608.318 1279.51 608.318 1275.67ZM617.4 1274.64V1275.67C617.4 1278.31 617.661 1280.78 618.182 1283.09C618.735 1285.4 619.581 1287.44 620.721 1289.2C621.86 1290.95 623.309 1292.34 625.066 1293.35C626.824 1294.32 628.924 1294.81 631.365 1294.81C634.36 1294.81 636.818 1294.18 638.738 1292.91C640.691 1291.64 642.254 1289.96 643.426 1287.88C644.598 1285.79 645.509 1283.53 646.16 1281.09V1269.32C645.77 1267.53 645.2 1265.81 644.451 1264.15C643.735 1262.45 642.791 1260.96 641.619 1259.65C640.48 1258.32 639.064 1257.26 637.371 1256.48C635.711 1255.7 633.742 1255.31 631.463 1255.31C628.989 1255.31 626.857 1255.83 625.066 1256.87C623.309 1257.88 621.86 1259.28 620.721 1261.07C619.581 1262.83 618.735 1264.88 618.182 1267.22C617.661 1269.53 617.4 1272.01 617.4 1274.64ZM675.324 1248.67V1301.5H666.242V1248.67H675.324ZM665.559 1234.65C665.559 1233.19 665.998 1231.95 666.877 1230.94C667.788 1229.93 669.123 1229.43 670.881 1229.43C672.606 1229.43 673.924 1229.93 674.836 1230.94C675.78 1231.95 676.252 1233.19 676.252 1234.65C676.252 1236.05 675.78 1237.26 674.836 1238.27C673.924 1239.24 672.606 1239.73 670.881 1239.73C669.123 1239.73 667.788 1239.24 666.877 1238.27C665.998 1237.26 665.559 1236.05 665.559 1234.65ZM710.445 1248.67V1255.6H681.881V1248.67H710.445ZM691.549 1235.83H700.582V1288.41C700.582 1290.2 700.859 1291.56 701.412 1292.47C701.965 1293.38 702.682 1293.98 703.561 1294.27C704.439 1294.57 705.383 1294.71 706.393 1294.71C707.141 1294.71 707.923 1294.65 708.736 1294.52C709.583 1294.35 710.217 1294.22 710.641 1294.13L710.689 1301.5C709.973 1301.73 709.029 1301.94 707.857 1302.13C706.718 1302.36 705.335 1302.48 703.707 1302.48C701.493 1302.48 699.459 1302.04 697.604 1301.16C695.748 1300.28 694.267 1298.81 693.16 1296.76C692.086 1294.68 691.549 1291.88 691.549 1288.37V1235.83ZM729.355 1248.67V1301.5H720.273V1248.67H729.355ZM719.59 1234.65C719.59 1233.19 720.029 1231.95 720.908 1230.94C721.82 1229.93 723.154 1229.43 724.912 1229.43C726.637 1229.43 727.956 1229.93 728.867 1230.94C729.811 1231.95 730.283 1233.19 730.283 1234.65C730.283 1236.05 729.811 1237.26 728.867 1238.27C727.956 1239.24 726.637 1239.73 724.912 1239.73C723.154 1239.73 721.82 1239.24 720.908 1238.27C720.029 1237.26 719.59 1236.05 719.59 1234.65ZM739.965 1275.67V1274.55C739.965 1270.74 740.518 1267.21 741.625 1263.95C742.732 1260.66 744.327 1257.82 746.41 1255.41C748.493 1252.96 751.016 1251.08 753.979 1249.74C756.941 1248.38 760.261 1247.69 763.939 1247.69C767.65 1247.69 770.987 1248.38 773.949 1249.74C776.944 1251.08 779.483 1252.96 781.566 1255.41C783.682 1257.82 785.294 1260.66 786.4 1263.95C787.507 1267.21 788.061 1270.74 788.061 1274.55V1275.67C788.061 1279.48 787.507 1283.01 786.4 1286.27C785.294 1289.52 783.682 1292.37 781.566 1294.81C779.483 1297.22 776.96 1299.11 773.998 1300.47C771.068 1301.81 767.748 1302.48 764.037 1302.48C760.326 1302.48 756.99 1301.81 754.027 1300.47C751.065 1299.11 748.526 1297.22 746.41 1294.81C744.327 1292.37 742.732 1289.52 741.625 1286.27C740.518 1283.01 739.965 1279.48 739.965 1275.67ZM748.998 1274.55V1275.67C748.998 1278.31 749.307 1280.8 749.926 1283.14C750.544 1285.45 751.472 1287.5 752.709 1289.29C753.979 1291.08 755.557 1292.5 757.445 1293.54C759.333 1294.55 761.531 1295.05 764.037 1295.05C766.511 1295.05 768.676 1294.55 770.531 1293.54C772.419 1292.5 773.982 1291.08 775.219 1289.29C776.456 1287.5 777.383 1285.45 778.002 1283.14C778.653 1280.8 778.979 1278.31 778.979 1275.67V1274.55C778.979 1271.94 778.653 1269.49 778.002 1267.17C777.383 1264.83 776.439 1262.76 775.17 1260.97C773.933 1259.15 772.37 1257.72 770.482 1256.68C768.627 1255.63 766.446 1255.11 763.939 1255.11C761.465 1255.11 759.285 1255.63 757.396 1256.68C755.541 1257.72 753.979 1259.15 752.709 1260.97C751.472 1262.76 750.544 1264.83 749.926 1267.17C749.307 1269.49 748.998 1271.94 748.998 1274.55ZM806.922 1259.95V1301.5H797.889V1248.67H806.434L806.922 1259.95ZM804.773 1273.08L801.014 1272.94C801.046 1269.32 801.583 1265.99 802.625 1262.93C803.667 1259.83 805.132 1257.15 807.02 1254.87C808.908 1252.59 811.154 1250.83 813.758 1249.6C816.395 1248.33 819.308 1247.69 822.498 1247.69C825.102 1247.69 827.446 1248.05 829.529 1248.77C831.613 1249.45 833.387 1250.56 834.852 1252.09C836.349 1253.62 837.488 1255.6 838.27 1258.04C839.051 1260.45 839.441 1263.4 839.441 1266.88V1301.5H830.359V1266.78C830.359 1264.02 829.952 1261.8 829.139 1260.14C828.325 1258.45 827.137 1257.23 825.574 1256.48C824.012 1255.7 822.091 1255.31 819.812 1255.31C817.566 1255.31 815.516 1255.78 813.66 1256.72C811.837 1257.67 810.258 1258.97 808.924 1260.63C807.622 1262.29 806.596 1264.2 805.848 1266.34C805.132 1268.46 804.773 1270.71 804.773 1273.08ZM882.814 1292.47V1265.27C882.814 1263.19 882.391 1261.38 881.545 1259.85C880.731 1258.29 879.494 1257.08 877.834 1256.24C876.174 1255.39 874.123 1254.97 871.682 1254.97C869.403 1254.97 867.401 1255.36 865.676 1256.14C863.983 1256.92 862.648 1257.95 861.672 1259.21C860.728 1260.48 860.256 1261.85 860.256 1263.32H851.223C851.223 1261.43 851.711 1259.56 852.688 1257.7C853.664 1255.85 855.064 1254.17 856.887 1252.67C858.742 1251.14 860.956 1249.94 863.527 1249.06C866.132 1248.15 869.029 1247.69 872.219 1247.69C876.06 1247.69 879.445 1248.34 882.375 1249.64C885.337 1250.95 887.648 1252.92 889.309 1255.55C891.001 1258.16 891.848 1261.43 891.848 1265.37V1289.98C891.848 1291.73 891.994 1293.61 892.287 1295.59C892.613 1297.58 893.085 1299.29 893.703 1300.72V1301.5H884.279C883.824 1300.46 883.465 1299.07 883.205 1297.35C882.945 1295.59 882.814 1293.96 882.814 1292.47ZM884.377 1269.47L884.475 1275.82H875.344C872.772 1275.82 870.477 1276.03 868.459 1276.45C866.441 1276.84 864.748 1277.44 863.381 1278.26C862.014 1279.07 860.972 1280.1 860.256 1281.33C859.54 1282.54 859.182 1283.95 859.182 1285.58C859.182 1287.24 859.556 1288.76 860.305 1290.12C861.053 1291.49 862.176 1292.58 863.674 1293.39C865.204 1294.18 867.076 1294.57 869.289 1294.57C872.056 1294.57 874.497 1293.98 876.613 1292.81C878.729 1291.64 880.406 1290.2 881.643 1288.51C882.912 1286.82 883.596 1285.18 883.693 1283.58L887.551 1287.93C887.323 1289.29 886.704 1290.81 885.695 1292.47C884.686 1294.13 883.335 1295.72 881.643 1297.25C879.982 1298.75 877.997 1300 875.686 1301.01C873.407 1301.99 870.835 1302.48 867.971 1302.48C864.39 1302.48 861.249 1301.78 858.547 1300.38C855.878 1298.98 853.794 1297.11 852.297 1294.76C850.832 1292.39 850.1 1289.73 850.1 1286.8C850.1 1283.97 850.653 1281.48 851.76 1279.33C852.867 1277.15 854.462 1275.34 856.545 1273.91C858.628 1272.45 861.135 1271.34 864.064 1270.59C866.994 1269.84 870.266 1269.47 873.879 1269.47H884.377ZM914.371 1226.5V1301.5H905.289V1226.5H914.371Z" fill="white"/>
</svg>
