<svg width="30" height="30" viewBox="0 0 30 30" fill="none" xmlns="http://www.w3.org/2000/svg">
<path d="M15 2.5C13.3585 2.5 11.733 2.82332 10.2165 3.45151C8.69989 4.07969 7.3219 5.00043 6.16117 6.16117C3.81696 8.50537 2.5 11.6848 2.5 15C2.5 18.3152 3.81696 21.4946 6.16117 23.8388C7.3219 24.9996 8.69989 25.9203 10.2165 26.5485C11.733 27.1767 13.3585 27.5 15 27.5C18.3152 27.5 21.4946 26.183 23.8388 23.8388C26.183 21.4946 27.5 18.3152 27.5 15C27.5 13.3585 27.1767 11.733 26.5485 10.2165C25.9203 8.69989 24.9996 7.3219 23.8388 6.16117C22.6781 5.00043 21.3001 4.07969 19.7835 3.45151C18.267 2.82332 16.6415 2.5 15 2.5ZM8.8375 22.85C9.375 21.725 12.65 20.625 15 20.625C17.35 20.625 20.625 21.725 21.1625 22.85C19.4117 24.245 17.2386 25.0032 15 25C12.675 25 10.5375 24.2 8.8375 22.85ZM22.95 21.0375C21.1625 18.8625 16.825 18.125 15 18.125C13.175 18.125 8.8375 18.8625 7.05 21.0375C5.72023 19.3058 4.99958 17.1834 5 15C5 9.4875 9.4875 5 15 5C20.5125 5 25 9.4875 25 15C25 17.275 24.225 19.375 22.95 21.0375ZM15 7.5C12.575 7.5 10.625 9.45 10.625 11.875C10.625 14.3 12.575 16.25 15 16.25C17.425 16.25 19.375 14.3 19.375 11.875C19.375 9.45 17.425 7.5 15 7.5ZM15 13.75C14.5027 13.75 14.0258 13.5525 13.6742 13.2008C13.3225 12.8492 13.125 12.3723 13.125 11.875C13.125 11.3777 13.3225 10.9008 13.6742 10.5492C14.0258 10.1975 14.5027 10 15 10C15.4973 10 15.9742 10.1975 16.3258 10.5492C16.6775 10.9008 16.875 11.3777 16.875 11.875C16.875 12.3723 16.6775 12.8492 16.3258 13.2008C15.9742 13.5525 15.4973 13.75 15 13.75Z" fill="#032038"/>
</svg>
