<svg width="32" height="32" viewBox="0 0 32 32" fill="none" xmlns="http://www.w3.org/2000/svg">
<g clip-path="url(#clip0_2523_11339)">
<path d="M5.33333 7.99967V21.333H12V15.9997C12 15.2924 12.281 14.6142 12.781 14.1141C13.2811 13.614 13.9594 13.333 14.6667 13.333H21.3333C22.0406 13.333 22.7189 13.614 23.219 14.1141C23.719 14.6142 24 15.2924 24 15.9997V21.333H26.6667V7.99967H5.33333ZM0 26.6663V23.9997H5.33333C4.62609 23.9997 3.94781 23.7187 3.44772 23.2186C2.94762 22.7185 2.66667 22.0403 2.66667 21.333V7.99967C2.66667 7.29243 2.94762 6.61415 3.44772 6.11406C3.94781 5.61396 4.62609 5.33301 5.33333 5.33301H26.6667C27.3739 5.33301 28.0522 5.61396 28.5523 6.11406C29.0524 6.61415 29.3333 7.29243 29.3333 7.99967V21.333C29.3333 22.0403 29.0524 22.7185 28.5523 23.2186C28.0522 23.7187 27.3739 23.9997 26.6667 23.9997H32V26.6663H24C24 27.3736 23.719 28.0519 23.219 28.552C22.7189 29.0521 22.0406 29.333 21.3333 29.333H14.6667C13.9594 29.333 13.2811 29.0521 12.781 28.552C12.281 28.0519 12 27.3736 12 26.6663H0ZM15.3333 26.6663C15.1565 26.6663 14.987 26.7366 14.8619 26.8616C14.7369 26.9866 14.6667 27.1562 14.6667 27.333C14.6667 27.5098 14.7369 27.6794 14.8619 27.8044C14.987 27.9294 15.1565 27.9997 15.3333 27.9997C15.5101 27.9997 15.6797 27.9294 15.8047 27.8044C15.9298 27.6794 16 27.5098 16 27.333C16 27.1562 15.9298 26.9866 15.8047 26.8616C15.6797 26.7366 15.5101 26.6663 15.3333 26.6663ZM20.6667 26.6663C20.4899 26.6663 20.3203 26.7366 20.1953 26.8616C20.0702 26.9866 20 27.1562 20 27.333C20 27.5098 20.0702 27.6794 20.1953 27.8044C20.3203 27.9294 20.4899 27.9997 20.6667 27.9997C20.8435 27.9997 21.013 27.9294 21.1381 27.8044C21.2631 27.6794 21.3333 27.5098 21.3333 27.333C21.3333 27.1562 21.2631 26.9866 21.1381 26.8616C21.013 26.7366 20.8435 26.6663 20.6667 26.6663ZM17.3333 26.6663V27.9997H18.6667V26.6663H17.3333ZM14.6667 15.9997V25.333H21.3333V15.9997H14.6667Z" fill="#032038"/>
</g>
<defs>
<clipPath id="clip0_2523_11339">
<rect width="32" height="32" fill="white"/>
</clipPath>
</defs>
</svg>
